<svg width="1061" height="349" viewBox="0 0 1061 349" fill="none" xmlns="http://www.w3.org/2000/svg">
<g id="NWD WEB WIP Landing Page">
<g id="NWD Logo 04 1" clip-path="url(#clip0_0_1)">
<g id="Group">
<g id="Clip path group">
<mask id="mask0_0_1" style="mask-type:luminance" maskUnits="userSpaceOnUse" x="0" y="0" width="1061" height="349">
<g id="SVGID_00000179608686917372163020000014408719827187668380_">
<path id="Vector" d="M1061 0H0V349H1061V0Z" fill="white"/>
</g>
</mask>
<g mask="url(#mask0_0_1)">
<path id="Vector_2" d="M948.599 255.356C948.599 247.187 953.806 242.087 961.976 242.087C970.146 242.087 975.282 247.187 975.282 255.356C975.282 263.487 970.146 268.587 961.976 268.587C953.806 268.587 948.599 263.487 948.599 255.356ZM961.976 266.27C968.469 266.27 972.536 262.095 972.536 255.356C972.536 248.613 968.469 244.405 961.976 244.405C955.449 244.405 951.382 248.613 951.382 255.356C951.382 262.095 955.449 266.27 961.976 266.27ZM961.976 247.33C966.114 247.33 968.612 249.933 968.968 253.143H965.971C965.829 252.217 965.078 250.075 962.085 250.075C958.765 250.075 957.767 252.502 957.767 255.356C957.767 258.172 958.765 260.599 962.085 260.599C965.078 260.599 965.829 258.566 965.971 257.494H968.968C968.755 260.742 966.327 263.344 962.261 263.344C957.482 263.344 954.665 260.063 954.665 255.356C954.665 250.683 957.339 247.33 961.976 247.33Z" fill="#F2EDE3"/>
</g>
</g>
</g>
<g id="Group_2">
<g id="Clip path group_2">
<mask id="mask1_0_1" style="mask-type:luminance" maskUnits="userSpaceOnUse" x="0" y="0" width="1061" height="349">
<g id="SVGID_00000011717750064294561210000009153094228858545806_">
<path id="Vector_3" d="M1061 0H0V349H1061V0Z" fill="white"/>
</g>
</mask>
<g mask="url(#mask1_0_1)">
<path id="Vector_4" d="M131.03 133.598L171.968 174.526L131.03 215.455L121.727 206.153L146.474 181.412L85.7178 181.502V167.55L146.287 167.457L121.727 142.899L131.03 133.598Z" fill="#F2EDE3"/>
</g>
</g>
</g>
<g id="Group_3">
<g id="Clip path group_3">
<mask id="mask2_0_1" style="mask-type:luminance" maskUnits="userSpaceOnUse" x="0" y="0" width="1061" height="349">
<g id="SVGID_00000071540175506197582070000002720483669127017636_">
<path id="Vector_5" d="M1061 0H0V349H1061V0Z" fill="white"/>
</g>
</mask>
<g mask="url(#mask2_0_1)">
<path id="Vector_6" d="M186.471 141.422L211.129 116.77L220.432 126.075L179.494 167.003L138.556 126.075L147.859 116.77L172.516 141.422L172.513 80.7734H186.471V141.422Z" fill="#F2EDE3"/>
</g>
</g>
</g>
<g id="Group_4">
<g id="Clip path group_4">
<mask id="mask3_0_1" style="mask-type:luminance" maskUnits="userSpaceOnUse" x="0" y="0" width="1061" height="349">
<g id="SVGID_00000071527221283379142030000013520403926842092672_">
<path id="Vector_7" d="M1061 0H0V349H1061V0Z" fill="white"/>
</g>
</mask>
<g mask="url(#mask3_0_1)">
<path id="Vector_8" d="M179.494 182.054L220.432 222.982L211.129 232.287L186.471 207.635V268.284H172.516V207.635L147.859 232.287L138.556 222.982L179.494 182.054Z" fill="#F2EDE3"/>
</g>
</g>
</g>
<g id="Group_5">
<g id="Clip path group_5">
<mask id="mask4_0_1" style="mask-type:luminance" maskUnits="userSpaceOnUse" x="0" y="0" width="1061" height="349">
<g id="SVGID_00000103979657113724279760000010102101192802942358_">
<path id="Vector_9" d="M1061 0H0V349H1061V0Z" fill="white"/>
</g>
</mask>
<g mask="url(#mask4_0_1)">
<path id="Vector_10" d="M273.269 181.506L212.513 181.412L237.264 206.157L227.957 215.458L187.019 174.53L227.957 133.602L237.26 142.903L212.7 167.46L273.269 167.554V181.506Z" fill="#F2EDE3"/>
</g>
</g>
</g>
<g id="Group_6">
<g id="Clip path group_6">
<mask id="mask5_0_1" style="mask-type:luminance" maskUnits="userSpaceOnUse" x="0" y="0" width="1061" height="349">
<g id="SVGID_00000142157766714752746430000017230990204599755691_">
<path id="Vector_11" d="M1061 0H0V349H1061V0Z" fill="white"/>
</g>
</mask>
<g mask="url(#mask5_0_1)">
<path id="Vector_12" d="M496.079 80.7734V268.284H425.006L366.343 140.27C362.112 130.68 358.447 121.094 355.626 111.508V268.284H314.447V80.7734H385.52L444.75 210.76C448.133 218.654 451.798 228.24 454.901 237.83V80.7734H496.079Z" fill="#F2EDE3"/>
</g>
</g>
</g>
<g id="Group_7">
<g id="Clip path group_7">
<mask id="mask6_0_1" style="mask-type:luminance" maskUnits="userSpaceOnUse" x="0" y="0" width="1061" height="349">
<g id="SVGID_00000060712167327554471300000000826955994075230380_">
<path id="Vector_13" d="M1061 0H0V349H1061V0Z" fill="white"/>
</g>
</mask>
<g mask="url(#mask6_0_1)">
<path id="Vector_14" d="M521.424 81.0769H564.294V240.388L613.647 80.4131H663.288L712.926 241.232V81.0769H755.511V268.583H681.902L637.906 122.71L593.907 268.583H521.424V81.0769Z" fill="#F2EDE3"/>
</g>
</g>
</g>
<g id="Group_8">
<g id="Clip path group_8">
<mask id="mask7_0_1" style="mask-type:luminance" maskUnits="userSpaceOnUse" x="0" y="0" width="1061" height="349">
<g id="SVGID_00000078030245502810752180000002214175039637335713_">
<path id="Vector_15" d="M1061 0H0V349H1061V0Z" fill="white"/>
</g>
</mask>
<g mask="url(#mask7_0_1)">
<path id="Vector_16" d="M959.684 174.407C959.684 224.032 932.044 268.584 871.126 268.584H780.873V81.0771H871.126C932.044 81.0771 959.684 125.062 959.684 174.407ZM915.122 174.407C915.122 134.371 899.61 114.91 861.534 114.91H823.743V234.466H861.534C899.892 234.466 915.122 214.165 915.122 174.407Z" fill="#F2EDE3"/>
</g>
</g>
</g>
</g>
</g>
<defs>
<clipPath id="clip0_0_1">
<rect width="1061" height="349" fill="white"/>
</clipPath>
</defs>
</svg>
