<svg width="100" height="100" viewBox="0 0 100 100" fill="none" xmlns="http://www.w3.org/2000/svg">
<g clip-path="url(#clip0_279_788)">
<path d="M83.334 8.33325H16.6673C12.084 8.33325 8.37565 12.0833 8.37565 16.6666L8.33398 91.6666L25.0007 74.9999H83.334C87.9173 74.9999 91.6673 71.2499 91.6673 66.6666V16.6666C91.6673 12.0833 87.9173 8.33325 83.334 8.33325ZM83.334 66.6666H21.5423L19.084 69.1249L16.6673 71.5416V16.6666H83.334V66.6666ZM25.0007 49.9999H33.334V58.3333H25.0007V49.9999ZM25.0007 37.4999H33.334V45.8333H25.0007V37.4999ZM25.0007 24.9999H33.334V33.3333H25.0007V24.9999ZM41.6673 49.9999H62.5007V58.3333H41.6673V49.9999ZM41.6673 37.4999H75.0007V45.8333H41.6673V37.4999ZM41.6673 24.9999H75.0007V33.3333H41.6673V24.9999Z" fill="#111111"/>
</g>
<defs>
<clipPath id="clip0_279_788">
<rect width="100" height="100" fill="white"/>
</clipPath>
</defs>
</svg>
