<svg width="98" height="98" viewBox="0 0 98 98" fill="none" xmlns="http://www.w3.org/2000/svg">
<g clip-path="url(#clip0_279_957)">
<path d="M48.9585 8.16675C26.4185 8.16675 8.16602 26.4601 8.16602 49.0001C8.16602 71.5401 26.4185 89.8334 48.9585 89.8334C71.5393 89.8334 89.8327 71.5401 89.8327 49.0001C89.8327 26.4601 71.5393 8.16675 48.9585 8.16675ZM77.256 32.6667H65.2102C63.9035 27.5626 62.0252 22.6626 59.5752 18.1301C67.0885 20.7026 73.336 25.9292 77.256 32.6667ZM48.9993 16.4967C52.3885 21.3967 55.0427 26.8276 56.7985 32.6667H41.2002C42.956 26.8276 45.6102 21.3967 48.9993 16.4967ZM17.3943 57.1667C16.741 54.5534 16.3327 51.8176 16.3327 49.0001C16.3327 46.1826 16.741 43.4467 17.3943 40.8334H31.196C30.8693 43.5284 30.6243 46.2234 30.6243 49.0001C30.6243 51.7767 30.8693 54.4717 31.196 57.1667H17.3943ZM20.7427 65.3334H32.7885C34.0952 70.4376 35.9735 75.3376 38.4235 79.8701C30.9102 77.2976 24.6627 72.1117 20.7427 65.3334ZM32.7885 32.6667H20.7427C24.6627 25.8884 30.9102 20.7026 38.4235 18.1301C35.9735 22.6626 34.0952 27.5626 32.7885 32.6667ZM48.9993 81.5034C45.6102 76.6034 42.956 71.1726 41.2002 65.3334H56.7985C55.0427 71.1726 52.3885 76.6034 48.9993 81.5034ZM58.5543 57.1667H39.4443C39.0768 54.4717 38.791 51.7767 38.791 49.0001C38.791 46.2234 39.0768 43.4876 39.4443 40.8334H58.5543C58.9218 43.4876 59.2077 46.2234 59.2077 49.0001C59.2077 51.7767 58.9218 54.4717 58.5543 57.1667ZM59.5752 79.8701C62.0252 75.3376 63.9035 70.4376 65.2102 65.3334H77.256C73.336 72.0709 67.0885 77.2976 59.5752 79.8701ZM66.8027 57.1667C67.1293 54.4717 67.3743 51.7767 67.3743 49.0001C67.3743 46.2234 67.1293 43.5284 66.8027 40.8334H80.6043C81.2577 43.4467 81.666 46.1826 81.666 49.0001C81.666 51.8176 81.2577 54.5534 80.6043 57.1667H66.8027Z" fill="#111111"/>
</g>
<defs>
<clipPath id="clip0_279_957">
<rect width="98" height="98" fill="white"/>
</clipPath>
</defs>
</svg>
