<svg xmlns="http://www.w3.org/2000/svg" width="1800" height="1200" viewBox="0 0 1800 1200" role="img" aria-labelledby="title desc">
  <title id="title">Abstract directional landscape</title>
  <desc id="desc">A structured abstract image with paths, panels, and horizon lines.</desc>
  <rect width="1800" height="1200" fill="#263238"/>
  <path d="M0 760 C260 610 520 610 780 760 C1040 910 1300 910 1800 650 L1800 1200 L0 1200 Z" fill="#0f766e"/>
  <path d="M0 890 C280 720 560 720 840 890 C1120 1060 1400 1040 1800 790 L1800 1200 L0 1200 Z" fill="#f1c76b"/>
  <path d="M180 1200 L760 500 L900 500 L470 1200 Z" fill="#f7f5f0" opacity="0.9"/>
  <path d="M690 1200 L1030 500 L1170 500 L980 1200 Z" fill="#ffffff" opacity="0.55"/>
  <path d="M1020 1200 L1280 540 L1410 540 L1320 1200 Z" fill="#d94841" opacity="0.85"/>
  <g opacity="0.32" stroke="#ffffff" stroke-width="3">
    <path d="M160 260 H670"/>
    <path d="M980 230 H1490"/>
    <path d="M220 360 H520"/>
    <path d="M1100 350 H1640"/>
  </g>
</svg>
