<svg width="180" height="47" viewBox="0 0 180 47" fill="none" xmlns="http://www.w3.org/2000/svg">
<path d="M11.0214 12.8521L20.979 22.8097L11.0214 32.7667L8.7585 30.5038L14.7781 24.4841L0 24.5069V21.1125L14.7327 21.0892L8.7585 15.115L11.0214 12.8521Z" fill="#231F20"/>
<path d="M24.5069 14.7554L30.5038 8.7585L32.7672 11.0214L22.8097 20.979L12.8521 11.0214L15.1156 8.7585L21.1125 14.7554L21.1119 0.00055409L24.5069 0V14.7554Z" fill="#231F20"/>
<path d="M22.8097 24.6398L32.7667 34.5974L30.5038 36.8603L24.5069 30.8634V45.6182H21.1125V30.8634L15.115 36.8603L12.8521 34.5974L22.8097 24.6398Z" fill="#231F20"/>
<path d="M45.6182 24.5069L30.8406 24.4841L36.8603 30.5043L34.5974 32.7672L24.6398 22.8097L34.5968 12.8521L36.8603 15.1156L30.8861 21.0898L45.6182 21.1125V24.5069Z" fill="#231F20"/>
<path d="M78.2829 0.0299263V19.7234H71.9159L65.0457 5.65671C64.5421 4.59064 64.0977 3.55394 63.7719 2.54716V19.7234H60.0706V0.0299263H66.4376L73.3671 14.2152C73.7521 15.0441 74.196 16.1102 74.5811 17.1762V0.0299263H78.2829Z" fill="#231F20"/>
<path d="M91.9629 15.2513H95.4282C95.1024 17.4727 93.3254 20.1971 88.0538 20.1971C82.5456 20.1971 80.3541 16.5546 80.3541 12.2897C80.3541 7.96616 82.7827 4.44215 88.0538 4.44215C93.2068 4.44215 95.4875 7.93679 95.4875 12.1418C95.4875 12.5562 95.4575 12.9413 95.3982 13.2971H83.9081C84.1746 16.5839 85.833 17.5907 88.1724 17.5907C90.4524 17.5907 91.5484 16.5839 91.9629 15.2513ZM83.9674 10.8685H91.9629C91.8149 8.2626 90.5117 7.01866 88.1131 7.01866C85.8036 7.01866 84.3225 7.96616 83.9674 10.8685Z" fill="#231F20"/>
<path d="M121.162 4.91589L116.986 19.7228H111.833L108.516 8.97293L105.17 19.7228H99.9877L95.8415 4.91589H99.5727L102.831 16.969L106.769 4.91589H110.53L114.469 17.0283L117.667 4.91589H121.162Z" fill="#231F20"/>
<path d="M78.3721 35.7571C78.3721 41.0287 75.5291 45.6482 69.0729 45.6482H60.0706V25.9547H69.0729C75.5291 25.9547 78.3721 30.5154 78.3721 35.7571ZM74.4331 35.7571C74.4331 31.1964 72.7448 28.9756 68.3032 28.9756H63.8611V42.6273H68.3032C72.7448 42.6273 74.4331 40.2879 74.4331 35.7571Z" fill="#231F20"/>
<path d="M84.2039 30.8407H80.532V45.6476H84.2039V30.8407Z" fill="#231F20"/>
<path d="M90.6896 45.6482H87.0171V30.8412H90.6003L90.6896 45.6482Z" fill="#231F20"/>
<path d="M108.368 41.1761H111.833C111.507 43.3974 109.73 46.1219 104.459 46.1219C98.951 46.1219 96.7596 42.4793 96.7596 38.2145C96.7596 33.8909 99.1876 30.3669 104.459 30.3669C109.612 30.3669 111.892 33.8615 111.892 38.0665C111.892 38.481 111.862 38.8661 111.803 39.2218H100.313C100.58 42.5087 102.238 43.5155 104.578 43.5155C106.858 43.5155 107.953 42.5087 108.368 41.1761ZM100.372 36.7932H108.368C108.22 34.1873 106.917 32.9434 104.519 32.9434C102.209 32.9434 100.728 33.8909 100.372 36.7932Z" fill="#231F20"/>
<path d="M121.042 30.3669C125.899 30.3669 128.327 33.062 128.475 36.6154H124.951C124.744 34.7204 123.677 33.2692 121.131 33.2692C118.495 33.2692 116.866 34.5425 116.866 38.2444C116.866 42.0056 118.436 43.2196 121.071 43.2196C123.677 43.2196 124.833 41.6798 125.069 39.7543H128.594C128.475 43.101 126.047 46.1219 121.101 46.1219C115.711 46.1219 113.194 42.5087 113.194 38.2444C113.194 33.9801 115.682 30.3669 121.042 30.3669Z" fill="#231F20"/>
<path d="M131.672 40.791V33.6244H128.918V31.8181L131.969 30.6628L133.479 27.4053H135.344V30.8406H139.846V33.6244H135.344V42.7159H139.491V45.6476H136.618C132.738 45.6476 131.672 44.0485 131.672 40.791Z" fill="#231F20"/>
<path d="M96.7413 33.8023V30.8412H93.4279L90.3776 31.9959V33.8023H96.7413Z" fill="#231F20"/>
<path d="M145.5 30.8407H141.828V45.6476H145.5V30.8407Z" fill="#231F20"/>
<path d="M145.5 27.4053H141.828V29.3457H145.5V27.4053Z" fill="#231F20"/>
<path d="M84.2039 27.4053H80.532V29.3457H84.2039V27.4053Z" fill="#231F20"/>
<path d="M147.692 38.215C147.692 34.0095 150.061 30.3669 155.599 30.3669C161.137 30.3669 163.535 34.0394 163.535 38.215C163.535 42.4494 161.137 46.1219 155.599 46.1219C150.061 46.1219 147.692 42.4793 147.692 38.215ZM155.599 43.2196C158.531 43.2196 159.834 41.8576 159.834 38.2444C159.834 34.6312 158.531 33.2692 155.599 33.2692C152.667 33.2692 151.364 34.6312 151.364 38.2444C151.364 41.8576 152.667 43.2196 155.599 43.2196Z" fill="#231F20"/>
<path d="M180 36.4974V45.6482H176.328V36.9417C176.328 34.2173 175.113 33.3878 173.277 33.3878C170.671 33.3878 169.22 35.0462 169.22 39.1625V45.6482H165.548V30.8412H169.22V33.9801C170.138 31.848 171.797 30.3675 174.551 30.3675C178.49 30.3675 180 32.6182 180 36.4974Z" fill="#231F20"/>
</svg>
