<svg width="380" height="220" viewBox="0 0 380 220" fill="none" xmlns="http://www.w3.org/2000/svg">
<path d="M0 18C0 8.05887 8.05888 0 18 0H362C371.941 0 380 8.05888 380 18V202C380 211.941 371.941 220 362 220H18C8.05887 220 0 211.941 0 202V18Z" fill="#C0A8E5"/>
<path d="M148.258 74V127.578C148.258 133.941 147.007 138.763 144.493 142.058C141.978 145.353 137.861 147 132.129 147C126.396 147 122.28 145.366 119.765 142.085C117.251 138.803 116 133.968 116 127.578V74H127.764V127.578C127.764 131.058 128.064 133.489 128.676 134.884C129.289 136.279 130.474 136.97 132.246 136.97C133.927 136.97 135.047 136.279 135.62 134.911C136.194 133.542 136.48 131.098 136.48 127.578V74H148.258Z" fill="#113A5F"/>
<path d="M184.958 128.627L187.173 146.004H175.304L173.389 128.627C173.129 126.289 172.751 124.735 172.282 123.977C171.8 123.22 171.096 122.848 170.145 122.848H167.24V145.99H155.814V74H170.145C175.656 74 179.734 75.5676 182.352 78.6895C184.971 81.8248 186.287 86.6339 186.287 93.1168V102.111C186.287 109.577 184.098 114.784 179.734 117.72C182.561 119.633 184.294 123.26 184.945 128.614M167.24 113.017H170.145C171.748 113.017 172.881 112.167 173.519 110.48C174.158 108.793 174.483 106.003 174.483 102.124V93.1301C174.483 89.4768 174.184 87.0457 173.571 85.8235C172.959 84.6013 171.826 83.9902 170.145 83.9902H167.24V113.017Z" fill="#113A5F"/>
<path d="M207.64 74C219.261 74 225.072 80.483 225.072 93.4357V126.568C225.072 139.521 219.261 146.004 207.64 146.004H193.804V74H207.64ZM207.64 136.013C209.933 136.013 211.457 135.376 212.2 134.074C212.943 132.785 213.307 130.288 213.307 126.568V93.4357C213.307 89.6495 212.877 87.1387 212.031 85.8766C211.171 84.6146 209.712 83.9902 207.653 83.9902H205.634V136H207.653L207.64 136.013Z" fill="#113A5F"/>
<path d="M251.936 146.004L250.802 133.25H241.448L240.315 146.004H228.602L237.318 74H255.336L264 145.99H251.936V146.004ZM242.334 123.26H249.917L246.568 84.0035H245.682L242.334 123.26Z" fill="#113A5F"/>
</svg>
