<svg width="50" height="29" viewBox="0 0 50 29" fill="none" xmlns="http://www.w3.org/2000/svg">
<g clip-path="url(#clip0_80_426)">
<path fill-rule="evenodd" clip-rule="evenodd" d="M50.0005 7.23909L49.9873 21.8061C44.9148 26.1112 35.4987 29.0096 24.7607 29C14.3359 28.9905 5.16218 26.2425 0.000976562 22.1346L0.0141638 6.82028C5.18264 2.72156 14.3614 -0.00909159 24.7861 2.27467e-05C35.5241 0.0095928 44.9348 2.92436 50.0005 7.23909Z" fill="#2D2D2D"/>
<path fill-rule="evenodd" clip-rule="evenodd" d="M44.4568 8.28085C44.4558 9.20094 45.1834 9.86173 46.0315 9.86218C46.8982 9.8631 47.6085 9.20413 47.6089 8.28358C47.6099 7.39812 46.9009 6.73779 46.0342 6.73688C45.1861 6.73642 44.4577 7.39539 44.4568 8.28085ZM46.0315 9.6366C45.3039 9.63615 44.7328 9.0624 44.7332 8.2813C44.7341 7.53484 45.3066 6.96291 46.0342 6.96337C46.7791 6.96382 47.3498 7.53757 47.3488 8.28358C47.3484 9.06468 46.7763 9.63752 46.0315 9.6366ZM45.7377 9.11526V8.40389H46.0156L46.448 9.11572H46.7245L46.2584 8.38657C46.5008 8.36971 46.6908 8.23026 46.6908 7.95319C46.6908 7.64102 46.5017 7.46648 46.1202 7.46648H45.4794L45.4781 9.11481H45.7382L45.7377 9.11526ZM46.0328 8.19563H45.7386V7.69206H46.0851C46.2411 7.69252 46.4317 7.72761 46.4317 7.93587C46.4317 8.19608 46.2407 8.19608 46.0328 8.19608V8.19563ZM26.1361 22.1688L27.6603 22.1702L28.4602 18.6826L31.7857 18.6853L32.7702 22.1747L35.5067 22.1775L31.847 7.90579C31.847 7.90579 31.7961 6.91597 30.5838 6.91506C29.3542 6.9137 29.18 7.81647 29.18 7.81647L26.1361 22.1693V22.1688ZM28.8599 16.9809L30.0081 11.5666L31.4232 16.9832L28.8599 16.9809ZM2.58008 22.1647L4.08706 22.1661L4.90421 18.6789L8.22966 18.6817L9.2137 22.1706L11.9507 22.1734L8.30879 7.88437C8.30879 7.88437 8.24058 6.89456 7.01098 6.89364C5.81595 6.89228 5.62451 7.79505 5.62451 7.79505L2.58008 22.1647ZM5.30392 16.9595L6.45212 11.5451L7.88452 16.9618L5.30346 16.9595H5.30392ZM12.4837 6.96793L15.1166 6.9702L15.1061 18.8435C15.1061 18.8435 14.9838 20.2142 16.4562 20.2156C17.8941 20.217 17.7908 18.8102 17.7908 18.8102L17.8013 6.97248L19.4811 6.97385L19.4702 19.0376C19.4702 19.0376 19.3806 22.3529 16.0206 22.3497C12.626 22.3465 12.4728 19.1351 12.4728 19.1351L12.4837 6.96747V6.96793ZM20.105 6.97522L26.4444 6.98114L26.443 8.36926L24.6073 8.36743L24.595 22.1501L21.9621 22.1479L21.9744 8.36515L20.1036 8.36333L20.105 6.97522ZM36.2343 22.1948L37.7931 22.1962L37.8013 12.9447L41.3268 21.6274C41.3268 21.6274 41.7247 22.4951 42.6769 22.3743C43.6469 22.2363 43.7342 21.4729 43.7342 21.4729L43.7469 6.99618L42.2749 6.99481L42.2668 15.9857L38.9832 7.68568C38.9832 7.68568 38.603 6.7305 37.4425 6.8859C36.2643 7.0413 36.2461 7.97871 36.2461 7.97871L36.2334 22.1948H36.2343Z" fill="white"/>
</g>
<defs>
<clipPath id="clip0_80_426">
<rect width="50" height="29" fill="white"/>
</clipPath>
</defs>
</svg>
