<svg width="62" height="28" viewBox="0 0 62 28" fill="none" xmlns="http://www.w3.org/2000/svg">
<g clip-path="url(#clip0_80_460)">
<path d="M12.8852 21.4256C12.4898 21.4256 12.1018 21.348 11.7203 21.1927C11.3531 21.0517 11.0357 20.8402 10.7674 20.5582C10.4991 20.3045 10.2874 19.9939 10.1323 19.6274C9.97682 19.2467 9.89941 18.8656 9.89941 18.4848V9.57815C9.89941 9.19738 9.97714 8.8163 10.1323 8.43553C10.2734 8.09701 10.4851 7.78674 10.7674 7.50475C11.0357 7.23672 11.3531 7.02522 11.7203 6.87025C12.0592 6.72925 12.4475 6.65875 12.8852 6.65875C13.2521 6.65875 13.6053 6.7221 13.9441 6.84913C14.283 6.97616 14.5796 7.15257 14.8336 7.37804V6.65875H15.4053V9.34553H15.1513V8.92253C15.1513 8.66848 15.1091 8.43586 15.0242 8.22436C14.9113 8.01286 14.7842 7.82248 14.643 7.65289C14.4736 7.51189 14.283 7.38519 14.071 7.27213C13.8593 7.18734 13.6336 7.1451 13.3932 7.1451C12.8992 7.1451 12.4826 7.31404 12.1437 7.65257C11.7909 8.00539 11.6143 8.42839 11.6143 8.92188V19.0979C11.6143 19.6056 11.7837 20.0358 12.1226 20.3883C12.4332 20.7408 12.8358 20.9172 13.3298 20.9172C13.6404 20.9172 13.937 20.8324 14.2193 20.6631C14.4736 20.4939 14.6782 20.2681 14.8336 19.9861H15.4479C15.2079 20.3951 14.8547 20.7405 14.389 21.0228C13.9373 21.2905 13.4361 21.4247 12.8856 21.4247L12.8852 21.4256Z" fill="#2D2D2D"/>
<path d="M17.4163 21.4257H16.0186C16.2303 21.3129 16.3574 21.1505 16.3997 20.939L16.4208 20.8756L18.7927 8.03399L18.8138 7.90697L19.0044 6.9125L19.0255 6.80691V6.65877C19.0255 6.6305 19.0115 6.58827 18.9832 6.53174H20.4659L22.7105 20.5793L22.7528 20.8756L22.774 20.9601C22.774 20.9884 22.7811 21.0095 22.7951 21.0238V21.0871C22.894 21.2564 23.014 21.3691 23.1551 21.4257H20.9316C21.0022 21.3129 21.0445 21.2142 21.0588 21.1294C21.0728 21.0309 21.0728 20.925 21.0588 20.8123L20.9527 20.1563L20.5505 17.6811H17.8609L17.2892 20.8756L17.268 20.8967C17.2397 21.1082 17.2892 21.2847 17.4163 21.4257ZM18.0307 16.8773H20.4236L19.3224 9.8959L18.0307 16.8773Z" fill="#2D2D2D"/>
<path d="M24.1493 20.8757C24.1493 20.8474 24.1565 20.8263 24.1705 20.8123V7.29361C24.1565 7.27932 24.1493 7.26502 24.1493 7.25138C24.1071 6.98368 23.9656 6.78615 23.7256 6.65912H26.7751C27.1846 6.65912 27.6012 6.73677 28.0246 6.89173C28.4201 7.04703 28.7518 7.25853 29.0201 7.52623C29.3167 7.82252 29.5424 8.13279 29.6979 8.45734C29.8673 8.82381 29.9519 9.2049 29.9519 9.59963V11.2712C29.9519 11.6802 29.8673 12.0609 29.6979 12.4134C29.5284 12.7799 29.3024 13.0905 29.0201 13.3442C28.7518 13.6123 28.4201 13.8238 28.0246 13.979C27.6012 14.134 27.1846 14.2117 26.7751 14.2117H25.8434V20.8757C25.8857 21.1154 26.0268 21.3129 26.2668 21.4679H23.7256C23.9656 21.3409 24.1067 21.1437 24.1493 20.8757ZM28.5329 8.79555C28.4201 8.52752 28.2575 8.26664 28.0461 8.0129C27.8484 7.80141 27.6155 7.63214 27.3472 7.50511C27.0649 7.37808 26.7755 7.31473 26.4789 7.31473H25.8437V13.5135H26.4789C26.7755 13.5135 27.0646 13.4501 27.3472 13.3231C27.6295 13.1961 27.8627 13.02 28.0461 12.7942C28.2435 12.5684 28.4061 12.3147 28.5329 12.0324C28.6458 11.7221 28.7024 11.4047 28.7024 11.0804V9.72634C28.7024 9.41607 28.6458 9.10581 28.5329 8.79555Z" fill="#2D2D2D"/>
<path d="M35.3513 6.91281C35.549 7.01157 35.7432 7.12106 35.9337 7.24094C36.1243 7.36082 36.2973 7.49825 36.4528 7.65322C36.7494 7.94951 36.9962 8.3163 37.194 8.75327C37.3774 9.1623 37.4694 9.60641 37.4694 10.0863V17.9985C37.4694 18.4923 37.3777 18.9435 37.194 19.3526C36.9962 19.7899 36.7491 20.1563 36.4528 20.4526C36.2973 20.6079 36.1243 20.7453 35.9337 20.8652C35.7432 20.9851 35.549 21.0946 35.3513 21.193C34.9418 21.3766 34.4901 21.4682 33.9958 21.4682C33.5014 21.4682 33.0429 21.3766 32.6614 21.193C32.224 20.9958 31.8568 20.7489 31.5602 20.4526C31.2353 20.1284 30.9813 19.7616 30.7979 19.3526C30.6142 18.9435 30.5225 18.4923 30.5225 17.9985V10.0863C30.5225 9.60674 30.6142 9.1623 30.7979 8.75327C30.9813 8.34424 31.2353 7.97745 31.5602 7.65322C31.8568 7.35692 32.224 7.11034 32.6614 6.91281C33.0426 6.72958 33.4875 6.63763 33.9958 6.63763C34.5041 6.63763 34.9418 6.72925 35.3513 6.91281ZM35.1607 7.67433C34.8358 7.33581 34.4335 7.16654 33.9535 7.16654C33.7135 7.16654 33.5018 7.20878 33.3183 7.29357C33.1209 7.39234 32.944 7.51937 32.7889 7.67433C32.6334 7.82963 32.5134 8.01286 32.4289 8.22436C32.3443 8.43586 32.3017 8.66133 32.3017 8.90142V19.2467C32.3017 19.4864 32.344 19.7119 32.4289 19.9237C32.5138 20.1352 32.6338 20.3188 32.7889 20.4737C32.9583 20.643 33.1349 20.7629 33.3183 20.8334C33.5018 20.9321 33.7138 20.9815 33.9535 20.9815C34.4335 20.9815 34.8358 20.8123 35.1607 20.4737C35.4853 20.1212 35.6476 19.7119 35.6476 19.2467V8.90142C35.6476 8.43586 35.4853 8.02683 35.1607 7.67433Z" fill="#2D2D2D"/>
<path d="M39.7764 21.4679H38.082C38.1949 21.3974 38.2869 21.3058 38.3575 21.1927C38.4141 21.0943 38.4564 20.9884 38.4846 20.8756C38.499 20.8617 38.5058 20.8191 38.5058 20.7486V7.33583C38.5058 7.27897 38.4986 7.24388 38.4846 7.22991C38.4707 7.11718 38.4281 7.00412 38.3575 6.89139C38.3009 6.79262 38.2095 6.70815 38.082 6.63733H39.967L43.9483 18.3367V7.50509C43.9483 7.26533 43.92 7.09606 43.8637 6.9973C43.7509 6.81374 43.6377 6.69386 43.5249 6.63765H45.2192C44.9792 6.76468 44.8381 6.96221 44.7955 7.23024V21.4682H43.2283L39.3741 10.0652V20.876C39.3881 20.9887 39.4307 21.0946 39.5013 21.193C39.5719 21.3058 39.6636 21.3977 39.7767 21.4682L39.7764 21.4679Z" fill="#2D2D2D"/>
<path d="M45.8105 21.4256C46.0649 21.2846 46.2128 21.0871 46.2554 20.8331V7.25101C46.2132 7.01125 46.0649 6.81405 45.8105 6.65875H52.1006V8.49954H51.8889C51.8183 8.20324 51.6983 7.97063 51.5288 7.80136C51.5145 7.78707 51.5077 7.77277 51.5077 7.75913C51.4937 7.74516 51.483 7.73801 51.4758 7.73801C51.4687 7.73801 51.4583 7.73086 51.444 7.71689C51.1474 7.4206 50.8228 7.26563 50.4699 7.25134H47.9287V13.0482H50.3428C50.4699 12.9777 50.5616 12.9004 50.6182 12.8156C50.6325 12.8016 50.6429 12.7945 50.6501 12.7945C50.6573 12.7945 50.6677 12.7873 50.682 12.7734L50.7242 12.7522C50.8797 12.5408 50.9926 12.301 51.0631 12.033H51.296V15.7142H51.0631C50.9926 15.4605 50.8797 15.2347 50.7242 15.0371C50.696 15.0089 50.682 14.9878 50.682 14.9738C50.668 14.9598 50.6576 14.9527 50.6501 14.9527C50.6426 14.9527 50.6325 14.9455 50.6182 14.9316L50.4911 14.8045C50.4345 14.748 50.385 14.7129 50.3428 14.6986H47.9287V20.8129H50.4699C50.6816 20.7846 50.8654 20.7353 51.0205 20.6648C51.1617 20.6082 51.3031 20.5095 51.4443 20.3685C51.4729 20.3402 51.4901 20.3191 51.4973 20.3051C51.5044 20.2908 51.5149 20.2769 51.5292 20.2629C51.6983 20.0936 51.8186 19.8678 51.8892 19.5858H52.1009V21.4266H45.8109L45.8105 21.4256Z" fill="#2D2D2D"/>
<path d="M59.6234 9.45733L59.5411 9.50639L59.6221 9.45473C58.8754 8.19776 58.17 7.01031 58.17 5.15848L58.169 4.30697V3.72997H56.7413C54.9608 3.72997 53.817 3.0513 52.6059 2.33233C51.3502 1.58737 50.052 0.817078 48.1865 0.817078H48.115H13.8147C11.9492 0.817078 10.651 1.58737 9.3953 2.33233C8.18452 3.05097 7.04106 3.72965 5.26114 3.72965H3.83214V4.12016L3.83084 5.15913C3.83084 7.01259 3.12479 8.20036 2.37745 9.45765L2.3768 9.45863C1.60896 10.75 0.81543 12.0856 0.81543 13.9992C0.81543 15.9127 1.60961 17.2487 2.37777 18.5404C3.12512 19.7977 3.83117 20.9855 3.83117 22.8389V24.2655H4.12581L5.25952 24.2684C7.04041 24.2684 8.18419 24.9471 9.3979 25.667C10.6529 26.4113 11.9505 27.181 13.815 27.181V27.1836H48.1153V27.181H48.1868C50.051 27.181 51.3486 26.4113 52.6062 25.6657C53.8173 24.9468 54.9614 24.2681 56.7426 24.2681L57.8955 24.2652H58.1707V22.8389C58.1707 20.9858 58.8767 19.798 59.6247 18.5401C60.3929 17.2487 61.1867 15.9131 61.1867 13.9992C61.1867 12.0853 60.3922 10.7494 59.6241 9.45798L59.6234 9.45733ZM59.2871 18.3403C58.5112 19.6447 57.7785 20.8769 57.7785 22.8383V23.8737L56.7413 23.8763C54.8538 23.8763 53.6648 24.5816 52.4046 25.3291C51.1948 26.0468 49.944 26.7892 48.1862 26.7892H48.0899H13.9106H13.8143C12.0569 26.7892 10.8058 26.0471 9.59498 25.3285C8.33607 24.5819 7.14708 23.8763 5.25984 23.8763L4.2224 23.8737V22.8383C4.2224 20.8776 3.48969 19.645 2.71405 18.3403C1.97288 17.0943 1.20667 15.8055 1.20667 13.9985C1.20667 12.1915 1.97288 10.9031 2.71405 9.65681C3.48969 8.35175 4.2224 7.11947 4.2224 5.15881L4.22403 4.12081H5.25984C7.1474 4.12081 8.3364 3.41549 9.59564 2.66826C10.8058 1.95059 12.0572 1.20791 13.8147 1.20791H13.9109L48.0903 1.20759L48.1865 1.20791C49.944 1.20791 51.1954 1.95059 52.4059 2.66858C53.6648 3.41516 54.8538 4.12081 56.7413 4.12081H57.7772L57.7788 5.15881C57.7788 7.12045 58.5115 8.3524 59.2881 9.65746C60.0286 10.9037 60.7945 12.1925 60.7945 13.9985C60.7945 15.8046 60.0286 17.0934 59.2875 18.3403H59.2871Z" fill="#2D2D2D"/>
<path d="M60.3316 9.09425L60.2474 9.14104L60.33 9.09165C59.5697 7.81292 58.913 6.70864 58.913 4.9507L58.9114 3.36528V2.98094H56.9432C55.2592 2.98094 54.1977 2.35099 52.9684 1.62131C51.687 0.861405 50.2346 -0.000183105 48.1861 -0.000183105H48.0898L13.9102 0.00046666L13.8139 0.000141777C11.7654 0.000141777 10.313 0.86173 9.03127 1.62196C7.80228 2.35132 6.74077 2.98126 5.05712 2.98126H3.08826V3.51147L3.08663 4.95103C3.08663 6.70864 2.4297 7.81324 1.66999 9.09198C0.887517 10.4091 0 11.9025 0 14.0003C0 16.0981 0.886866 17.5899 1.66999 18.908C2.43035 20.1867 3.08696 21.291 3.08696 23.0486V25.0145H3.37413L5.05517 25.0187C6.7398 25.0187 7.8013 25.6486 9.03062 26.378C10.312 27.1382 11.7641 28.0001 13.8136 28.0001H13.9099L48.0892 27.9998L48.1854 28.0001C50.235 28.0001 51.687 27.1382 52.9697 26.3774C54.1987 25.6483 55.2602 25.0187 56.9445 25.0187L58.6308 25.0145H58.9124V23.0486C58.9124 21.291 59.5693 20.1864 60.3303 18.9064C61.1128 17.5899 61.9997 16.0974 61.9997 14.0003C61.9997 11.9032 61.1131 10.411 60.331 9.09458L60.3316 9.09425ZM59.9892 18.7056C59.1992 20.035 58.5169 21.1825 58.5169 23.0486V24.6191L56.9442 24.623C55.1513 24.623 54.0462 25.2786 52.7661 26.0379C51.529 26.7721 50.1267 27.6044 48.1861 27.6044H48.0898V27.609H13.9102V27.6048H13.8139C11.874 27.6048 10.4713 26.7721 9.23323 26.0379C7.95351 25.2783 6.84842 24.623 5.05582 24.623L3.48307 24.6191V23.0486C3.48307 21.1831 2.80109 20.0356 2.01049 18.7056C1.25371 17.4327 0.396114 15.9899 0.396114 14.0003C0.396114 12.0107 1.25371 10.5679 2.01114 9.29373C2.80109 7.96464 3.48307 6.81715 3.48307 4.95103L3.48502 3.3773H5.05712C6.84842 3.3773 7.95383 2.72168 9.23356 1.96243C10.471 1.2282 11.874 0.395849 13.8136 0.395849H13.9099V0.394224H48.0892V0.395849H48.1854C50.1254 0.395849 51.528 1.2282 52.7661 1.96243C54.0458 2.72201 55.1509 3.3773 56.9426 3.3773H58.514L58.5163 4.95103C58.5163 6.8178 59.1986 7.96561 59.9885 9.29471C60.7453 10.5676 61.6029 12.0104 61.6029 14C61.6029 15.9896 60.7453 17.4324 59.9885 18.7053L59.9892 18.7056Z" fill="#2D2D2D"/>
</g>
<defs>
<clipPath id="clip0_80_460">
<rect width="62" height="28" fill="white"/>
</clipPath>
</defs>
</svg>
