<svg width="74" height="21" viewBox="0 0 74 21" fill="none" xmlns="http://www.w3.org/2000/svg">
<g clip-path="url(#clip0_80_421)">
<path d="M53.1581 11.0412C52.6356 9.15283 50.8643 7.88565 48.7473 7.88565H48.735C46.4342 7.89098 44.4992 9.50295 43.9662 11.8303L52.6057 11.8107C52.8414 11.8107 53.0103 11.7458 53.1044 11.6197C53.2038 11.4864 53.2232 11.2766 53.1581 11.0412ZM55.9022 10.6262C56.1801 11.601 56.0385 12.5963 55.5231 13.2894C55.1845 13.7453 54.5231 14.29 53.2979 14.2926L43.9504 14.3131C44.4623 16.6697 46.4157 18.2959 48.7631 18.2959H48.7746C50.5345 18.2915 51.9567 17.4668 52.8942 15.9108H55.8485L55.8204 15.9855C54.6972 18.9588 51.9004 20.8845 48.6963 20.8916H48.6769C46.5617 20.8916 44.6232 20.114 43.2151 18.7002C41.7938 17.2731 41.0084 15.287 41.0031 13.1081C40.9935 8.63654 44.2864 5.2571 48.662 5.24732H48.6822C52.1809 5.24732 54.947 7.30627 55.9022 10.6253M66.3183 20.5583C63.8539 16.9141 63.5162 16.4031 62.7791 15.3146L59.3332 20.5619H56.0605L61.1898 12.941L55.8186 5.3193H57.8248C58.7342 5.3193 59.4317 5.66587 59.8978 6.34833C60.3525 7.00858 62.2884 9.87529 62.7818 10.6093C63.3007 9.82997 67.576 3.46652 67.7422 3.21504C68.2488 2.42772 68.8671 2.09448 69.8109 2.0927H71.8267L64.3825 12.941L69.5883 20.5619L66.3183 20.5583ZM41.5247 6.10396C41.5247 5.96444 41.5291 5.79827 41.5326 5.65698C41.5379 5.45793 41.5405 5.36018 41.5353 5.31486L41.5194 5.18423L41.3893 5.17712C38.5352 5.0305 36.8043 5.64099 35.8791 7.14809C35.7964 6.43808 35.5457 5.96356 35.1077 5.67564C34.6029 5.3433 33.9028 5.32019 33.2361 5.31841H33.0813V20.5619H35.9213V12.7838C35.9143 9.78998 37.2582 8.07493 39.7023 7.95497C40.9143 7.8972 41.5273 7.27517 41.5247 6.10396ZM12.7407 13.1588C12.7337 10.1641 10.6483 7.99318 7.78023 7.99318H7.76792C5.03262 7.9994 2.81272 10.3267 2.81975 13.1819C2.82327 14.5637 3.34219 15.8628 4.28327 16.8394C5.21908 17.8116 6.46096 18.3466 7.77935 18.3466H7.78991C10.804 18.3403 12.7469 16.3045 12.7407 13.1596M15.3933 0.0133194L15.5305 0.0293146V20.5619H12.7266V19.0255C11.3467 20.2971 9.58764 20.9955 7.68876 21H7.67029C5.59199 21 3.66585 20.2162 2.24367 18.79C0.802139 17.3433 0.0044159 15.3537 1.8306e-05 13.1872C-0.00437928 11.0181 0.783669 9.02309 2.21992 7.57019C3.63858 6.13328 5.56913 5.33974 7.65446 5.3353H7.67293C9.67735 5.3353 11.5323 6.0462 12.7266 7.25562V2.16824C12.7249 1.49021 12.9219 0.956151 13.3361 0.582928C14.118 -0.123529 15.3414 0.007099 15.3933 0.0133194ZM30.0109 5.3193H30.317V15.4034C30.3214 17.1691 29.704 18.6194 28.5342 19.5968C27.4797 20.4775 25.9907 20.9449 24.3169 20.9485H24.2958C22.6327 20.9485 21.1498 20.4873 20.0961 19.6146C18.9211 18.6425 18.2975 17.1949 18.294 15.4292V5.3193H18.4497C19.5746 5.31664 21.1612 5.31397 21.1656 7.66172V15.0631C21.1744 17.234 22.229 18.335 24.2993 18.335H24.3125C26.3961 18.3297 27.4498 17.2251 27.4454 15.0498V7.63151C27.4436 6.84507 27.6362 6.25325 28.0162 5.87025C28.5738 5.30953 29.4586 5.31575 30.0127 5.3193" fill="#2D2D2D"/>
<path d="M72.2755 8.58322C71.4848 8.58322 70.8445 7.91319 70.8445 7.08588C70.8445 6.25857 71.4848 5.58855 72.2755 5.58855C73.0662 5.58855 73.7065 6.25857 73.7065 7.08588C73.7065 7.91319 73.0662 8.58322 72.2755 8.58322ZM72.2755 5.29175C71.3248 5.29175 70.5508 6.09684 70.5508 7.08677C70.5508 8.0767 71.3248 8.8818 72.2755 8.8818C73.2263 8.8818 74.0011 8.0767 74.0011 7.08677C74.0011 6.09684 73.2272 5.29175 72.2755 5.29175ZM72.2474 6.96681H71.914V6.31633H72.3344C72.3863 6.31633 72.4409 6.31722 72.4945 6.327C72.5499 6.33233 72.5974 6.35188 72.637 6.37054C72.6775 6.39364 72.7153 6.42386 72.7399 6.4674C72.7672 6.5065 72.7821 6.55982 72.7821 6.63268C72.7821 6.71266 72.7663 6.77398 72.7346 6.82285C72.7091 6.8655 72.6713 6.89838 72.6194 6.9206C72.5702 6.94459 72.5086 6.95703 72.447 6.96148C72.3855 6.96592 72.3169 6.96681 72.2474 6.96681ZM72.5605 7.20052C72.7144 7.18808 72.8402 7.13565 72.9448 7.05212C73.0451 6.96414 73.097 6.8264 73.097 6.64512C73.097 6.44696 73.0354 6.29856 72.9211 6.20259C72.8041 6.10751 72.6282 6.05774 72.3855 6.05774H71.6V8.10869H71.9149V7.2254H72.2535L72.805 8.10869H73.1436L72.5622 7.20052H72.5605Z" fill="#2D2D2D"/>
</g>
<defs>
<clipPath id="clip0_80_421">
<rect width="74" height="21" fill="white"/>
</clipPath>
</defs>
</svg>
