<svg width="83" height="23" viewBox="0 0 83 23" fill="none" xmlns="http://www.w3.org/2000/svg">
<g clip-path="url(#clip0_80_430)">
<path d="M15.9835 14.3849C15.9835 9.26118 13.3015 5.76978 8.17977 5.76978C3.05805 5.76978 0 9.38035 0 14.3849C0 19.3894 3.05805 23 8.59251 23C11.072 23 12.9125 22.5717 14.5114 21.7521C14.9807 21.5115 15.1664 20.9302 14.941 20.4512L14.4098 19.3225C14.1774 18.8281 13.5919 18.6259 13.0982 18.8543C11.7828 19.4632 10.5981 19.7431 8.85849 19.7431C6.32782 19.7431 4.1495 18.4722 3.88352 15.9849H14.7866C15.411 15.9849 15.93 15.499 15.9682 14.8723C15.9774 14.7178 15.9827 14.5579 15.9827 14.3849H15.9835ZM3.97371 13.0817C3.97371 10.5652 5.59254 9.02745 8.17977 9.02745C10.9183 9.02745 12.2146 10.5075 12.3041 13.0817H3.97371Z" fill="#2D2D2D"/>
<path d="M30.021 16.3094L27.7234 12.9333L32.4209 7.68502C32.9598 7.083 32.5348 6.12346 31.73 6.12346H29.622C29.3506 6.12346 29.0931 6.24263 28.9165 6.44946L22.7484 13.6737V1.59255C22.7484 0.978997 22.1714 0.531523 21.5821 0.687602L19.8524 1.14507C19.4435 1.25348 19.1592 1.62484 19.1592 2.05002V21.7106C19.1592 22.2273 19.5757 22.6463 20.0894 22.6463H21.819C22.3326 22.6463 22.7492 22.2273 22.7492 21.7106V18.0854L25.2508 15.3629L27.0783 18.0562C29.0327 20.9287 30.4474 22.2857 32.8581 22.7194C33.4329 22.8224 33.9664 22.3864 33.9664 21.7983V20.1929C33.9664 19.7708 33.6805 19.4163 33.2793 19.2918C31.9081 18.8658 31.0635 17.8194 30.0217 16.3086L30.021 16.3094Z" fill="#2D2D2D"/>
<path d="M44.2637 5.76978C38.3769 5.76978 35.5527 9.26118 35.5527 14.3849C35.5527 19.5086 38.3777 23 44.2637 23C50.1498 23 52.9793 19.5086 52.9793 14.3849C52.9793 9.26118 50.1543 5.76978 44.2637 5.76978ZM44.2637 19.5086C40.6745 19.5086 39.3216 17.4934 39.3216 14.3849C39.3216 11.2764 40.6745 9.26118 44.2637 9.26118C47.853 9.26118 49.2096 11.2764 49.2096 14.3849C49.2096 17.4934 47.8568 19.5086 44.2637 19.5086Z" fill="#2D2D2D"/>
<path d="M71.2767 6.12341H69.4102C68.9345 6.12341 68.5488 6.51136 68.5488 6.98992V21.7798C68.5488 22.2583 68.9345 22.6463 69.4102 22.6463H71.2767C71.7524 22.6463 72.1381 22.2583 72.1381 21.7798V6.98992C72.1381 6.51136 71.7524 6.12341 71.2767 6.12341Z" fill="#2D2D2D"/>
<path d="M63.8688 3.13408C64.6606 3.13408 65.2729 3.19713 65.8645 3.324C66.4889 3.45778 67.0782 2.98339 67.0782 2.34139V1.41568C67.0782 0.98204 66.8053 0.589151 66.3934 0.459213C65.6145 0.213177 64.6691 0.0255737 63.5745 0.0255737C58.6279 0.0255737 56.8623 3.22097 56.8623 6.42021V6.98378L54.9729 7.67037C54.6396 7.79109 54.418 8.1094 54.418 8.46615V9.27576C54.418 9.74246 54.794 10.1215 55.2587 10.1215H56.8623V21.6398C56.8623 22.1957 57.3109 22.6471 57.8635 22.6471H59.4503C60.0029 22.6471 60.4515 22.1957 60.4515 21.6398V10.1215H64.5705C65.1085 10.1215 65.545 9.68249 65.545 9.14121V7.72574C65.545 7.18446 65.1085 6.74544 64.5705 6.74544H60.4515V6.12419C60.4515 4.14207 61.6003 3.13485 63.8688 3.13485V3.13408Z" fill="#2D2D2D"/>
<path d="M81.3484 19.5086C80.3181 19.5086 79.848 19.1218 79.848 17.7894V1.67251C79.848 1.0182 79.2328 0.541504 78.6037 0.707579L76.9979 1.13276C76.5622 1.24809 76.2588 1.64405 76.2588 2.09768V18.7397C76.2588 22.1442 78.6137 23 80.1706 23C81.0259 23 81.7833 22.7786 82.3244 22.4864C82.7433 22.2596 82.9993 21.8167 82.9993 21.3377V19.9699C82.9993 19.5009 82.5239 19.1564 82.0967 19.3448C81.8276 19.4632 81.5846 19.5086 81.3476 19.5086H81.3484Z" fill="#2D2D2D"/>
<path d="M70.3443 4.08437C71.3629 4.08437 72.1886 3.25374 72.1886 2.22911C72.1886 1.20447 71.3629 0.37384 70.3443 0.37384C69.3257 0.37384 68.5 1.20447 68.5 2.22911C68.5 3.25374 69.3257 4.08437 70.3443 4.08437Z" fill="#2D2D2D"/>
</g>
<defs>
<clipPath id="clip0_80_430">
<rect width="83" height="23" fill="white"/>
</clipPath>
</defs>
</svg>
