<svg width="61" height="30" viewBox="0 0 61 30" fill="none" xmlns="http://www.w3.org/2000/svg">
<g clip-path="url(#clip0_80_410)">
<path fill-rule="evenodd" clip-rule="evenodd" d="M60.9999 15.3841C60.9947 13.0282 60.7617 10.7862 58.3424 9.54021C57.7969 9.25915 57.0511 9.06817 56.323 9.0098C55.4073 8.93629 54.4848 8.99827 53.8206 9.05376C53.8206 8.29273 53.7909 2.62611 53.4287 2.34145C53.1786 2.14471 51.8658 1.88022 51.517 1.8132C50.5931 1.63664 49.514 1.51556 48.5418 1.51556C48.3934 1.51556 48.3867 1.54007 48.3867 1.67988C48.3889 8.79504 48.3927 15.908 48.3927 23.0225H53.8577V15.3848C53.8607 13.901 53.8614 12.7335 53.8807 12.6737C54.4959 12.5721 55.0028 12.7256 55.2878 13.0744C55.6499 13.5176 55.621 14.3766 55.6202 14.9971L55.6002 23.0225H61.0007V15.3848L60.9999 15.3841Z" fill="#35322F"/>
<path fill-rule="evenodd" clip-rule="evenodd" d="M5.47394 13.7494C6.01421 13.6997 6.70513 13.7018 7.21349 13.5606C7.62314 13.4467 7.68994 12.8471 7.76934 12.4032C7.87695 11.7978 8.04171 9.93922 8.06323 9.30503L5.50511 9.29854L5.50882 7.9826C5.51179 6.73873 5.51179 5.67574 5.97265 4.49456C6.26802 3.73642 6.5196 3.43662 7.03538 2.90621C7.29958 2.63452 8.23243 2.05798 8.80832 2.0133C8.75192 2.09762 8.67326 2.17257 8.59533 2.27274C8.39125 2.53723 8.22056 2.84639 8.10479 3.16565C7.1749 5.72114 9.61576 8.27231 12.3193 7.51849C14.3773 6.94412 15.3658 4.76265 14.539 2.9163C13.3494 0.264238 9.24024 -0.349051 6.4721 0.166948C4.35407 0.561154 2.56702 1.5391 1.57851 2.70875C0.310952 4.20846 0 6.01734 0 8.45536V22.997H5.46207L5.47394 13.7501V13.7494Z" fill="#35322F"/>
<path fill-rule="evenodd" clip-rule="evenodd" d="M28.1647 14.4616C28.0326 10.8244 26.0756 9.11644 22.4236 8.89015C20.7033 8.78349 17.2546 8.89592 15.5566 9.31247V23.0217H21.0217V12.7075C21.4425 12.5663 21.9916 12.7176 22.2432 12.9302C22.5282 13.1709 22.664 13.4779 22.7197 13.981C22.7427 14.1878 22.759 14.9856 22.7642 15.939V23.0217H28.1647V14.4624V14.4616Z" fill="#35322F"/>
<path fill-rule="evenodd" clip-rule="evenodd" d="M36.1301 12.652C35.9335 13.5896 36.0307 14.6505 36.4708 15.3827C37.2663 16.7051 39.1417 17.3068 40.5785 17.8416C40.9443 17.9778 41.4156 18.1529 41.7251 18.3331C41.8705 18.4181 42.0553 18.5651 42.1013 18.7669C42.154 18.9975 42.0523 19.2498 41.941 19.3773C41.518 19.8616 39.7747 19.5669 39.092 19.4234C38.6549 19.3312 38.1992 19.2173 37.7658 19.1114L36.4634 18.7669C36.3795 18.9024 36.0804 22.1332 36.0841 22.5065C36.24 22.5432 36.4107 22.6124 36.5658 22.6592C38.8441 23.3417 42.4011 23.6408 44.4873 22.8192C45.6836 22.3479 46.5541 21.6136 47.0944 20.6039C47.6458 19.5733 47.8818 17.8163 47.3111 16.6899C46.3634 14.8198 43.7088 14.4119 41.9418 13.6134C41.6649 13.4887 41.4304 13.2949 41.4943 12.8733C41.6152 12.0683 42.6008 12.2304 43.1767 12.3414C43.9618 12.492 44.6498 12.8697 45.144 12.572C45.5544 12.3249 47.0565 10.08 47.0342 9.67784C46.678 9.43209 44.7225 9.08545 44.1125 9.00906C43.2716 8.90312 42.4078 8.85051 41.5625 8.906C39.2063 9.06094 36.6482 10.1874 36.1301 12.6528V12.652Z" fill="#35322F"/>
<path fill-rule="evenodd" clip-rule="evenodd" d="M8.75488 9.2995H14.1301V22.9973H8.75488V9.2995Z" fill="#35322F"/>
<path fill-rule="evenodd" clip-rule="evenodd" d="M29.5146 9.2995H34.8899V22.9973H29.5146V9.2995Z" fill="#35322F"/>
<path fill-rule="evenodd" clip-rule="evenodd" d="M0.0201649 24.1468C-0.0347526 24.4855 0.0832458 25.8353 0.124805 26.2345C0.203471 27.0006 0.366739 28.3115 0.707376 29.0026C0.852833 29.2974 0.990869 29.3939 1.38717 29.4552C2.0343 29.5547 2.83506 29.582 3.50891 29.613C6.45071 29.7478 9.4029 29.8177 12.3603 29.879C15.3592 29.9409 18.37 30.0007 21.3816 30.0007H39.6432C42.6495 30.0007 45.6418 29.9402 48.64 29.8782C51.5988 29.8177 54.5503 29.7514 57.4899 29.6116C58.1897 29.5784 58.9326 29.5431 59.6101 29.4523C60.0116 29.3983 60.1244 29.288 60.2602 28.9695C60.6075 28.153 60.7589 27.1001 60.8495 26.2208C60.8829 25.8944 60.9793 24.4098 60.9511 24.1446L0.0216492 24.146H0.0201649V24.1468Z" fill="#6E6E6D"/>
<path fill-rule="evenodd" clip-rule="evenodd" d="M32.1263 1.07166C33.9838 1.07166 35.4888 2.53389 35.4888 4.33701C35.4888 6.14012 33.9831 7.60236 32.1263 7.60236C30.2695 7.60236 28.7637 6.14012 28.7637 4.33701C28.7637 2.53389 30.2695 1.07166 32.1263 1.07166Z" fill="#6E6E6D"/>
</g>
<defs>
<clipPath id="clip0_80_410">
<rect width="61" height="30" fill="white"/>
</clipPath>
</defs>
</svg>
