<svg width="63" height="31" viewBox="0 0 63 31" fill="none" xmlns="http://www.w3.org/2000/svg">
<g clip-path="url(#clip0_80_444)">
<path d="M30.5126 11.701H29.9801L29.2981 12.5524V11.701H28.8652V13.5365H29.2981V13.12L29.5504 12.8208L30.0486 13.5365H30.5874L29.8119 12.5185L30.5126 11.701Z" fill="#34302E"/>
<path d="M35.7011 13.228C35.754 13.3051 35.8288 13.3822 35.9284 13.4593C36.0281 13.5334 36.1433 13.5889 36.2679 13.6167L36.4703 13.302C36.3955 13.2773 36.3177 13.2341 36.2305 13.1725C36.1464 13.1138 36.081 13.046 36.0405 12.9781L35.9938 12.901C36.2305 12.8084 36.3675 12.5925 36.3675 12.3334C36.3675 12.1514 36.3083 12.0033 36.1838 11.883C36.0623 11.7596 35.9004 11.6979 35.698 11.6979H34.8291V13.5334H35.262V12.9503H35.5142L35.7042 13.2249L35.7011 13.228ZM35.262 12.0866H35.673C35.9751 12.0804 35.9751 12.6048 35.673 12.5987H35.262V12.0866Z" fill="#34302E"/>
<path d="M38.2168 13.1725H38.8615L38.9798 13.5365H39.4718L38.8054 11.701H38.2698L37.6064 13.5365H38.0985L38.2168 13.1725ZM38.5376 12.1853L38.7525 12.8393H38.3258L38.5376 12.1853Z" fill="#34302E"/>
<path d="M32.3811 11.701L31.7178 13.5365H32.2098L32.3282 13.1725H32.9697L33.088 13.5365H33.5801L32.9167 11.701H32.3811ZM32.4372 12.8393L32.6489 12.1853L32.8638 12.8393H32.4372Z" fill="#34302E"/>
<path d="M26.0938 13.5365H27.4951V13.1478H26.5266V12.7961H27.3207V12.4383H26.5266V12.0866H27.4951V11.701H26.0938V13.5365Z" fill="#34302E"/>
<path d="M20.5159 12.4321L21.0577 13.2835L21.6027 12.4321V13.5365H22.0325V11.701H21.6121L21.0577 12.5678L20.5034 11.701H20.083V13.5365H20.5159V12.4321Z" fill="#34302E"/>
<path d="M20.395 15.3226C19.4078 15.3226 18.5825 15.6404 17.9192 16.2789C17.2559 16.9175 16.9258 17.7103 16.9258 18.6543C16.9258 19.5983 17.2559 20.3942 17.9192 21.0297C18.5794 21.6682 19.4078 21.9891 20.395 21.9891C21.3822 21.9891 22.2074 21.6682 22.8708 21.0297C23.531 20.3911 23.8642 19.5983 23.8642 18.6543C23.8642 17.7103 23.5341 16.9175 22.8708 16.2789C22.2106 15.6404 21.3853 15.3226 20.395 15.3226ZM21.6157 19.9438C21.2888 20.2893 20.8839 20.459 20.395 20.459C19.9061 20.459 19.5043 20.2862 19.1773 19.9438C18.8503 19.5983 18.6884 19.1695 18.6884 18.6543C18.6884 18.1391 18.8503 17.7227 19.1773 17.3802C19.5043 17.0347 19.9092 16.862 20.395 16.862C20.8808 16.862 21.2888 17.0317 21.6157 17.3741C21.9427 17.7134 22.1047 18.1391 22.1047 18.6543C22.1047 19.1695 21.9427 19.5983 21.6157 19.9438Z" fill="#34302E"/>
<path d="M14.3404 16.7263H11.1297V13.157H9.33594V21.8688H11.1297V18.2965H14.3404V21.8688H16.1373V13.157H14.3404V16.7263Z" fill="#34302E"/>
<path d="M23.8793 11.701H23.4434V13.5365H24.7825V13.1509H23.8793V11.701Z" fill="#34302E"/>
<path d="M44.7822 12.6573H43.085V21.8657H44.7822V12.6573Z" fill="#34302E"/>
<path d="M51.9665 15.3226C51.0042 15.3226 50.1945 15.6435 49.5405 16.282C48.8866 16.9206 48.5596 17.7134 48.5596 18.6574C48.5596 19.6014 48.8897 20.3973 49.553 21.0358C50.2132 21.6744 51.0385 21.9922 52.0288 21.9922C52.7077 21.9922 53.3118 21.8348 53.8443 21.5263C54.3769 21.2148 54.7879 20.7983 55.0807 20.277L53.6855 19.6538C53.3492 20.2492 52.8136 20.5484 52.0786 20.5484C51.6426 20.5484 51.2689 20.4312 50.9544 20.1937C50.6398 19.9561 50.425 19.6446 50.3097 19.2528H55.308C55.4855 18.1823 55.2426 17.2599 54.5855 16.4856C53.9284 15.7082 53.0565 15.3226 51.9665 15.3226ZM50.3347 17.9725C50.453 17.6085 50.6585 17.3124 50.9575 17.0964C51.2565 16.8774 51.5928 16.7664 51.9696 16.7664C52.3464 16.7664 52.7077 16.8774 53.0004 17.0964C53.2931 17.3155 53.4987 17.6085 53.617 17.9725H50.3378H50.3347Z" fill="#34302E"/>
<path d="M47.7721 12.8578H46.0967V14.5175H47.7721V12.8578Z" fill="#34302E"/>
<path d="M38.8247 15.3226C37.8375 15.3226 37.0122 15.6404 36.3489 16.2789C35.6887 16.9175 35.3555 17.7103 35.3555 18.6543C35.3555 19.5983 35.6856 20.3942 36.3489 21.0297C37.0091 21.6682 37.8344 21.9891 38.8247 21.9891C39.815 21.9891 40.6371 21.6682 41.3005 21.0297C41.9607 20.3911 42.2939 19.5983 42.2939 18.6543C42.2939 17.7103 41.9638 16.9175 41.3005 16.2789C40.6402 15.6404 39.815 15.3226 38.8247 15.3226ZM40.0454 19.9438C39.7184 20.2893 39.3136 20.459 38.8278 20.459C38.342 20.459 37.9371 20.2862 37.6101 19.9438C37.2831 19.5983 37.1212 19.1695 37.1212 18.6543C37.1212 18.1391 37.2831 17.7227 37.6101 17.3802C37.9371 17.0347 38.342 16.862 38.8278 16.862C39.3136 16.862 39.7216 17.0317 40.0454 17.3741C40.3724 17.7134 40.5344 18.1391 40.5344 18.6543C40.5344 19.1695 40.3724 19.5983 40.0454 19.9438Z" fill="#34302E"/>
<path d="M45.6135 7.42223L41.2069 3.97025L39.6405 5.07772L33.4433 0L25.5488 5.60523L22.8519 3.69878L17.754 7.35128C7.16263 9.33177 0 13.5642 0 18.5741C0 25.5428 13.8363 31 31.5 31C49.1637 31 63 25.5428 63 18.5741C63 13.6198 56.0055 9.43049 45.6135 7.42532M43.6858 28.4365C42.6332 28.6 41.4997 28.6771 40.4035 28.8221C39.519 28.9208 38.3574 28.9917 37.582 28.8252C36.6851 28.6092 36.0997 28.2143 35.726 27.8349C35.5609 27.693 35.4176 27.5017 35.2962 27.2827C35.1592 27.0483 35.1125 26.8878 35.1125 26.8878C34.9474 26.4714 34.8384 25.9963 34.7668 25.5459C34.6609 24.713 34.6329 23.7783 34.6266 23.186V17.9078C34.6266 17.1365 34.4242 16.501 34.0163 16.0013C33.6114 15.5046 33.082 15.2548 32.428 15.2548C31.9516 15.2548 31.528 15.409 31.1606 15.7144C30.7931 16.0229 30.5253 16.4363 30.3695 16.9607C30.2263 16.4363 29.9803 16.0229 29.6284 15.7144C29.2765 15.4059 28.8498 15.2548 28.3484 15.2548C27.8782 15.2548 27.4702 15.4028 27.1246 15.7021C26.7758 16.0013 26.5173 16.4116 26.3522 16.9329V15.3781H24.655V21.7978H26.3522V18.2008C26.3522 17.7874 26.4706 17.445 26.7104 17.1797C26.9502 16.9144 27.2585 16.7818 27.6353 16.7818C27.9623 16.7818 28.2363 16.9144 28.4574 17.1797C28.6785 17.445 28.7907 17.7844 28.7907 18.2008V21.7978H30.4848V18.2008C30.4848 17.7874 30.6062 17.445 30.8429 17.1797C31.0796 16.9144 31.3879 16.7818 31.7678 16.7818C32.101 16.7818 32.3813 16.9144 32.6024 17.1797C32.8235 17.445 32.9356 17.7844 32.9356 18.2008V24.1762C32.9076 24.9567 32.7768 26.2986 32.2069 26.9526C32.2069 26.9557 32.2007 26.9619 32.1976 26.965C32.1976 26.965 32.1945 26.9711 32.1913 26.9711C31.7398 27.4987 31.0142 28.0694 29.8619 28.529C27.2927 29.4051 22.8799 28.964 20.2235 28.5753C9.41419 26.928 1.60381 23.0101 1.60381 18.5741C1.60381 15.4954 5.36886 12.6696 11.2827 10.6737H11.2796C11.2796 10.6737 11.3045 10.6644 11.3512 10.649C12.3851 10.3004 13.4813 9.98268 14.6367 9.68962L14.7239 9.68037C15.7142 9.42124 16.8353 9.14977 17.9844 8.9184L22.6339 5.57747L22.6868 6.87004L24.0945 6.61399L21.8305 8.41865L23.6678 8.24589L33.1567 1.77381L30.9394 5.29058L34.4398 4.90497L33.5834 6.81759L34.9069 7.28341L34.2561 8.23047H36.9872L40.1512 6.00627V7.46233L41.9606 6.8361L41.9668 8.41865C45.464 8.88447 48.4381 9.70504 48.4381 9.70504C56.208 11.6855 61.3993 14.9555 61.3993 18.571C61.3993 22.8837 54.0218 26.7058 43.6858 28.4334V28.4365Z" fill="#34302E"/>
<path d="M46.0743 21.8688C46.0743 22.3161 46.0027 22.6184 45.8594 22.7696C45.7162 22.9238 45.4203 22.9948 44.9688 22.9886V24.4693C46.8373 24.568 47.7715 23.7012 47.7715 21.8688V15.446H46.0743V21.8688Z" fill="#34302E"/>
</g>
<defs>
<clipPath id="clip0_80_444">
<rect width="63" height="31" fill="white"/>
</clipPath>
</defs>
</svg>
