<svg width="81" height="18" viewBox="0 0 81 18" fill="none" xmlns="http://www.w3.org/2000/svg">
<g clip-path="url(#clip0_80_671)">
<path d="M16.656 0L8.59614 12.2318H8.96374L13.8891 9.77094V17.7016H17.0943V0H16.6553H16.656ZM8.10847 12.2318H8.4989L0.439052 0H0V17.7016H3.20965V9.77094L8.10847 12.2318ZM26.8345 0L18.6641 17.7016H21.9224L23.3678 14.4197H30.3233L31.7687 17.7016H35.3194L27.127 0H26.8345ZM24.4934 11.834L26.8205 6.48903L29.197 11.834H24.4934ZM45.6578 10.8395L49.8914 17.7016H46.1454L40.781 8.65155V8.55209H43.0861C44.8946 8.55209 46.0961 7.50823 46.0961 5.86765C46.0961 4.22707 44.8946 3.2318 43.0861 3.2318H40.1689V17.7016H36.8391V0.298355H43.3513C46.8313 0.298355 49.4022 2.56107 49.4022 5.86765C49.4022 8.27916 47.9083 10.1186 45.6563 10.8395H45.6578ZM81 17.7016H77.6659V10.417H70.0009V17.7016H66.6711V0.298355H70.0009V7.48355H77.6659V0.298355H81V17.7016ZM63.8784 12.5556C63.8784 15.8622 60.9878 18 57.1667 18C55.3272 18 53.5894 17.6269 52.0726 16.7819V13.1022H52.0947C53.3449 14.3704 55.2071 15.2655 57.3125 15.2655C59.2942 15.2655 60.6423 14.1962 60.6423 12.9033C60.6423 9.37313 52.0196 11.8841 52.0196 5.34497C52.0196 2.03838 54.6664 0 58.1685 0C59.8577 0 61.3296 0.273679 62.6769 1.01919V4.54935H62.6504C61.5999 3.48081 59.9594 2.75997 58.2172 2.75997C56.3821 2.75997 55.2558 3.72906 55.2558 5.02193C55.2558 8.87587 63.8784 6.166 63.8784 12.5556Z" fill="#2D2D2D"/>
</g>
<defs>
<clipPath id="clip0_80_671">
<rect width="81" height="18" fill="white"/>
</clipPath>
</defs>
</svg>
