<svg width="71" height="31" viewBox="0 0 71 31" fill="none" xmlns="http://www.w3.org/2000/svg">
<g clip-path="url(#clip0_80_470)">
<path d="M6.81234 31C4.73693 31 2.61454 30.1439 1.2735 28.7655L1.25166 28.7427L1.23049 28.7192C-0.264043 27.0306 -0.412239 24.6121 0.868602 22.8382C1.64597 21.762 2.91093 21.1261 4.36048 21.0771C4.3102 21.0348 4.26058 20.9918 4.21096 20.9475C2.46039 19.4046 1.77895 16.674 2.43326 13.8204C2.84941 12.0049 4.01315 10.2129 5.71013 8.7754C7.09351 7.60244 8.85004 6.94243 10.6549 6.91692C10.6959 6.91692 10.7369 6.91625 10.7786 6.91625C12.7984 6.91625 14.7025 7.59908 16.0025 8.78883C16.9492 9.65496 17.458 10.7292 17.5123 11.8512C17.7207 11.7914 17.935 11.7478 18.1533 11.7209C18.3141 11.7014 18.4762 11.6914 18.635 11.6914C19.2549 11.6914 19.8358 11.8465 20.3253 12.1258C21.3799 11.3886 22.6006 11.1039 23.5427 11.1039C23.7385 11.1039 23.929 11.116 24.1083 11.1401C24.8288 11.2361 25.4428 11.4658 25.9456 11.827C27.0392 10.8172 28.4881 10.3505 29.7173 10.3505C29.9131 10.3505 30.1037 10.3626 30.283 10.3868C32.5628 10.691 33.4579 12.2681 33.7391 14.1776C35.2965 11.0871 38.1109 8.9493 40.9954 8.9493H41.0404C42.2452 8.9587 43.3474 9.32865 44.2293 10.0195C44.6415 10.3432 44.9319 10.8125 45.055 11.3422C45.3606 11.0012 45.5789 10.5869 45.6081 10.2532L46.0083 5.63183C46.1585 3.89353 47.7648 2.35061 49.6649 2.1183C49.8264 2.09883 49.9884 2.08876 50.1472 2.08876C51.1178 2.08876 51.9779 2.44931 52.5687 3.10394C53.1039 3.6968 53.3599 4.47699 53.2885 5.30015L52.9391 9.33671C52.9583 9.30314 52.9782 9.26554 53.0007 9.22525C53.3083 8.66193 54.0288 7.34327 55.7403 7.13446L57.4624 6.92431C57.5809 6.90953 57.78 6.88536 58.0155 6.88536C59.1502 6.88536 59.7198 7.47353 59.958 7.82468C59.9858 7.86563 60.0116 7.90659 60.036 7.94889C60.2206 7.70449 60.4343 7.47755 60.6718 7.27411C60.654 7.25531 60.6368 7.23652 60.6189 7.21704C59.9791 6.50803 59.6768 5.5385 59.7681 4.48706C59.9447 2.44663 61.5716 0.66737 63.4717 0.435731C63.6106 0.418946 63.7502 0.410217 63.8872 0.410217C64.7863 0.410217 65.6066 0.770768 66.1981 1.42607C66.8379 2.13509 67.1402 3.10461 67.0489 4.15605C66.953 5.26121 66.4323 6.28982 65.6721 7.03778C65.7416 7.10156 65.8084 7.1687 65.8719 7.23853C66.4072 7.83139 66.6625 8.61158 66.5911 9.43474L66.0241 15.9817C66.2775 15.8548 66.5706 15.7689 66.9093 15.7689C67.0522 15.7689 67.1958 15.785 67.3367 15.8166C67.868 15.9361 68.304 16.255 68.5659 16.7142C68.8438 17.2024 68.9034 17.8375 68.7254 18.4143C68.6136 18.7768 68.4601 19.1273 68.2702 19.4543C67.1071 21.4524 64.6612 22.3622 62.8802 22.3622C62.6851 22.3622 62.4991 22.3508 62.3278 22.328C61.436 22.2091 60.7089 21.8855 60.1512 21.3618C59.1264 22.4005 57.8832 23.0135 56.4363 23.1894C56.1849 23.2203 55.9315 23.2357 55.6814 23.2357C54.3159 23.2357 52.9927 22.761 51.8502 21.8996L51.8264 22.1755C51.7476 23.0853 51.0305 23.8521 50.1572 23.9588C50.1558 23.9588 46.4443 24.412 46.4443 24.412C46.3729 24.4208 46.3027 24.4248 46.2333 24.4248C45.7602 24.4248 45.307 24.2234 44.9901 23.8729C44.6679 23.5164 44.5058 23.0262 44.5442 22.5267C42.9299 24.7101 40.6342 26.1194 38.2928 26.1194H38.2485C37.0418 26.1101 35.9369 25.728 35.0206 25.0203C33.5876 26.5599 31.71 27.1413 30.3346 27.1413C30.144 27.1413 29.9621 27.1299 29.7927 27.1071C28.5225 26.9372 27.5704 26.3773 26.9591 25.44C26.7864 26.247 26.1189 26.8923 25.325 26.9889C25.325 26.9889 21.6426 27.4388 21.6128 27.4421C21.5413 27.4509 21.4712 27.4549 21.4018 27.4549C21.0154 27.4549 20.6422 27.3206 20.3465 27.0809C20.0422 27.4381 19.6188 27.6852 19.151 27.7423C19.1497 27.7423 15.4382 28.1955 15.4382 28.1955C15.3667 28.2042 15.2966 28.2082 15.2271 28.2082C14.7534 28.2082 14.3002 28.0068 13.9833 27.6563C13.8834 27.5462 13.7994 27.4227 13.7319 27.2904C13.241 27.9484 12.6542 28.5708 11.984 29.1388C10.6198 30.295 8.91752 30.9375 7.06176 30.996C6.97906 30.9986 6.8957 31 6.813 31H6.81234ZM13.3138 16.825C13.368 16.8693 13.4216 16.9143 13.4752 16.9606C13.7716 17.2178 14.0369 17.5092 14.2711 17.8301L14.3816 16.5578C14.0382 16.6907 13.6797 16.7814 13.3145 16.8257L13.3138 16.825ZM56.0817 15.7716C56.3708 16.5538 56.8465 16.968 57.2368 16.968C57.2626 16.968 57.2885 16.9667 57.3143 16.9633C58.1293 16.864 58.8081 15.5614 58.8657 14.894L59.0556 12.6998C58.1525 14.0326 56.9656 15.0901 56.0817 15.7709V15.7716Z" fill="white"/>
<path d="M63.1868 6.87331C64.4689 6.71687 65.6069 5.44722 65.7293 4.03791C65.8517 2.62861 64.9109 1.61275 63.6287 1.76919C62.3465 1.92563 61.2086 3.19528 61.0862 4.60459C60.9645 6.01389 61.9046 7.02975 63.1868 6.87331ZM67.0491 17.1285C66.3009 16.96 65.8913 18.1793 65.2549 18.2572C64.8229 18.3096 64.5258 17.9228 64.5946 17.1279L65.2708 9.31726C65.3674 8.2054 64.4061 7.43058 63.1239 7.58702C61.8417 7.74346 60.7243 8.77207 60.6284 9.88394L60.1845 15.0122C60.0865 16.1456 59.0783 18.1014 57.4719 18.2975C56.1461 18.4593 54.8997 17.244 54.5755 15.2116C56.2864 14.0534 58.0343 12.3474 58.7356 10.4748C59.6764 7.96234 58.0469 8.20607 57.5963 8.26112L55.8967 8.46859C54.6992 8.61496 54.3016 9.65297 54.0475 10.0713C53.026 11.7525 52.0475 12.9013 51.2325 13.6801L51.9682 5.18335C52.0647 4.07148 51.1035 3.29667 49.8213 3.45311C48.5391 3.60955 47.4217 4.63816 47.3258 5.75002L46.9255 10.3714C46.8435 11.3181 46.1548 12.2715 45.423 12.7979C44.6344 13.3652 43.5276 13.8795 42.5041 13.7392C41.9596 13.6647 41.6295 13.3995 41.2987 13.3303C40.8839 13.2437 40.1019 13.333 39.6083 14.1602C38.9037 15.3432 39.1075 17.0493 40.0139 17.7791C40.6179 18.2652 41.4297 18.3928 42.1673 18.3203C41.5686 19.455 40.6801 20.0727 39.697 20.0955C38.4922 20.1237 37.4131 19.034 37.7506 16.6807C38.0569 14.5503 39.6341 12.8429 41.1207 12.855C41.4839 12.8583 41.779 12.9899 42.1706 13.1276C42.5868 13.2733 43.0876 13.194 43.4713 12.7697C43.9371 12.2534 43.8848 11.4497 43.4184 11.0838C42.7615 10.5688 41.9411 10.3009 41.0287 10.2942C37.9107 10.27 34.7621 13.4921 33.9973 17.4911C33.7268 18.9044 33.7916 20.2238 34.1244 21.3423C33.787 21.9063 33.3272 22.3287 32.9209 22.4139C32.4876 22.5052 32.0311 22.2414 32.0999 21.4457L32.44 17.5213C32.8296 13.0235 31.7936 11.9438 30.1092 11.7189C28.9812 11.5679 26.8522 12.0848 25.9782 14.0038C25.57 12.9691 24.8482 12.5945 23.9345 12.4723C22.9852 12.3454 21.3272 12.6905 20.3044 13.9467C19.9895 13.3149 19.2346 12.9422 18.311 13.055C17.0289 13.2115 15.9114 14.2401 15.8148 15.352L14.8575 26.4075C14.833 26.6895 15.0209 26.8923 15.2776 26.8614C15.2875 26.8601 18.9819 26.4095 18.9918 26.4082C19.2478 26.3766 19.4761 26.1228 19.4999 25.8415L20.2197 17.5294C20.2779 16.8539 20.6458 16.4752 21.0732 16.4229C21.5045 16.3698 21.8022 16.7572 21.7334 17.5522L21.0315 25.6542C21.007 25.9362 21.1949 26.139 21.4516 26.1081C21.4615 26.1067 25.1558 25.6562 25.1658 25.6549C25.4218 25.624 25.6487 25.3708 25.6739 25.0902L26.3937 16.776C26.4519 16.1006 26.8197 15.7219 27.2471 15.6695C27.6792 15.6165 27.9762 16.0039 27.9074 16.7989L27.5389 21.0536C27.2425 24.4779 28.2792 25.5501 29.963 25.7744C31.0036 25.9134 33.5038 25.4595 34.8799 22.9497C35.6593 24.075 36.8309 24.7639 38.256 24.7753C41.3741 24.7995 44.5219 21.5773 45.2874 17.5784C45.343 17.289 45.3807 17.0043 45.4085 16.7237C45.7697 16.4316 46.1263 16.1053 46.4578 15.7494L45.8623 22.6248C45.8378 22.9067 46.0257 23.1095 46.2824 23.0786C46.2924 23.0773 49.9867 22.6268 49.9966 22.6254C50.2527 22.5939 50.4809 22.3401 50.5054 22.0587L50.7965 18.6943C51.9086 20.6286 53.8623 22.1507 56.2758 21.856C58.3049 21.6082 59.5017 20.3453 60.293 18.9581C60.6509 20.3829 61.4488 20.8562 62.498 20.9966C63.6009 21.1436 66.0614 20.6058 67.1279 18.7728C67.2628 18.5405 67.3753 18.2881 67.46 18.0135C67.54 17.755 67.548 17.2427 67.0478 17.1299L67.0491 17.1285ZM12.6141 17.9812C12.1536 17.5817 11.6349 17.2662 11.103 16.9681C10.4745 16.6169 8.84828 15.7823 8.02459 15.2788C7.537 14.9813 7.19959 14.4576 7.44835 13.9635C7.73879 13.3854 8.44338 13.4243 9.02294 13.7748C10.2449 14.5127 10.454 14.7007 11.2591 15.1197C13.06 16.0563 14.7146 15.1687 15.5118 14.0306C16.4222 12.7314 16.5128 11.0656 15.1149 9.78726C13.9359 8.70829 12.2211 8.23897 10.6723 8.26112C9.26905 8.28127 7.79304 8.76066 6.55718 9.8074C5.24723 10.9173 4.1126 12.4185 3.7216 14.126C3.2135 16.3416 3.63891 18.6661 5.07787 19.9337C6.45927 21.1503 7.9624 21.7741 9.69776 22.6221C10.2065 22.8705 10.536 23.4949 10.2813 24.0045C10.0557 24.4564 9.46686 24.4302 8.70074 24.126C7.60581 23.691 6.93297 23.0115 5.8334 22.6315C4.56646 22.1937 2.83838 22.3837 1.93597 23.6332C1.00776 24.9183 1.17249 26.6439 2.21516 27.8222C3.20689 28.8414 5.01237 29.7183 7.01898 29.6538C8.41824 29.6095 9.89822 29.1556 11.1341 28.1082C12.444 26.9984 13.5793 25.4964 13.9703 23.7903C14.4778 21.574 14.061 19.2388 12.6141 17.9826V17.9812Z" fill="#2D2D2D"/>
<path d="M7.22286 14.8726C7.13024 14.839 7.02174 14.8336 6.89669 14.8558C6.77165 14.878 6.65323 14.8994 6.54208 14.9189C6.46864 14.9652 6.40116 14.9941 6.33831 15.0049C6.27612 15.0163 6.22584 15.0666 6.18945 15.1566C6.19805 15.2049 6.24437 15.2217 6.32706 15.207C6.38264 15.1969 6.42895 15.1808 6.46534 15.1573C6.50172 15.1344 6.53348 15.1203 6.56193 15.115L6.64529 15.1002C6.69028 15.0592 6.75511 15.0304 6.83847 15.0156C6.92184 15.0008 6.99924 15.0122 7.07069 15.0492C7.14148 15.0861 7.21823 15.1062 7.2996 15.1083C7.3168 15.072 7.33334 15.0485 7.34856 15.0371C7.36312 15.0263 7.37238 15.0042 7.37569 14.9699C7.34261 14.8927 7.291 14.8598 7.22154 14.8726H7.22286Z" fill="white"/>
<path d="M6.7606 12.6086C6.76589 12.5575 6.74075 12.5374 6.68452 12.5468L6.60116 12.5616L6.55948 12.569C6.52772 12.6086 6.51052 12.6448 6.50721 12.6784C6.5039 12.7126 6.52243 12.7301 6.56345 12.7308C6.60447 12.7321 6.63821 12.7301 6.66599 12.7247C6.72157 12.7146 6.75332 12.6757 6.7606 12.6079V12.6086Z" fill="white"/>
<path d="M6.89832 15.8287C6.85862 15.8193 6.78254 15.8246 6.67206 15.8441C6.61582 15.8542 6.56355 15.8676 6.51394 15.8851C6.46432 15.9025 6.43719 15.9361 6.4319 15.9871C6.42131 16.0892 6.47887 16.1288 6.60325 16.106C6.64559 16.0986 6.70447 16.0838 6.78188 16.0616C6.85862 16.0395 6.9003 16.0032 6.9056 15.9522C6.90758 15.9354 6.90163 15.924 6.88906 15.9173C6.87649 15.9119 6.87053 15.8998 6.87186 15.8831C6.88707 15.8636 6.89633 15.8455 6.89766 15.8287H6.89832Z" fill="white"/>
<path d="M6.88887 17.902C6.8624 17.8906 6.82932 17.8872 6.78764 17.8946L6.64143 17.9208L6.59975 17.9282C6.59777 17.9456 6.58255 17.9611 6.5541 17.9738C6.52499 17.9873 6.51044 18.0027 6.50845 18.0195C6.50647 18.0363 6.50911 18.0443 6.51639 18.043C6.52301 18.0417 6.52565 18.0497 6.52433 18.0665L6.51639 18.143C6.59975 18.1283 6.67054 18.1075 6.7281 18.0799C6.785 18.0537 6.83925 17.994 6.88953 17.9013L6.88887 17.902Z" fill="white"/>
<path d="M7.59681 13.4324C7.57035 13.421 7.52668 13.4163 7.46449 13.4183C7.40296 13.421 7.35864 13.425 7.33019 13.4297C7.23294 13.4472 7.14958 13.4908 7.08077 13.5613C7.01196 13.6325 6.97624 13.6842 6.97227 13.7178C6.96896 13.752 6.97955 13.7789 7.00469 13.7997C7.02983 13.8198 7.04769 13.846 7.05828 13.8775C7.15685 13.8433 7.28388 13.7748 7.43803 13.6721C7.59218 13.57 7.67025 13.5103 7.67157 13.4935C7.67488 13.4599 7.66959 13.4478 7.65503 13.4586C7.63981 13.47 7.62063 13.4613 7.59615 13.4317L7.59681 13.4324Z" fill="white"/>
<path d="M6.07888 24.7351C6.08417 24.684 6.0372 24.6679 5.9406 24.6854C5.88437 24.6954 5.85526 24.7176 5.85195 24.7512C5.84864 24.7854 5.8665 24.8069 5.90686 24.8163L5.92803 24.8123L6.03256 24.7935C6.05969 24.7888 6.07623 24.7693 6.07954 24.7351H6.07888Z" fill="white"/>
<path d="M7.72713 16.3295C7.69405 16.2523 7.64973 16.2188 7.59415 16.2282C7.56637 16.2329 7.53659 16.255 7.5055 16.294C7.49822 16.3618 7.49955 16.4115 7.51079 16.443L7.55247 16.4356L7.63583 16.4209C7.66362 16.4162 7.67817 16.4047 7.68016 16.388L7.68545 16.3369L7.72713 16.3295Z" fill="white"/>
<path d="M8.66747 15.7622C8.65754 15.7306 8.63108 15.7185 8.5894 15.7266C8.57484 15.7293 8.5153 15.7521 8.40812 15.7964C8.30161 15.8407 8.24206 15.922 8.22949 16.0408C8.30954 16.0603 8.35652 16.0677 8.36975 16.0657C8.39754 16.061 8.45179 16.0348 8.53184 15.9871C8.61189 15.9394 8.65489 15.8817 8.66217 15.8139L8.66747 15.7629V15.7622Z" fill="white"/>
<path d="M7.48366 26.2068C7.48697 26.1732 7.46778 26.1598 7.4261 26.1672L7.3004 26.1893L7.27989 26.1934L7.23556 26.2263C7.23358 26.2431 7.24549 26.2619 7.27063 26.282C7.29577 26.3021 7.30768 26.3216 7.30569 26.3377L7.32686 26.3337L7.43073 26.3149C7.47241 26.3075 7.49425 26.2954 7.49557 26.2786C7.49755 26.2619 7.49557 26.2498 7.48895 26.2424C7.483 26.235 7.48101 26.2229 7.48234 26.2061L7.48366 26.2068Z" fill="white"/>
<path d="M9.6847 15.8307L9.68735 15.8052C9.69066 15.7716 9.66486 15.7588 9.60928 15.7689C9.56694 15.7763 9.54378 15.8058 9.53849 15.8569C9.53651 15.8737 9.5418 15.8898 9.55437 15.9039C9.62384 15.8918 9.6675 15.8676 9.68537 15.8307H9.6847Z" fill="white"/>
<path d="M8.72502 25.8852C8.66879 25.8953 8.64365 25.8832 8.64696 25.8496L8.62645 25.8536L8.5636 25.8651C8.52125 25.8724 8.49876 25.8933 8.49545 25.9268C8.49214 25.9611 8.51332 25.9825 8.56095 25.9899C8.60726 25.9987 8.64497 26 8.67276 25.9946C8.70055 25.9899 8.71775 25.9537 8.72502 25.8852Z" fill="white"/>
<path d="M10.3856 19.7484C10.3313 19.7417 10.2764 19.7424 10.2208 19.7525C10.1646 19.7625 10.1097 19.7726 10.0541 19.782C10.0224 19.8216 9.99258 19.8431 9.96479 19.8478C9.93701 19.8525 9.92047 19.8807 9.91518 19.9317C9.91187 19.966 9.91584 19.9901 9.92841 20.0042C9.94362 19.9854 9.95884 19.974 9.97273 19.9713C9.98464 19.9861 10.0045 19.9908 10.0329 19.9854C10.0587 19.9982 10.1064 19.9975 10.1758 19.9854C10.3009 19.9633 10.3664 19.9263 10.3717 19.8753L10.3823 19.7739L10.3849 19.7484H10.3856Z" fill="white"/>
<path d="M10.1665 21.4599C10.1579 21.4115 10.1255 21.392 10.0706 21.4021L9.94557 21.4243L9.90389 21.4317C9.8986 21.4827 9.87544 21.5075 9.83442 21.5069C9.79341 21.5062 9.77223 21.5142 9.77091 21.531C9.76033 21.6324 9.81061 21.674 9.92242 21.6539C9.9641 21.6465 10.0131 21.6338 10.0693 21.615C10.1255 21.5968 10.1566 21.5619 10.1619 21.5109L10.1672 21.4599H10.1665Z" fill="white"/>
<path d="M10.4145 18.8696C10.4178 18.8353 10.4126 18.8239 10.398 18.8346C10.3834 18.8461 10.3768 18.8427 10.3788 18.8259L10.3815 18.8004C10.3398 18.8078 10.312 18.8091 10.2994 18.8024C10.2862 18.7964 10.2657 18.7957 10.2386 18.8011C10.2108 18.8058 10.1817 18.8199 10.1526 18.8414C10.093 18.8857 10.0619 18.9246 10.0579 18.9582C10.0546 18.9924 10.0765 19.0092 10.1241 19.0085C10.1717 19.0085 10.2233 19.0032 10.2796 18.9931C10.349 18.9803 10.3947 18.9394 10.4152 18.8696H10.4145Z" fill="white"/>
<path d="M10.0608 22.4764C10.0125 22.4186 9.94632 22.3972 9.86296 22.4119C9.83517 22.4166 9.79945 22.4321 9.75578 22.4562C9.71212 22.4804 9.68896 22.51 9.68565 22.5435C9.68367 22.561 9.70947 22.5811 9.76174 22.6053C9.81334 22.6295 9.8537 22.6389 9.88148 22.6335C9.95095 22.6207 9.98999 22.6019 9.99991 22.5751C10.0098 22.5482 10.0297 22.516 10.0614 22.4764H10.0608Z" fill="white"/>
<path d="M9.77745 24.2247C9.75297 24.1959 9.71989 24.1851 9.67821 24.1925C9.62198 24.2026 9.59221 24.2328 9.58691 24.2838L9.6233 24.3275C9.65043 24.3228 9.67689 24.3053 9.70005 24.2764C9.7232 24.2476 9.749 24.2301 9.77679 24.2254L9.77745 24.2247Z" fill="white"/>
<path d="M11.6161 22.0991C11.6194 22.0655 11.6075 22.0467 11.581 22.0433C11.5532 22.04 11.5327 22.0393 11.5195 22.042L11.5142 22.093C11.5109 22.1273 11.5228 22.1414 11.5506 22.136L11.5929 22.1286C11.6068 22.1259 11.6148 22.1165 11.6161 22.0997V22.0991Z" fill="white"/>
<path d="M17.8643 21.3961L17.8656 21.3746C17.8663 21.3605 17.8603 21.3544 17.8464 21.3558L17.8048 21.3611L17.7836 21.3638C17.769 21.3799 17.7611 21.3947 17.7598 21.4088L17.7803 21.4061L17.8431 21.3981L17.8636 21.3954L17.8643 21.3961Z" fill="white"/>
<path d="M17.9535 20.1385C17.9555 20.1096 17.9357 20.0982 17.8947 20.1036C17.8927 20.1325 17.9125 20.1439 17.9535 20.1385Z" fill="white"/>
<path d="M19.2 16.7713C19.202 16.7431 19.1689 16.7263 19.1008 16.7203C19.0326 16.7149 18.9771 16.7149 18.936 16.7203C18.8256 16.7344 18.7475 16.772 18.7012 16.8337C18.7687 16.8539 18.8216 16.8821 18.86 16.9197C18.8983 16.9573 18.9519 16.9714 19.022 16.9627C19.0492 16.9593 19.0849 16.9445 19.1279 16.9177C19.1709 16.8915 19.1941 16.8566 19.1967 16.8143L19.2 16.7713Z" fill="white"/>
<path d="M18.4719 24.447C18.4738 24.4181 18.4606 24.406 18.4328 24.4094C18.405 24.4127 18.3733 24.4241 18.3382 24.4423C18.3025 24.4611 18.2846 24.4778 18.2833 24.4913C18.2813 24.5201 18.3078 24.5302 18.3634 24.5235C18.3653 24.4953 18.3839 24.4825 18.4176 24.4852C18.4514 24.4879 18.4705 24.4752 18.4725 24.447H18.4719Z" fill="white"/>
<path d="M18.9438 18.9373C18.9305 18.9252 18.9107 18.9205 18.8829 18.9238C18.8412 18.9292 18.8194 18.9393 18.8187 18.9527C18.8154 18.9957 18.8346 19.0145 18.8769 19.0091C18.9186 19.0037 18.9405 18.9802 18.9438 18.9373Z" fill="white"/>
<path d="M19.1341 17.7093C19.1083 17.6844 19.0885 17.673 19.0753 17.6744C19.0336 17.6797 19.0118 17.6965 19.0098 17.7247C19.0237 17.7227 19.0303 17.7294 19.029 17.7435C19.0984 17.7348 19.1328 17.7234 19.1341 17.7093Z" fill="white"/>
<path d="M19.1598 19.9666C19.1618 19.9384 19.146 19.9189 19.1129 19.9095C19.0791 19.9001 19.0494 19.8826 19.0236 19.8571L19.003 19.8598L18.9409 19.8679C18.927 19.8699 18.9197 19.8779 18.9184 19.892C18.9144 19.9491 18.9402 19.9773 18.9944 19.9773C19.0487 19.9773 19.1043 19.9739 19.1598 19.9672V19.9666Z" fill="white"/>
<path d="M20.2729 15.2848C20.2874 15.2694 20.2967 15.2472 20.2987 15.2183C20.3006 15.1901 20.2629 15.1774 20.1882 15.1794C20.1121 15.1821 20.0883 15.1807 20.1161 15.1774C20.0585 15.213 19.9917 15.2351 19.9156 15.2452C19.8395 15.2546 19.7707 15.2633 19.7085 15.2714C19.6457 15.2794 19.5901 15.2969 19.5398 15.3244C19.4895 15.3519 19.4631 15.3942 19.4591 15.4506C19.4571 15.4795 19.4796 15.4976 19.5272 15.5057C19.5749 15.5137 19.6119 15.5164 19.6397 15.5124C19.7502 15.4983 19.8422 15.4627 19.9149 15.4043C19.9877 15.3459 20.0797 15.3096 20.1902 15.2955L20.2729 15.2855V15.2848Z" fill="white"/>
<path d="M19.8063 19.2515C19.7824 19.1985 19.7434 19.1716 19.6878 19.1716C19.6329 19.1716 19.5707 19.1757 19.5019 19.1844C19.4602 19.1898 19.4318 19.1965 19.4186 19.2052C19.404 19.2139 19.3828 19.22 19.3551 19.224L19.2929 19.2321C19.279 19.2341 19.2717 19.2421 19.2704 19.2562L19.269 19.2777L19.2466 19.3019C19.2406 19.3872 19.2929 19.4227 19.404 19.4093C19.4457 19.4039 19.4874 19.3959 19.5291 19.3831C19.5707 19.371 19.6058 19.363 19.6336 19.3596C19.703 19.3509 19.7566 19.3724 19.7937 19.4241C19.8314 19.4758 19.8764 19.5127 19.93 19.5335L19.9717 19.5282L20.1172 19.51C20.145 19.5067 20.1589 19.4979 20.1602 19.4838C20.1655 19.4127 20.1238 19.3616 20.0378 19.3301C19.9505 19.2992 19.8737 19.2737 19.8063 19.2535V19.2515Z" fill="white"/>
<path d="M19.5405 17.1936C19.5458 17.1231 19.5405 17.0882 19.5273 17.0896C19.5134 17.0916 19.5048 17.1137 19.5022 17.156C19.5002 17.1849 19.5127 17.197 19.5405 17.1936Z" fill="white"/>
<path d="M21.5054 17.6448C21.3413 17.6375 21.1938 17.6381 21.0628 17.6475C20.9311 17.6569 20.8795 17.6596 20.9073 17.6563C20.7551 17.6751 20.6447 17.7315 20.5765 17.8241C20.5084 17.9174 20.4396 17.9678 20.3701 17.9765C20.3006 17.9853 20.2265 17.9698 20.1471 17.9309C20.0671 17.8913 19.993 17.8758 19.9242 17.8845L19.8825 17.8899C19.8421 17.8812 19.7932 17.8798 19.7383 17.8866C19.7105 17.8899 19.6787 17.9047 19.643 17.9302C19.6066 17.9557 19.5735 17.9853 19.5444 18.0168L19.4326 18.1363C19.4551 18.2041 19.5431 18.2276 19.6953 18.2088L19.9447 18.178C20.1107 18.1571 20.1915 18.1827 20.1862 18.2531C20.1809 18.3243 20.1961 18.3995 20.2318 18.4794C20.3304 18.4391 20.4257 18.4096 20.5163 18.3915C20.6069 18.3733 20.689 18.3243 20.7637 18.2444C20.7697 18.1592 20.8048 18.0987 20.8689 18.0625C20.9331 18.0262 20.988 17.9846 21.0323 17.9362C21.1012 17.9275 21.1733 17.9329 21.2467 17.9517C21.3208 17.9705 21.3929 17.9759 21.4617 17.9671C21.5034 17.9618 21.5378 17.9503 21.5676 17.9329L21.5881 17.9302C21.6298 17.9248 21.6542 17.908 21.6635 17.8785C21.6721 17.8496 21.684 17.8268 21.6992 17.8107C21.6721 17.7999 21.6615 17.7664 21.6655 17.7093C21.6695 17.6522 21.6159 17.6307 21.5054 17.6448Z" fill="white"/>
<path d="M19.3973 21.8379C19.4006 21.7956 19.353 21.7801 19.257 21.7922C19.2154 21.7976 19.1935 21.8144 19.1915 21.8426C19.1896 21.8714 19.2094 21.8828 19.2511 21.8775C19.2782 21.8741 19.3034 21.8674 19.3245 21.858C19.3457 21.8486 19.3702 21.8419 19.398 21.8385L19.3973 21.8379Z" fill="white"/>
<path d="M20.2383 16.3671C20.1701 16.3477 20.0987 16.3423 20.0232 16.3517C19.9472 16.3611 19.8684 16.3571 19.7871 16.3389C19.7705 16.3691 19.7355 16.3913 19.6799 16.4054C19.6236 16.4195 19.5932 16.4625 19.5879 16.533C19.58 16.6471 19.619 16.7263 19.705 16.772C19.791 16.8176 19.8889 16.8331 20.0001 16.8197C20.0696 16.8109 20.1357 16.7888 20.2006 16.7525C20.2647 16.7163 20.3104 16.6968 20.3382 16.6928C20.4209 16.6827 20.4665 16.7223 20.4738 16.8129C20.4804 16.9036 20.5108 16.96 20.5644 16.9808C20.6749 16.9667 20.7834 16.9466 20.8879 16.919C20.9925 16.8922 21.0494 16.8143 21.0586 16.6861C21.0686 16.5444 21.0044 16.4819 20.8661 16.4987C20.8105 16.5054 20.7616 16.5189 20.7192 16.5383C20.6769 16.5578 20.6346 16.5699 20.5935 16.5753C20.4824 16.5894 20.4123 16.5632 20.3832 16.496C20.3534 16.4296 20.3051 16.3866 20.2383 16.3665V16.3671Z" fill="white"/>
<path d="M19.6698 20.029C19.6718 20.0008 19.6447 19.9901 19.5891 19.9968C19.5613 20.0002 19.5474 20.0096 19.5461 20.023C19.5428 20.0653 19.5759 20.0828 19.6454 20.074C19.6593 20.072 19.6672 20.0646 19.6679 20.0499L19.6692 20.0284L19.6698 20.029Z" fill="white"/>
<path d="M20.4414 17.2709C20.3911 17.2064 20.317 17.1809 20.2204 17.193C20.1483 17.2306 20.0848 17.2594 20.0285 17.2803C19.9716 17.3017 19.9161 17.3232 19.8598 17.344L19.8387 17.3467C19.8109 17.3501 19.795 17.3803 19.791 17.4367C19.7996 17.5065 19.8373 17.5508 19.9055 17.5703C19.9723 17.5905 20.0338 17.5965 20.0887 17.5898C20.2409 17.571 20.362 17.5132 20.4513 17.4179C20.4553 17.3608 20.4513 17.3125 20.4414 17.2715V17.2709Z" fill="white"/>
<path d="M20.1593 18.6372C20.1335 18.6124 20.1064 18.6016 20.0793 18.605C20.0508 18.6083 19.9979 18.6291 19.9205 18.6667C19.8418 18.705 19.8027 18.7312 19.8021 18.7453C19.7988 18.7876 19.8213 18.8064 19.8702 18.8004C19.9185 18.7943 19.9556 18.8037 19.9814 18.8292C20.0515 18.8064 20.111 18.7426 20.16 18.6379L20.1593 18.6372Z" fill="white"/>
<path d="M20.7432 15.3318C20.7174 15.3069 20.6903 15.2962 20.6632 15.2995C20.6354 15.3029 20.6103 15.3163 20.5884 15.3405C20.5659 15.3647 20.5408 15.3781 20.513 15.3815L20.4733 15.3653C20.4455 15.3687 20.431 15.3848 20.429 15.413C20.4257 15.456 20.4521 15.4734 20.5071 15.4667C20.6175 15.4526 20.6969 15.4083 20.7432 15.3318Z" fill="white"/>
<path d="M20.9308 15.879C20.8773 15.8575 20.8157 15.8508 20.7469 15.8596C20.6497 15.8716 20.5868 15.8938 20.557 15.926L20.5154 15.9314C20.4876 15.9347 20.4697 15.9475 20.4611 15.9697C20.4525 15.9918 20.4346 16.012 20.4055 16.0294L20.4022 16.0724L20.3976 16.1362C20.3956 16.165 20.4148 16.1832 20.4552 16.1919C20.4955 16.2013 20.5293 16.204 20.5577 16.2006C20.6821 16.1852 20.7813 16.1375 20.8561 16.0576C20.9302 15.9777 20.9533 15.9394 20.9255 15.9435L20.9289 15.9012L20.9302 15.8797L20.9308 15.879Z" fill="white"/>
<path d="M20.952 19.0662C20.8839 19.0468 20.819 19.0058 20.7549 18.9434C20.6907 18.8809 20.6444 18.8514 20.6166 18.8547L20.5544 18.8628C20.5405 18.8648 20.5273 18.8521 20.516 18.8252L20.4743 18.8306L20.35 18.846C20.3076 18.8514 20.2858 18.8749 20.2825 18.9179C20.2772 18.989 20.3546 19.0642 20.5134 19.1428C20.6728 19.2213 20.8217 19.2522 20.96 19.2348L20.9838 19.1898C20.9858 19.1616 20.9805 19.1414 20.9679 19.128C20.9547 19.1159 20.9494 19.0951 20.952 19.0669V19.0662Z" fill="white"/>
<path d="M21.0304 14.4724C20.9623 14.467 20.9186 14.4509 20.8994 14.4254C20.8809 14.3999 20.8439 14.3905 20.7883 14.3972C20.7605 14.4005 20.732 14.4079 20.7043 14.418C20.6758 14.4287 20.6613 14.4482 20.6593 14.4764C20.6573 14.5053 20.6864 14.5335 20.7459 14.561C20.8055 14.5885 20.8564 14.5999 20.8974 14.5946C20.9113 14.5926 20.9358 14.5825 20.9722 14.5644C21.0073 14.5462 21.0265 14.5227 21.0284 14.4939L21.0298 14.4724H21.0304Z" fill="white"/>
<path d="M21.4471 15.5607L21.4505 15.5184C21.4524 15.4902 21.4333 15.4647 21.3936 15.4412C21.3539 15.4184 21.3274 15.4076 21.3135 15.409C21.1607 15.4285 21.0786 15.5231 21.0667 15.6937C21.0628 15.7507 21.0952 15.7742 21.1646 15.7655C21.2335 15.7568 21.2864 15.7326 21.3241 15.693C21.3611 15.6534 21.4022 15.6091 21.4471 15.5614V15.5607Z" fill="white"/>
<path d="M21.5189 14.559C21.5208 14.5301 21.5182 14.5167 21.5109 14.5173C21.5036 14.518 21.5017 14.5046 21.5036 14.4764C21.4745 14.4938 21.4467 14.5046 21.419 14.5079C21.3912 14.5113 21.374 14.51 21.368 14.5039C21.3614 14.4979 21.3442 14.4965 21.3171 14.4999L21.2549 14.5079C21.2635 14.5778 21.2992 14.6046 21.3621 14.5898C21.4249 14.5751 21.4765 14.565 21.5189 14.5596V14.559Z" fill="white"/>
<path d="M21.1888 17.1775C21.1921 17.1346 21.173 17.1158 21.1313 17.1211L21.087 17.1688C21.0856 17.1836 21.12 17.1863 21.1888 17.1775Z" fill="white"/>
<path d="M21.322 18.4915C21.324 18.4633 21.3147 18.4539 21.2929 18.4633C21.2717 18.4733 21.2552 18.4572 21.2446 18.4163L21.2023 18.4216L21.1196 18.4317C21.0779 18.4371 21.0488 18.4619 21.0322 18.5062C21.1235 18.5653 21.2115 18.5895 21.2949 18.5787L21.3776 18.5687C21.3796 18.5405 21.3703 18.5277 21.3498 18.5297C21.3293 18.5324 21.32 18.5197 21.322 18.4908V18.4915Z" fill="white"/>
<path d="M21.8361 16.1663C21.7984 16.1153 21.7382 16.0945 21.6548 16.1046C21.5582 16.1167 21.4802 16.1549 21.4206 16.218C21.4147 16.3033 21.4458 16.3416 21.5152 16.3329C21.5569 16.3275 21.6198 16.3094 21.7045 16.2778C21.7891 16.2462 21.8321 16.216 21.8341 16.1878L21.8355 16.1663H21.8361Z" fill="white"/>
<path d="M21.4921 19.5899C21.4802 19.5637 21.4537 19.5523 21.4114 19.5577C21.3836 19.5611 21.3697 19.5704 21.3684 19.5839C21.3671 19.598 21.3459 19.608 21.3049 19.6127L21.2222 19.6228L21.2209 19.6443C21.2195 19.6584 21.2262 19.6644 21.2401 19.6631L21.2817 19.6577L21.3234 19.6524L21.4061 19.6423C21.4478 19.6369 21.4762 19.6195 21.4928 19.5893L21.4921 19.5899Z" fill="white"/>
<path d="M21.9789 18.2189C21.967 18.1927 21.9472 18.1806 21.9201 18.184C21.8645 18.1907 21.8208 18.2249 21.7891 18.2847C21.803 18.2827 21.8162 18.2887 21.8288 18.3008L21.8063 18.325C21.8049 18.3391 21.8116 18.3451 21.8255 18.3438C21.8532 18.3404 21.885 18.3297 21.9207 18.3109C21.9558 18.2927 21.9756 18.2618 21.9783 18.2189H21.9789Z" fill="white"/>
<path d="M22.3158 18.7057L22.3397 18.66C22.3416 18.6318 22.3145 18.6211 22.2596 18.6278C22.2179 18.6332 22.1961 18.6567 22.1928 18.6996C22.1908 18.7285 22.1961 18.7486 22.2093 18.7607C22.251 18.7554 22.2861 18.7372 22.3158 18.705V18.7057Z" fill="white"/>
<path d="M23.0177 18.3847L23.0191 18.3632C23.023 18.3068 23.0071 18.284 22.9721 18.2954C22.937 18.3068 22.9072 18.2927 22.8828 18.2538C22.8391 18.2874 22.7921 18.3216 22.7418 18.3558C22.6909 18.3908 22.6572 18.4297 22.6406 18.474C22.6525 18.5009 22.6757 18.5089 22.7114 18.4968C22.7465 18.4854 22.7696 18.4935 22.7815 18.5197C22.7974 18.4895 22.8318 18.4787 22.8867 18.4854C22.941 18.4928 22.984 18.4592 23.0177 18.3847Z" fill="white"/>
<path d="M22.6853 19.8847L22.69 19.8209C22.6919 19.7927 22.686 19.7793 22.6721 19.7806C22.5887 19.7914 22.5451 19.8249 22.5411 19.8813C22.5398 19.8954 22.553 19.9008 22.5808 19.8974L22.6642 19.8867L22.6847 19.884L22.6853 19.8847Z" fill="white"/>
<path d="M23.1194 18.985C23.0639 18.9917 23.0374 18.9816 23.0394 18.9528C22.9673 18.9904 22.8872 19.0179 22.7966 19.036C22.7059 19.0548 22.6444 19.1011 22.6113 19.1757C22.6213 19.2307 22.6603 19.2542 22.7304 19.2455C22.7992 19.2368 22.8799 19.2092 22.9732 19.1622C23.0652 19.1159 23.1135 19.0709 23.1161 19.028L23.1194 18.9857V18.985Z" fill="white"/>
<path d="M22.9669 21.1376C22.9325 21.0436 22.8247 21.0073 22.6454 21.0301C22.5759 21.0389 22.5204 21.053 22.4774 21.0724C22.4714 21.1577 22.4985 21.2107 22.5594 21.2309C22.6196 21.2517 22.6838 21.2577 22.7533 21.249C22.8505 21.2369 22.9134 21.2221 22.9418 21.204L22.9623 21.2013L22.9636 21.1798L22.9669 21.1369V21.1376Z" fill="white"/>
<path d="M22.8145 21.8332C22.7741 21.8244 22.7397 21.8184 22.7126 21.8144C22.6855 21.811 22.6511 21.8117 22.6094 21.8164C22.5399 21.8251 22.5036 21.858 22.4996 21.9144C22.4943 21.9856 22.5267 22.0165 22.5955 22.0084C22.665 21.9997 22.7126 21.9936 22.7404 21.9903C22.7563 21.9601 22.7715 21.9372 22.7867 21.9211C22.8013 21.9057 22.8105 21.8761 22.8132 21.8332H22.8145Z" fill="white"/>
<path d="M23.7237 20.6205C23.643 20.6024 23.5616 20.5843 23.4809 20.5661C23.3995 20.548 23.3175 20.5447 23.2348 20.5547C23.2328 20.5836 23.2249 20.5984 23.211 20.5997C23.1971 20.6017 23.1898 20.6098 23.1885 20.6239C23.2831 20.64 23.3552 20.6877 23.4042 20.7656C23.4538 20.8441 23.5127 20.879 23.5821 20.8703C23.6238 20.8649 23.6523 20.8475 23.6681 20.8173C23.684 20.787 23.7058 20.7635 23.7356 20.7454C23.7409 20.6742 23.7356 20.6333 23.7237 20.6205Z" fill="white"/>
<path d="M23.9236 21.8627C23.9117 21.8358 23.8819 21.8224 23.8343 21.821C23.786 21.8204 23.7483 21.821 23.7211 21.8244C23.4717 21.8553 23.2719 21.958 23.123 22.1312C23.1773 22.1386 23.2322 22.1386 23.2871 22.1312C23.342 22.1245 23.3976 22.1171 23.4532 22.1104C23.5498 22.0983 23.651 22.0822 23.7549 22.0621C23.8587 22.0419 23.9143 21.9822 23.9216 21.8828L23.9229 21.8613L23.9236 21.8627Z" fill="white"/>
<path d="M23.7577 19.2643L23.716 19.2696C23.7021 19.2717 23.6856 19.2663 23.6657 19.2549C23.6459 19.2435 23.6221 19.2394 23.5949 19.2428C23.5533 19.2482 23.5103 19.2717 23.4659 19.3119C23.4223 19.3529 23.3978 19.4086 23.3925 19.4798C23.3892 19.5221 23.3951 19.5429 23.4084 19.5409L23.4501 19.5355C23.5195 19.5268 23.5897 19.5006 23.6618 19.4563C23.7332 19.4127 23.7709 19.3683 23.7736 19.326C23.7597 19.3281 23.7531 19.3213 23.7544 19.3072L23.7577 19.2649V19.2643Z" fill="white"/>
<path d="M23.5346 23.2847L23.4963 23.2471C23.4685 23.2505 23.4473 23.2606 23.4328 23.276C23.4182 23.2921 23.3964 23.3015 23.3692 23.3049C23.3673 23.3337 23.3937 23.3438 23.4493 23.3371C23.5042 23.3304 23.5333 23.3129 23.5353 23.2841L23.5346 23.2847Z" fill="white"/>
<path d="M24.3338 21.3047C24.2941 21.2812 24.2233 21.2624 24.1214 21.247C24.0195 21.2315 23.9692 21.21 23.9712 21.1812L23.9295 21.1865L23.8052 21.202C23.7357 21.2107 23.6993 21.2436 23.6953 21.3C23.694 21.3141 23.7602 21.3443 23.8945 21.3913C24.0288 21.4376 24.1439 21.4551 24.2405 21.443C24.2425 21.4148 24.2577 21.392 24.2868 21.3738C24.3152 21.3564 24.3305 21.3336 24.3324 21.3047H24.3338Z" fill="white"/>
<path d="M24.2218 20.2627C24.1947 20.2519 24.1755 20.2405 24.1629 20.2277C24.1497 20.2157 24.1298 20.211 24.102 20.2143C24.0465 20.221 24.0101 20.2439 23.9942 20.2808C23.9783 20.3184 23.9625 20.3372 23.9492 20.3392C23.977 20.3358 23.9823 20.3526 23.9664 20.3896C23.9505 20.4272 23.9558 20.4439 23.9836 20.4406C23.9975 20.4386 24.0048 20.4345 24.0055 20.4272C24.0055 20.4204 24.0134 20.4157 24.0266 20.4137L24.0657 20.4513C24.0928 20.448 24.114 20.4386 24.1292 20.4225C24.1437 20.407 24.1649 20.3969 24.1927 20.3929C24.194 20.3788 24.1907 20.3721 24.1841 20.3728C24.1768 20.3734 24.1742 20.3674 24.1755 20.3526C24.1768 20.3385 24.1834 20.3305 24.198 20.3285C24.2119 20.3264 24.2191 20.3191 24.2205 20.3043L24.2238 20.262L24.2218 20.2627Z" fill="white"/>
<path d="M24.6688 20.6501C24.641 20.6535 24.6278 20.6481 24.6291 20.634C24.6298 20.6199 24.6165 20.6145 24.5887 20.6179C24.5358 20.5964 24.5021 20.5863 24.4882 20.5883C24.3638 20.6038 24.2983 20.6474 24.2937 20.7186C24.2877 20.8038 24.3195 20.8421 24.3889 20.8334C24.4306 20.828 24.4855 20.818 24.5557 20.8018C24.6251 20.7864 24.6628 20.7428 24.6681 20.6716L24.6695 20.6501H24.6688Z" fill="white"/>
<path d="M24.6954 19.1045C24.6974 19.0763 24.6643 19.0662 24.5949 19.0749L24.491 19.0877C24.489 19.1166 24.491 19.1407 24.4963 19.1609C24.5016 19.181 24.5386 19.1871 24.6081 19.1783C24.663 19.1716 24.6928 19.1468 24.6954 19.1038V19.1045Z" fill="white"/>
<path d="M24.9469 21.0798C24.9224 21.0402 24.8959 21.0227 24.8681 21.0261C24.716 21.0449 24.6147 21.1214 24.5645 21.2544L24.6445 21.2866C24.6716 21.2833 24.7279 21.2658 24.8125 21.2342C24.8972 21.202 24.9416 21.1651 24.9442 21.1228L24.9475 21.0805L24.9469 21.0798Z" fill="white"/>
<path d="M25.1657 20.3131C25.1254 20.3043 25.0989 20.2896 25.0863 20.2701C25.0738 20.2506 25.0539 20.2426 25.0261 20.2459C24.9983 20.2493 24.9692 20.2708 24.9395 20.3097C24.9084 20.3493 24.8925 20.3829 24.8905 20.4111C24.8852 20.4823 24.9044 20.5084 24.9474 20.4883C24.9897 20.4688 25.038 20.4628 25.0923 20.4702C25.1346 20.4507 25.1571 20.4272 25.1591 20.3983C25.1611 20.3701 25.1631 20.3419 25.1651 20.3131H25.1657Z" fill="white"/>
<path d="M25.2426 19.226C25.2445 19.1971 25.2181 19.1864 25.1625 19.1938L25.1003 19.2018L25.0586 19.2072C25.0295 19.2247 25.0136 19.2623 25.0097 19.3193C25.0057 19.3764 25.0044 19.3979 25.005 19.3831C25.0302 19.4086 25.0778 19.4167 25.1473 19.408C25.2042 19.3731 25.2353 19.3267 25.2392 19.2697L25.2426 19.2274V19.226Z" fill="white"/>
<path d="M25.6172 19.7497C25.5914 19.7249 25.5722 19.7061 25.5596 19.694C25.5464 19.6819 25.5193 19.6779 25.4776 19.6832C25.4498 19.6866 25.4101 19.7161 25.3585 19.7719C25.3062 19.8283 25.287 19.8551 25.3016 19.8531C25.2956 19.9384 25.334 19.976 25.4167 19.9652C25.4584 19.9599 25.5001 19.9444 25.5437 19.9176C25.5867 19.8914 25.6106 19.8424 25.6158 19.7712L25.6172 19.7497Z" fill="white"/>
<path d="M26.1668 18.0967L26.1476 18.0779C26.1198 18.0812 26.088 18.096 26.0523 18.1215C26.0159 18.147 25.9842 18.1618 25.957 18.1652L25.9987 18.1598L26.1026 18.147C26.1304 18.1437 26.1522 18.1269 26.1681 18.0967H26.1668Z" fill="white"/>
<path d="M26.3363 19.1951C26.3072 19.2126 26.2794 19.2233 26.2516 19.2267C26.2239 19.23 26.1934 19.2267 26.159 19.2173C26.1259 19.2079 26.0882 19.2052 26.0466 19.2105C26.0188 19.2139 25.9903 19.2246 25.9619 19.2421C25.9043 19.2777 25.8752 19.3099 25.8732 19.3381C25.8712 19.367 25.8871 19.3824 25.9215 19.3851C25.9553 19.3878 25.985 19.4019 26.0108 19.4267L26.0935 19.4167C26.163 19.4079 26.2351 19.4059 26.3105 19.4106C26.3853 19.4153 26.4574 19.4133 26.5275 19.4046C26.5547 19.4012 26.6036 19.3878 26.6744 19.365C26.7445 19.3421 26.7809 19.3166 26.7829 19.2878C26.7849 19.2596 26.7386 19.23 26.6446 19.1998C26.5507 19.1689 26.4832 19.1562 26.4415 19.1615C26.3998 19.1669 26.3654 19.1783 26.3363 19.1958V19.1951Z" fill="white"/>
<path d="M26.5688 19.9686C26.5152 19.9471 26.4748 19.9377 26.4477 19.9411C26.3921 19.9478 26.2909 19.9747 26.1434 20.0217C25.9959 20.0687 25.9145 20.0995 25.8999 20.1157C25.896 20.1727 25.8999 20.2144 25.9118 20.2412C26.0104 20.2009 26.1229 20.1653 26.2486 20.1358C26.3736 20.1063 26.4815 20.0505 26.5688 19.9693V19.9686Z" fill="white"/>
<path d="M26.581 16.0166C26.5532 16.02 26.5254 16.0233 26.4983 16.0267C26.4943 16.0838 26.534 16.1066 26.6167 16.0965L26.6406 16.0515C26.6287 16.0247 26.6095 16.0133 26.5817 16.0166H26.581Z" fill="white"/>
<path d="M26.927 18.4022C26.9025 18.3633 26.8979 18.325 26.9145 18.2881C26.9303 18.2511 26.8973 18.237 26.8139 18.2478C26.7861 18.2511 26.7477 18.2632 26.6981 18.2834C26.6485 18.3035 26.6234 18.3277 26.6214 18.3565C26.6194 18.3854 26.628 18.4049 26.6478 18.4163C26.6677 18.4284 26.6836 18.4472 26.6948 18.474C26.7372 18.4546 26.7788 18.4458 26.8205 18.4479C26.8615 18.4499 26.8966 18.4351 26.9264 18.4029L26.927 18.4022Z" fill="white"/>
<path d="M28.8591 17.2735C28.7347 17.2889 28.6322 17.2802 28.5521 17.2487C28.4674 17.2876 28.39 17.3111 28.3206 17.3198C28.2511 17.3286 28.2001 17.3702 28.1677 17.4447C28.0936 17.5246 28.0242 17.6213 27.962 17.7348C27.8991 17.8482 27.7913 17.9147 27.6391 17.9335C27.5697 17.9422 27.5022 17.9261 27.4367 17.8845C27.3712 17.8435 27.3096 17.7952 27.2521 17.7388C27.1945 17.6831 27.139 17.63 27.088 17.5797C27.0364 17.53 26.9901 17.5078 26.9491 17.5125C26.824 17.528 26.746 17.573 26.7129 17.6475C26.7513 17.6851 26.8326 17.6958 26.9577 17.6804L27.0404 17.6703C27.1151 17.7737 27.2263 17.8972 27.3745 18.0403C27.522 18.1839 27.61 18.2538 27.6378 18.2504C27.7212 18.2397 27.7847 18.2108 27.8297 18.1631C27.874 18.1148 27.9329 18.0584 28.0063 17.9933C28.0268 17.8919 28.0877 17.814 28.1876 17.7589C28.2875 17.7045 28.39 17.6596 28.4952 17.6253C28.6004 17.5911 28.699 17.5609 28.7896 17.5354C28.8809 17.5098 28.9272 17.4763 28.9305 17.4333C28.9325 17.4051 28.9087 17.3514 28.8598 17.2735H28.8591Z" fill="white"/>
<path d="M27.2748 13.5002L27.2761 13.4787L27.2569 13.4599C27.2152 13.4653 27.1934 13.4821 27.1914 13.5103L27.2106 13.5291L27.2311 13.5264C27.245 13.5244 27.2523 13.521 27.2523 13.5129C27.2523 13.5062 27.2595 13.5015 27.2734 13.4995L27.2748 13.5002Z" fill="white"/>
<path d="M27.4934 16.2187L27.498 16.1549C27.5013 16.1126 27.4749 16.0945 27.4193 16.1012C27.3498 16.1099 27.2618 16.1455 27.1546 16.208C27.0475 16.2711 26.9919 16.3308 26.9879 16.3872C26.9826 16.4584 26.9906 16.496 27.0104 16.5007C27.0309 16.5054 27.0673 16.5115 27.1222 16.5182C27.1791 16.4833 27.2539 16.449 27.3458 16.4161C27.4371 16.3839 27.4861 16.3174 27.4934 16.218V16.2187Z" fill="white"/>
<path d="M27.254 15.5312C27.2401 15.5332 27.2334 15.5265 27.2348 15.5124L27.1726 15.5204L27.0899 15.5305C27.076 15.5325 27.0687 15.5406 27.0674 15.5547C27.0773 15.6097 27.1507 15.6285 27.2897 15.6111C27.2936 15.5547 27.2824 15.5278 27.254 15.5312Z" fill="white"/>
<path d="M27.4034 18.66C27.4087 18.5888 27.3756 18.5647 27.3055 18.5875C27.2354 18.6103 27.1732 18.611 27.1203 18.5895C27.1189 18.6036 27.1044 18.6123 27.0766 18.6163L27.0349 18.6217L27.0336 18.6432L27.0323 18.6647C27.0177 18.6808 27.0032 18.6895 26.9893 18.6909C27.0118 18.7587 27.0435 18.7936 27.0845 18.7949C27.1262 18.797 27.1666 18.8023 27.2069 18.8111L27.2896 18.801C27.3035 18.799 27.3181 18.7902 27.3326 18.7748L27.3743 18.7694C27.3882 18.7674 27.3981 18.7312 27.4034 18.6607V18.66Z" fill="white"/>
<path d="M28.1979 16.7438C28.1582 16.7203 28.1099 16.674 28.053 16.6035C27.9961 16.533 27.9538 16.4994 27.9266 16.5027L27.8645 16.5108C27.8506 16.5128 27.844 16.5061 27.8453 16.492C27.7897 16.4987 27.7222 16.5283 27.6435 16.5806C27.5641 16.633 27.4913 16.6881 27.4258 16.7451C27.3603 16.8029 27.3048 16.8626 27.2591 16.9244C27.2128 16.9862 27.1896 17.0318 27.187 17.06C27.1817 17.1312 27.2214 17.1614 27.3041 17.1513C27.3736 17.1426 27.4291 17.1252 27.4721 17.0983C27.5158 17.0714 27.5581 17.056 27.5992 17.0506C27.6263 17.0473 27.6435 17.0486 27.6501 17.0547C27.6561 17.0614 27.6666 17.0634 27.6805 17.0614C27.6786 17.0902 27.6633 17.1131 27.6342 17.1305C27.6051 17.148 27.5899 17.1782 27.5866 17.2205C27.5833 17.2628 27.5939 17.3044 27.619 17.3434C27.6435 17.3823 27.6488 17.4031 27.6349 17.4045C27.6488 17.4024 27.6633 17.3937 27.6779 17.3783L27.6766 17.3998C27.8016 17.3843 27.883 17.3387 27.9233 17.2635C27.963 17.1883 28.0378 17.1433 28.1489 17.1292L28.315 17.1084C28.3567 17.103 28.4242 17.0735 28.5168 17.0197C28.6101 16.9654 28.6776 16.9224 28.7219 16.8881L28.7636 16.8828C28.7907 16.8794 28.8059 16.8633 28.8079 16.8351C28.8099 16.8069 28.7761 16.7968 28.7073 16.8056L28.5413 16.8264C28.5135 16.8297 28.452 16.8304 28.3554 16.8284C28.2594 16.8264 28.2065 16.7982 28.1972 16.7424L28.1979 16.7438Z" fill="white"/>
<path d="M28.9944 14.4892C28.9667 14.4925 28.9422 14.4992 28.921 14.5086C28.8998 14.5187 28.8747 14.5247 28.8469 14.5281C28.833 14.5301 28.8138 14.5187 28.788 14.4932C28.704 14.518 28.6127 14.5469 28.5141 14.5805C28.4156 14.614 28.3309 14.6496 28.2601 14.6865C28.2005 14.7503 28.141 14.8141 28.0815 14.8779C28.0219 14.9417 27.9432 14.98 27.8466 14.992C27.7493 15.0041 27.6832 14.9806 27.6455 14.9222C27.6084 14.8638 27.5416 14.8403 27.445 14.8524L27.3828 14.8604C27.402 14.9712 27.4953 15.0612 27.662 15.1317C27.8281 15.2029 27.9247 15.2364 27.9531 15.2324C27.9948 15.227 28.0517 15.1955 28.1245 15.1371C28.1972 15.0787 28.2779 15.0122 28.3653 14.9377C28.4526 14.8631 28.5366 14.7933 28.6173 14.7268C28.6974 14.6604 28.7715 14.6228 28.841 14.614C28.9104 14.6053 28.9673 14.6228 29.0123 14.6664C29.0573 14.7107 29.1135 14.7349 29.1823 14.7403C29.2511 14.7315 29.3279 14.7188 29.4113 14.7013C29.4953 14.6839 29.5654 14.6503 29.6243 14.6006C29.6018 14.5328 29.5396 14.4878 29.4384 14.465C29.3372 14.4428 29.2452 14.4361 29.1625 14.4469C29.0791 14.4576 29.0236 14.4717 28.9944 14.4892Z" fill="white"/>
<path d="M28.0591 15.4936C28.0333 15.4688 28.0028 15.462 27.9678 15.4735C27.932 15.4849 27.9023 15.4782 27.8765 15.4533C27.807 15.462 27.7541 15.5319 27.7177 15.6635C27.6806 15.7951 27.6634 15.8461 27.6654 15.8179C27.6621 15.8602 27.6813 15.8864 27.7216 15.8958L27.8017 15.928C27.8566 15.9213 27.8897 15.8958 27.9003 15.8521C27.9095 15.8085 27.9168 15.7622 27.9201 15.7125C27.9234 15.6628 27.9333 15.6158 27.9506 15.5715C27.9671 15.5272 28.0028 15.5017 28.0591 15.4943V15.4936Z" fill="white"/>
<path d="M29.4124 15.5775C29.4131 15.5634 29.4071 15.5574 29.3932 15.5587C29.3794 15.5607 29.3727 15.554 29.3741 15.5399L29.2907 15.5507L29.0413 15.5822C28.9586 15.5923 28.8984 15.6178 28.8613 15.6574C28.8236 15.697 28.7938 15.736 28.7707 15.7742C28.7469 15.8125 28.7204 15.8508 28.69 15.8897C28.6595 15.9293 28.6033 15.9535 28.5206 15.9643C28.4505 15.973 28.3929 15.9696 28.3459 15.9542C28.299 15.9387 28.2341 15.9367 28.1508 15.9468C28.0959 15.9535 28.0469 15.9669 28.0039 15.9864C28.0833 16.216 28.1739 16.349 28.2738 16.3859C28.3737 16.4228 28.5418 16.4262 28.7773 16.3966C28.8117 16.4906 28.8627 16.541 28.9308 16.5464C28.9989 16.5517 29.0816 16.5484 29.1789 16.5363C29.2616 16.5262 29.3258 16.4967 29.3708 16.449L29.3899 16.4678C29.4038 16.4658 29.4118 16.451 29.4138 16.4222L29.4184 16.3584L29.4197 16.3369C29.382 16.2859 29.3284 16.2637 29.2596 16.2724C29.2179 16.2778 29.169 16.2946 29.1121 16.3228C29.0552 16.351 28.9983 16.3684 28.9434 16.3758C28.8329 16.3899 28.7733 16.3543 28.7661 16.2711C28.7581 16.1872 28.7429 16.112 28.7197 16.0442C28.7508 15.9978 28.8011 15.9636 28.8713 15.9408C28.9414 15.9179 29.0148 15.8944 29.0922 15.8709C29.169 15.8474 29.2398 15.8172 29.3039 15.781C29.3688 15.7447 29.4032 15.6917 29.4085 15.6198L29.4118 15.5775H29.4124Z" fill="white"/>
<path d="M29.0147 15.078C28.9902 15.039 28.9637 15.0209 28.9359 15.0243L28.8532 15.0343L28.8116 15.0397C28.7229 15.135 28.5899 15.219 28.4133 15.2901C28.2366 15.362 28.146 15.4332 28.1407 15.5037C28.1387 15.5325 28.1784 15.5486 28.2611 15.552C28.3431 15.556 28.3967 15.5701 28.4225 15.595C28.5608 15.5775 28.6938 15.4942 28.8215 15.3445C28.9485 15.1948 29.0133 15.1055 29.0153 15.0773L29.0147 15.078Z" fill="white"/>
<path d="M29.0013 13.2416C29.002 13.2275 28.996 13.2215 28.9821 13.2228C28.9682 13.2249 28.9616 13.2181 28.9629 13.204L28.9643 13.1826L28.8809 13.1933C28.7982 13.2034 28.7241 13.2269 28.6599 13.2631C28.5951 13.2994 28.5276 13.3363 28.4561 13.3732C28.4542 13.4021 28.4833 13.4229 28.5441 13.4364C28.605 13.4498 28.6421 13.4558 28.6566 13.4538C28.6983 13.4484 28.7433 13.4323 28.7936 13.4048C28.8438 13.3773 28.8895 13.3544 28.9318 13.335C28.9444 13.3477 28.9583 13.3531 28.9722 13.3511C28.9861 13.3491 28.994 13.3343 28.996 13.3054L29.0006 13.2416H29.0013Z" fill="white"/>
<path d="M28.9825 14.089C28.9898 13.9896 28.9448 13.946 28.8475 13.9581C28.8336 13.9601 28.8231 13.9682 28.8151 13.9829C28.8072 13.9984 28.7893 14.0071 28.7615 14.0105L28.741 14.0131C28.7119 14.0306 28.6974 14.0467 28.6967 14.0608C28.6947 14.0897 28.7 14.1065 28.7139 14.1118C28.7271 14.1172 28.7397 14.1333 28.7516 14.1602C28.7939 14.1407 28.8356 14.132 28.8766 14.134C28.9183 14.136 28.9534 14.1212 28.9832 14.089H28.9825Z" fill="white"/>
<path d="M28.6731 19.0293C28.6784 18.9581 28.646 18.9272 28.5772 18.9353C28.5348 18.9406 28.4892 18.9608 28.4389 18.995C28.3886 19.0299 28.3556 19.0622 28.3397 19.0917C28.3357 19.1488 28.3463 19.1897 28.3721 19.2146C28.4144 19.1951 28.4528 19.1871 28.4866 19.1897C28.5203 19.1924 28.5527 19.1783 28.5825 19.1461L28.6222 19.1622C28.6493 19.1589 28.6665 19.1145 28.6725 19.0293H28.6731Z" fill="white"/>
<path d="M28.603 19.735L28.6268 19.6893C28.6288 19.6611 28.6156 19.6484 28.5884 19.6517C28.5607 19.6551 28.5395 19.6611 28.5256 19.6698C28.511 19.6786 28.4899 19.6846 28.4621 19.6886C28.4482 19.6907 28.4416 19.6839 28.4429 19.6698C28.4409 19.6987 28.433 19.7135 28.4191 19.7148C28.4052 19.7162 28.3979 19.7249 28.3966 19.739C28.3946 19.7679 28.4211 19.7779 28.4766 19.7712C28.5322 19.7645 28.5746 19.7518 28.603 19.7343V19.735Z" fill="white"/>
<path d="M29.0802 18.513C29.0272 18.4915 28.9723 18.4841 28.9174 18.4915C28.8757 18.4969 28.8261 18.517 28.7686 18.5526C28.711 18.5882 28.6812 18.6271 28.6779 18.6694C28.6766 18.6835 28.6825 18.6969 28.6958 18.7097C28.7249 18.6922 28.7593 18.6842 28.8003 18.6862C28.8413 18.6882 28.8771 18.6734 28.9068 18.6412L28.9465 18.6573C28.9882 18.652 29.0127 18.6352 29.0219 18.6056C29.0312 18.5761 29.0497 18.5459 29.0795 18.5136L29.0802 18.513Z" fill="white"/>
<path d="M29.3063 16.9217C29.2435 16.9298 29.1846 16.9371 29.1297 16.9439C29.1144 16.96 29.1065 16.9821 29.1045 17.0103C29.0986 17.0956 29.1191 17.1426 29.1667 17.1507C29.2143 17.1587 29.2719 17.1587 29.342 17.15C29.3579 17.1198 29.3831 17.0996 29.4181 17.0875C29.4532 17.0761 29.4717 17.0567 29.4737 17.0278L29.4558 16.9882C29.4181 16.9365 29.3685 16.915 29.3063 16.9224V16.9217Z" fill="white"/>
<path d="M29.2988 18.9085C29.271 18.9118 29.2544 18.9038 29.2491 18.8829C29.2438 18.8621 29.2266 18.8541 29.1995 18.8574C29.1294 18.8662 29.093 18.8991 29.089 18.9561C29.087 18.985 29.1029 19.0004 29.1373 19.0025C29.1711 19.0051 29.2022 19.0051 29.2299 19.0011C29.2716 18.9957 29.2941 18.9649 29.2981 18.9085H29.2988Z" fill="white"/>
<path d="M29.1552 19.7927C29.1592 19.7356 29.1473 19.7088 29.1195 19.7128C29.1056 19.7148 29.0977 19.7296 29.0957 19.7578C29.0924 19.8008 29.0977 19.8209 29.1116 19.8196C29.1255 19.8175 29.1327 19.8135 29.1327 19.8061C29.1327 19.7994 29.14 19.7947 29.1539 19.7927H29.1552Z" fill="white"/>
<path d="M29.6111 17.7073C29.6117 17.6932 29.6163 17.6824 29.6236 17.6744C29.6309 17.6663 29.6355 17.6556 29.6362 17.6415C29.6395 17.5985 29.5991 17.5824 29.5158 17.5931C29.4741 17.5985 29.4324 17.6072 29.3907 17.6193C29.3484 17.6321 29.3272 17.6455 29.3266 17.6596C29.3246 17.6885 29.3299 17.7012 29.3444 17.6999C29.3583 17.6979 29.3643 17.7113 29.3623 17.7402L29.4245 17.7321C29.4523 17.7288 29.4728 17.7294 29.486 17.7348C29.4992 17.7402 29.5198 17.7408 29.5482 17.7375C29.5753 17.7341 29.5965 17.7247 29.6117 17.7086L29.6111 17.7073Z" fill="white"/>
<path d="M30.0089 13.2638L30.0122 13.2215C30.0162 13.1645 29.9831 13.1403 29.915 13.149C29.8733 13.1544 29.8237 13.1745 29.7661 13.2101C29.7622 13.2672 29.7661 13.3088 29.778 13.3357L29.8197 13.3303L29.9031 13.3196C29.958 13.3128 29.9944 13.294 30.0096 13.2638H30.0089Z" fill="white"/>
<path d="M29.7654 19.3146C29.7694 19.2582 29.7509 19.2287 29.7099 19.2267C29.6682 19.2247 29.6351 19.2119 29.6093 19.1864C29.6073 19.2153 29.5928 19.2274 29.5656 19.2233C29.5385 19.22 29.524 19.2321 29.522 19.2603C29.5359 19.2582 29.5425 19.265 29.5412 19.2791L29.4982 19.3059C29.4962 19.3348 29.5213 19.3596 29.5749 19.3804C29.6278 19.4026 29.6411 19.414 29.6133 19.418C29.6411 19.4147 29.6662 19.4013 29.688 19.3771C29.7105 19.3529 29.7363 19.3328 29.7648 19.3146H29.7654Z" fill="white"/>
<path d="M34.5282 16.0825C34.5309 16.0402 34.5071 16.0227 34.4561 16.0301C34.4303 16.0341 34.4171 16.0502 34.4151 16.0784C34.4144 16.0925 34.4191 16.106 34.4316 16.118L34.4508 16.1154L34.5077 16.1066C34.5203 16.1046 34.5276 16.0966 34.5282 16.0825Z" fill="white"/>
<path d="M35.9697 16.6048C35.9466 16.5659 35.8969 16.5524 35.8209 16.5639C35.7574 16.5733 35.715 16.5941 35.6938 16.6256C35.6727 16.6572 35.6608 16.6867 35.6594 16.7149C35.6568 16.7579 35.6747 16.776 35.713 16.7707C35.7382 16.7666 35.7574 16.7606 35.7706 16.7512C35.7838 16.7425 35.803 16.7357 35.8281 16.7317L35.8473 16.729C35.8745 16.6968 35.9009 16.6787 35.9261 16.6746C35.9519 16.6706 35.9658 16.6552 35.9677 16.6263L35.9691 16.6048H35.9697Z" fill="white"/>
<path d="M35.9592 17.3461C35.9486 17.3051 35.9156 17.2964 35.8567 17.3192C35.7985 17.3427 35.7574 17.3414 35.7343 17.3166C35.7191 17.3474 35.7025 17.3709 35.6827 17.3877C35.6628 17.4052 35.6522 17.4206 35.6516 17.4347C35.6496 17.4636 35.6615 17.4757 35.6866 17.4716C35.7118 17.4676 35.7376 17.4643 35.7627 17.4602C35.8514 17.4468 35.9175 17.4092 35.9592 17.3461Z" fill="white"/>
<path d="M35.8627 19.4094C35.8654 19.3671 35.8581 19.3402 35.8396 19.3288C35.8217 19.3174 35.7999 19.3066 35.7754 19.2959C35.7622 19.2979 35.7529 19.3026 35.7456 19.3107C35.7383 19.3187 35.7291 19.3234 35.7165 19.3254C35.6907 19.3295 35.6722 19.3288 35.6603 19.3234C35.6484 19.3181 35.6292 19.3174 35.604 19.3214C35.5531 19.3288 35.5266 19.3469 35.5253 19.3758C35.5207 19.447 35.5339 19.4772 35.567 19.4644C35.5987 19.4523 35.6199 19.4671 35.6305 19.5081L35.6689 19.502L35.784 19.4846C35.8349 19.4772 35.8614 19.4517 35.8647 19.4087L35.8627 19.4094Z" fill="white"/>
<path d="M35.7188 20.1707C35.7076 20.1445 35.7056 20.1237 35.7129 20.1083C35.7202 20.0935 35.7116 20.0875 35.6858 20.0915L35.6666 20.0942L35.6282 20.1002C35.6024 20.1042 35.5739 20.1123 35.5415 20.1237C35.5091 20.1358 35.4919 20.1627 35.4893 20.2056C35.5137 20.2164 35.5376 20.2298 35.562 20.2479C35.5865 20.2654 35.6103 20.2721 35.6361 20.2687C35.6487 20.2667 35.6619 20.258 35.6758 20.2419C35.7175 20.1929 35.7374 20.1761 35.736 20.1902C35.7367 20.1761 35.7307 20.17 35.7182 20.1721L35.7188 20.1707Z" fill="white"/>
<path d="M36.5655 20.2332C36.5417 20.2083 36.504 20.2003 36.4537 20.2076C36.3902 20.217 36.3306 20.2546 36.2764 20.3191C36.2889 20.3171 36.3015 20.3191 36.3141 20.3238C36.326 20.3292 36.3452 20.3298 36.3703 20.3258C36.4338 20.3164 36.4987 20.2855 36.5655 20.2332Z" fill="white"/>
<path d="M37.3087 13.1712C37.2848 13.147 37.2551 13.1269 37.2174 13.1108C37.1803 13.0953 37.1366 13.0913 37.0857 13.0987C37.0725 13.1007 37.0632 13.1054 37.0566 13.1134C37.0493 13.1215 37.0334 13.1275 37.0083 13.1316C37.0043 13.1886 37.0248 13.2175 37.0685 13.2175C37.1122 13.2182 37.1538 13.2155 37.1916 13.2101C37.2425 13.2027 37.2815 13.19 37.308 13.1712H37.3087Z" fill="white"/>
<path d="M37.3588 12.4031C37.3614 12.3608 37.3376 12.3434 37.286 12.3508C37.2476 12.3568 37.2278 12.3736 37.2258 12.4018C37.2238 12.4307 37.2357 12.4428 37.2609 12.4387C37.2992 12.4327 37.3317 12.4213 37.3581 12.4025L37.3588 12.4031Z" fill="white"/>
<path d="M37.5386 14.0031C37.5406 13.9749 37.5108 13.944 37.45 13.9105C37.3739 13.9219 37.3342 13.9494 37.3316 13.9917C37.3289 14.034 37.3368 14.0575 37.3554 14.0622C37.3739 14.0669 37.3951 14.081 37.4189 14.1058L37.4381 14.1032L37.5148 14.0917C37.5399 14.0877 37.5532 14.079 37.5545 14.0649C37.5552 14.0508 37.5525 14.0407 37.5472 14.034C37.5413 14.028 37.5386 14.0179 37.5399 14.0038L37.5386 14.0031Z" fill="white"/>
<path d="M38.965 11.8445C38.9293 11.8076 38.8796 11.7942 38.8161 11.8036C38.7778 11.8096 38.7361 11.823 38.6911 11.8432C38.6448 11.864 38.621 11.8955 38.6183 11.9385C38.6157 11.9808 38.6487 12.0043 38.7182 12.0077C38.787 12.0117 38.8399 12.0177 38.8777 12.0258C38.9299 11.9902 38.959 11.9432 38.963 11.8868L38.9656 11.8438L38.965 11.8445Z" fill="white"/>
<path d="M38.5601 22.7006C38.5343 22.7047 38.5224 22.6993 38.5231 22.6852C38.5238 22.6711 38.5112 22.6657 38.486 22.6698C38.4841 22.6986 38.4768 22.7134 38.4642 22.7154C38.4516 22.7174 38.4444 22.7255 38.4437 22.7396L38.4424 22.7611L38.4616 22.7584L38.5191 22.7497C38.5443 22.7456 38.5582 22.7302 38.5601 22.7013V22.7006Z" fill="white"/>
<path d="M40.0115 11.7297C40.0154 11.6726 39.989 11.6417 39.9327 11.6357C39.8765 11.6303 39.8229 11.631 39.7713 11.639C39.7078 11.6484 39.6747 11.6746 39.6721 11.7169C39.6674 11.7881 39.7415 11.8123 39.8944 11.7894C39.9453 11.782 39.9844 11.7619 40.0115 11.7297Z" fill="white"/>
<path d="M41.4497 11.4289C41.4517 11.4007 41.4206 11.3913 41.3564 11.4007C41.2929 11.4101 41.2347 11.4296 41.1831 11.4584C41.1308 11.4873 41.103 11.5162 41.1017 11.5444C41.0991 11.5873 41.1288 11.6041 41.1937 11.594C41.2956 11.5786 41.3803 11.5235 41.4504 11.4289H41.4497Z" fill="white"/>
<path d="M41.2538 22.2958C41.2544 22.2817 41.2419 22.2763 41.2167 22.2803L41.1783 22.2864C41.1525 22.2904 41.134 22.2864 41.1228 22.2736C41.1208 22.3025 41.1135 22.3173 41.1009 22.3193C41.0877 22.3213 41.0811 22.3367 41.0791 22.3649L41.1175 22.3589L41.1936 22.3475C41.2319 22.3414 41.2524 22.3246 41.2538 22.2964V22.2958Z" fill="white"/>
<path d="M42.4723 11.402C42.477 11.3309 42.4512 11.2926 42.3949 11.2866C42.3387 11.2812 42.2851 11.2819 42.2342 11.2899C42.17 11.2993 42.1363 11.3396 42.1316 11.4108C42.127 11.4819 42.1435 11.5215 42.1806 11.5296C42.2441 11.5202 42.2957 11.5054 42.3347 11.4853C42.3738 11.4658 42.4201 11.4376 42.4723 11.4014V11.402Z" fill="white"/>
<path d="M42.8421 21.4236C42.8427 21.4095 42.8308 21.4041 42.805 21.4082L42.7289 21.4196C42.725 21.4766 42.7488 21.5008 42.7997 21.4934C42.8255 21.4894 42.8394 21.4666 42.8421 21.4236Z" fill="white"/>
<path d="M43.4774 13.1095L43.4788 13.088C43.4808 13.0598 43.4688 13.0437 43.4437 13.0403C43.4186 13.037 43.4 13.0363 43.3875 13.0383C43.3729 13.0685 43.359 13.0887 43.3458 13.0974C43.3326 13.1068 43.3253 13.1249 43.3233 13.1538C43.3226 13.1679 43.3286 13.1739 43.3412 13.1719C43.367 13.1679 43.3861 13.1585 43.4 13.1417C43.4133 13.1256 43.4397 13.1148 43.4781 13.1088L43.4774 13.1095Z" fill="white"/>
<path d="M43.7598 11.3772C43.7618 11.349 43.7373 11.3382 43.6863 11.3463C43.6724 11.3624 43.6652 11.3778 43.6645 11.3919C43.6625 11.4208 43.6671 11.441 43.6797 11.453C43.6916 11.4658 43.7035 11.4705 43.7168 11.4692C43.7929 11.4577 43.8319 11.4383 43.8339 11.4094L43.8365 11.3671C43.8239 11.3691 43.8173 11.3738 43.8167 11.3805C43.8167 11.3879 43.8094 11.3919 43.7968 11.394C43.7843 11.396 43.7783 11.394 43.7783 11.3859C43.7783 11.3792 43.7723 11.3765 43.7598 11.3778V11.3772Z" fill="white"/>
<path d="M43.9759 12.1265L43.9786 12.0842L43.9621 12.0446C43.9111 12.0519 43.8469 12.0761 43.7682 12.1157C43.6901 12.156 43.6504 12.1896 43.6485 12.2178C43.6478 12.2326 43.6597 12.2373 43.6855 12.2339C43.7113 12.2299 43.7298 12.2272 43.7424 12.2252C43.7808 12.2191 43.8198 12.2064 43.8588 12.1862C43.8979 12.1668 43.9369 12.1466 43.9759 12.1265Z" fill="white"/>
<path d="M43.7617 19.1932C43.7518 19.1522 43.7333 19.1415 43.7075 19.1589C43.681 19.1771 43.6691 19.165 43.6724 19.122L43.6532 19.1247L43.5573 19.1388C43.5189 19.1448 43.4991 19.1616 43.4971 19.1905C43.5321 19.2274 43.5884 19.2402 43.6651 19.2288C43.6903 19.2247 43.7061 19.2194 43.7134 19.2106C43.72 19.2026 43.7359 19.1965 43.7617 19.1925V19.1932Z" fill="white"/>
<path d="M44.6495 18.0457C44.6409 17.9913 44.5979 17.9692 44.5218 17.9806C44.4709 17.988 44.4193 18.0034 44.3677 18.0249C44.3154 18.047 44.2883 18.086 44.2843 18.1431C44.2817 18.186 44.3181 18.2015 44.3948 18.1901C44.4967 18.1746 44.5814 18.1269 44.6502 18.0457H44.6495Z" fill="white"/>
<path d="M44.6879 16.012C44.6634 16.0019 44.6251 15.9999 44.5741 16.008C44.5232 16.0153 44.4908 16.0281 44.4775 16.0442C44.4987 16.1114 44.5351 16.1342 44.5867 16.112C44.639 16.0905 44.6833 16.0838 44.7203 16.0919C44.7243 16.0355 44.7197 16.008 44.7071 16.0093L44.6879 16.012Z" fill="white"/>
<path d="M44.584 18.7742C44.586 18.746 44.5734 18.7332 44.5489 18.7372C44.5231 18.7413 44.4781 18.7554 44.4133 18.7789C44.3485 18.803 44.3154 18.8285 44.3141 18.8574C44.3094 18.9286 44.3326 18.9601 44.3835 18.9528L44.4603 18.9413L44.4986 18.9353C44.5258 18.9031 44.5463 18.8789 44.5602 18.8628C44.5734 18.8467 44.5813 18.8245 44.5833 18.7963L44.5846 18.7748L44.584 18.7742Z" fill="white"/>
<path d="M44.8308 15.2721C44.8202 15.2459 44.7891 15.2291 44.7395 15.2224C44.6892 15.2163 44.6449 15.2157 44.6071 15.221C44.5813 15.2251 44.5674 15.256 44.5635 15.3124C44.6085 15.3902 44.6568 15.4252 44.7084 15.4171C44.7335 15.4131 44.7593 15.4064 44.7851 15.3949C44.8109 15.3842 44.8255 15.35 44.8294 15.2929L44.8308 15.2714V15.2721Z" fill="white"/>
<path d="M46.2538 14.3187C46.2577 14.2623 46.2458 14.2455 46.2194 14.271C46.1922 14.2959 46.1545 14.2985 46.1056 14.2777C46.0765 14.3241 46.0612 14.369 46.0586 14.4113L46.097 14.4053C46.1353 14.3993 46.1638 14.3919 46.1836 14.3818C46.2035 14.3717 46.2266 14.3509 46.2538 14.3187Z" fill="white"/>
<path d="M48.8656 14.0534C48.8696 13.9964 48.8371 13.9722 48.7677 13.9809C48.7399 13.9843 48.7081 13.9957 48.6731 14.0138C48.6373 14.0326 48.5917 14.0454 48.5361 14.0521C48.5222 14.0541 48.5156 14.0521 48.5163 14.044C48.5163 14.0373 48.5096 14.034 48.4964 14.036C48.4931 14.079 48.5156 14.1045 48.5632 14.1125C48.6109 14.1206 48.6618 14.1213 48.718 14.1145C48.7875 14.1058 48.8365 14.0857 48.8662 14.0541L48.8656 14.0534Z" fill="white"/>
<path d="M48.5076 17.943C48.4937 17.945 48.4831 17.943 48.4772 17.9363C48.4706 17.9302 48.4606 17.9275 48.4467 17.9296L48.4262 17.9322C48.3846 17.9376 48.3455 17.9497 48.3105 17.9678C48.2754 17.9866 48.243 18.0048 48.2139 18.0222C48.2258 18.0491 48.28 18.0558 48.3773 18.0437C48.4044 18.0403 48.4395 18.0323 48.4818 18.0202C48.5235 18.0081 48.546 17.988 48.548 17.9591C48.5354 17.947 48.5215 17.9416 48.5083 17.943H48.5076Z" fill="white"/>
<path d="M48.8142 12.7502L48.8156 12.7288L48.7951 12.7314L48.6905 12.7442L48.67 12.7469C48.6687 12.761 48.6819 12.7664 48.7104 12.763L48.7931 12.7529L48.8136 12.7502H48.8142Z" fill="white"/>
<path d="M49.2303 10.9441C49.1899 10.9354 49.1562 10.9253 49.1297 10.9146C49.1026 10.9038 49.0682 10.9011 49.0272 10.9065C48.9716 10.9132 48.9438 10.924 48.9425 10.9381C48.9405 10.9669 48.9663 10.981 49.0219 10.981C49.0761 10.981 49.1178 10.9797 49.1463 10.9763C49.1879 10.9709 49.2157 10.9609 49.2309 10.9441H49.2303Z" fill="white"/>
<path d="M49.2635 10.1794L49.2649 10.1579L49.247 10.1176L49.2053 10.123L49.1848 10.1257L49.1603 10.1707C49.159 10.1848 49.1656 10.1908 49.1802 10.1895L49.2424 10.1814L49.2629 10.1787L49.2635 10.1794Z" fill="white"/>
<path d="M49.647 11.7371C49.5788 11.7317 49.5286 11.7136 49.4968 11.682C49.4644 11.6511 49.4141 11.6397 49.3446 11.6478C49.3169 11.6511 49.2891 11.6585 49.2606 11.6686C49.2322 11.6793 49.2176 11.6988 49.2156 11.727L49.2084 11.8331L49.207 11.8546C49.2434 11.921 49.3241 11.9459 49.4485 11.9298C49.4909 11.9103 49.5537 11.8955 49.6364 11.8854C49.7337 11.8734 49.8256 11.8794 49.9129 11.9036C50.0003 11.9284 50.077 11.9647 50.1419 12.0123C50.1968 12.0056 50.2265 11.9808 50.2298 11.9378C50.2318 11.9096 50.2265 11.8747 50.216 11.8337C50.2054 11.7928 50.1928 11.7733 50.1789 11.7753L50.1584 11.778C50.0929 11.7297 50.0082 11.7196 49.903 11.7465C49.7985 11.774 49.7125 11.7706 49.6463 11.7364L49.647 11.7371Z" fill="white"/>
<path d="M51.8427 13.5747C51.8327 13.5197 51.7864 13.4968 51.7037 13.5076L51.5582 13.5257L51.496 13.5338C51.4245 13.5714 51.3683 13.5996 51.3253 13.6184C51.283 13.6378 51.2578 13.6902 51.2519 13.7755C51.2208 13.8218 51.1453 13.8728 51.0249 13.9306C50.9039 13.9876 50.7768 14.0393 50.6432 14.0837C50.5096 14.1286 50.3938 14.1676 50.2952 14.2011C50.1966 14.2347 50.1543 14.2502 50.1688 14.2488C50.1053 14.3697 49.9829 14.4482 49.8023 14.4845C49.621 14.5214 49.496 14.5442 49.4265 14.553C49.3849 14.5583 49.3478 14.5523 49.3147 14.5348C49.2816 14.5181 49.2373 14.5127 49.1824 14.5201C49.1685 14.5221 49.1434 14.5288 49.1083 14.5395C49.0732 14.551 49.0547 14.5711 49.0527 14.5993L49.0944 14.5939L49.1149 14.5912C49.1129 14.6201 49.1328 14.6315 49.1745 14.6262L49.1758 14.6047C49.2029 14.6013 49.2208 14.5959 49.2281 14.5872C49.2353 14.5792 49.2525 14.5738 49.2803 14.5704C49.3498 14.5617 49.4166 14.5778 49.4828 14.6188C49.5483 14.6597 49.5999 14.7067 49.6376 14.7578C49.7051 14.7779 49.7864 14.7846 49.883 14.7799C49.979 14.7752 50.0603 14.7967 50.1258 14.845C50.1748 14.9236 50.2535 14.974 50.362 14.9948C50.4705 15.0169 50.5188 15.1055 50.5076 15.262L50.4983 15.3902C50.491 15.4896 50.5221 15.5353 50.5923 15.5265C50.6611 15.5178 50.751 15.5104 50.8615 15.5037C50.9713 15.497 51.0746 15.495 51.1705 15.4963C51.2658 15.4983 51.3471 15.5097 51.4146 15.5292C51.4821 15.5494 51.5139 15.587 51.5099 15.644C51.5066 15.687 51.4556 15.732 51.3557 15.7797C51.2558 15.8273 51.1473 15.8696 51.0276 15.9052C50.9085 15.9415 50.7993 15.9797 50.7008 16.02C50.6015 16.061 50.5519 16.0952 50.5499 16.1234C50.544 16.2087 50.5459 16.2752 50.5565 16.3235C50.5665 16.3718 50.5698 16.4309 50.5645 16.5021L50.5612 16.5451L50.6028 16.5397C50.6167 16.5377 50.6445 16.531 50.6862 16.5189C50.7279 16.5068 50.7497 16.4934 50.7504 16.4786C50.7563 16.3933 50.8086 16.3342 50.9072 16.3007C51.0051 16.2671 51.1189 16.2214 51.2459 16.163C51.3736 16.1046 51.4887 16.0234 51.5926 15.9186C51.6958 15.8146 51.7567 15.6413 51.7739 15.3996C51.7818 15.2862 51.7216 15.2163 51.5932 15.1901C51.4642 15.164 51.404 15.0941 51.4126 14.98C51.4159 14.9377 51.3193 14.8967 51.1229 14.8578C50.9264 14.8189 50.7663 14.8074 50.6419 14.8229C50.5883 14.8014 50.5459 14.7645 50.5155 14.7121C50.4851 14.6597 50.4705 14.6194 50.4725 14.5912C50.4785 14.506 50.5307 14.4469 50.6286 14.4133C50.7272 14.3797 50.8179 14.3576 50.9012 14.3475C50.9846 14.3368 51.0633 14.3381 51.1381 14.3495C51.2122 14.3616 51.2618 14.4012 51.2843 14.4684C51.363 14.5154 51.4464 14.5503 51.5344 14.5745C51.621 14.5993 51.6607 14.6752 51.6515 14.8027C51.7189 14.8229 51.7825 14.8464 51.842 14.8739C51.9015 14.9014 51.9657 14.9108 52.0352 14.9028C52.1047 14.8941 52.1609 14.88 52.2032 14.8605C52.2456 14.841 52.3011 14.8269 52.3713 14.8182C52.4401 14.8095 52.4877 14.8182 52.5135 14.8424C52.5393 14.8672 52.5724 14.8773 52.6141 14.8719C52.669 14.8652 52.7656 14.8215 52.9012 14.741C53.0375 14.6604 53.1063 14.606 53.1083 14.5778C53.1103 14.5496 53.1043 14.5328 53.0911 14.5268C53.0772 14.5214 53.0719 14.5046 53.0739 14.4764L53.0752 14.4549C53.0349 14.4462 52.9799 14.4455 52.9105 14.4549C52.8132 14.467 52.7226 14.4993 52.6359 14.5523C52.5499 14.6053 52.4718 14.6362 52.403 14.645C52.2919 14.6591 52.1668 14.6322 52.0272 14.5651C51.8883 14.4979 51.8222 14.4147 51.8294 14.3153L51.8327 14.273C51.795 14.2213 51.7381 14.1971 51.6627 14.1991C51.5866 14.2018 51.5145 14.2038 51.4457 14.2052C51.3769 14.2072 51.316 14.2005 51.2624 14.1857C51.2082 14.1709 51.1844 14.1213 51.1903 14.0367C51.2003 13.895 51.2684 13.8124 51.3934 13.7896C51.5185 13.7667 51.623 13.7506 51.7057 13.7399C51.7884 13.7298 51.8519 13.7533 51.8963 13.8111C51.9399 13.8688 51.9862 13.9373 52.0358 14.0152C52.0848 14.0937 52.1391 14.1609 52.1966 14.2173C52.2542 14.273 52.3243 14.2958 52.4083 14.2857C52.5188 14.2716 52.5969 14.2307 52.6432 14.1615C52.6895 14.0924 52.7365 14.0125 52.7841 13.9218C52.8317 13.8319 52.8992 13.7493 52.9866 13.6748C53.0745 13.6002 53.2148 13.5512 53.4093 13.5264L53.492 13.5163C53.4933 13.5022 53.5006 13.4941 53.5145 13.4921C53.5284 13.4901 53.543 13.4814 53.5575 13.4659C53.5218 13.386 53.4768 13.3424 53.4232 13.335C53.3683 13.3283 53.2995 13.3296 53.2168 13.3397C53.1473 13.3484 53.0838 13.3813 53.0243 13.4377C52.9654 13.4948 52.9098 13.5579 52.8569 13.6278C52.804 13.6976 52.7477 13.7614 52.6888 13.8178C52.63 13.8748 52.5592 13.9084 52.4765 13.9185C52.3514 13.9339 52.2416 13.8916 52.1457 13.7909C52.0504 13.6902 51.9485 13.6184 51.842 13.5754L51.8427 13.5747Z" fill="white"/>
<path d="M49.8846 15.0666C49.8549 15.0988 49.8052 15.119 49.7364 15.1277C49.6392 15.1398 49.575 15.1264 49.5432 15.0881C49.5115 15.0498 49.4546 15.0357 49.3712 15.0465C49.2608 15.0606 49.1966 15.0968 49.1787 15.1552C49.2144 15.2351 49.2733 15.27 49.356 15.26C49.3699 15.258 49.3838 15.2533 49.3984 15.2439C49.4123 15.2351 49.4341 15.2291 49.4619 15.2251L49.4824 15.2224C49.4963 15.2204 49.5069 15.2157 49.5141 15.2076C49.5214 15.1995 49.532 15.1948 49.5459 15.1928C49.5876 15.1875 49.6233 15.215 49.6531 15.2741C49.6828 15.3338 49.6981 15.3708 49.6974 15.3849C49.6954 15.4137 49.6828 15.4433 49.6597 15.4742C49.6372 15.505 49.624 15.542 49.6213 15.5849L49.618 15.6272C49.7702 15.6084 49.876 15.5702 49.9349 15.5138C49.9938 15.4574 50.0553 15.3614 50.1202 15.2264C50.1109 15.1572 50.0328 15.1035 49.8846 15.0653V15.0666Z" fill="white"/>
<path d="M49.4216 16.6666C49.368 16.6451 49.3131 16.6377 49.2581 16.6444C49.1477 16.6585 49.0908 16.6867 49.0875 16.729C49.0835 16.7861 49.1013 16.819 49.1424 16.8277C49.1688 16.8385 49.196 16.8425 49.2237 16.8391C49.2376 16.8371 49.2522 16.8284 49.2667 16.8123C49.2813 16.7968 49.3025 16.7868 49.3309 16.7834L49.3514 16.7807C49.3673 16.7505 49.3819 16.7351 49.3958 16.7331C49.4097 16.731 49.4176 16.7163 49.4196 16.6881L49.4209 16.6666H49.4216Z" fill="white"/>
<path d="M49.5508 10.7776C49.5634 10.7903 49.5766 10.7957 49.5905 10.7937L49.6335 10.7675L49.5508 10.7776Z" fill="white"/>
<path d="M49.8067 13.8507C49.8106 13.7943 49.7842 13.7694 49.7293 13.7762C49.6876 13.7815 49.6353 13.7983 49.5718 13.8272C49.5083 13.8561 49.4732 13.9064 49.4679 13.9776C49.466 14.0065 49.4818 14.0219 49.5162 14.0239C49.55 14.0266 49.5811 14.0266 49.6089 14.0226C49.6505 14.0172 49.683 13.9957 49.7061 13.9574C49.7293 13.9198 49.763 13.8836 49.8067 13.8493V13.8507Z" fill="white"/>
<path d="M49.4404 15.8193L49.445 15.7555C49.447 15.7266 49.441 15.7138 49.4271 15.7152C49.398 15.7326 49.3828 15.7561 49.3808 15.7843C49.3775 15.8266 49.3828 15.8475 49.3967 15.8454C49.4106 15.8434 49.4179 15.8394 49.4179 15.832C49.4179 15.8253 49.4252 15.8206 49.4391 15.8186L49.4404 15.8193Z" fill="white"/>
<path d="M50.4298 13.1813C50.4199 13.1262 50.3471 13.086 50.2121 13.0604C50.0765 13.0349 49.9674 13.0275 49.8847 13.0383C49.7596 13.0537 49.6948 13.1041 49.6888 13.1894L49.6875 13.2108L49.708 13.2082C49.7755 13.2283 49.843 13.2337 49.9131 13.2249C49.9819 13.2162 50.0276 13.2458 50.0507 13.3136C50.1222 13.2766 50.1949 13.2605 50.2704 13.2652C50.3451 13.2699 50.3987 13.2424 50.4311 13.1813H50.4298Z" fill="white"/>
<path d="M49.7572 17.1527C49.7585 17.1386 49.7625 17.1279 49.7698 17.1198C49.7771 17.1118 49.7817 17.101 49.7823 17.0869C49.7857 17.0439 49.7665 17.0251 49.7248 17.0305C49.6831 17.0359 49.6494 17.0258 49.6242 17.001C49.523 17.0701 49.4496 17.1359 49.4046 17.1977C49.4013 17.24 49.4271 17.2655 49.4813 17.2729C49.5237 17.2534 49.5693 17.2373 49.6189 17.2239C49.6672 17.2111 49.7142 17.1876 49.7572 17.1541V17.1527Z" fill="white"/>
<path d="M50.4405 15.6521C50.4438 15.6091 50.4134 15.5957 50.3512 15.6105C50.2883 15.6252 50.2433 15.6272 50.2169 15.6165C50.2149 15.6454 50.2003 15.6608 50.1725 15.6648L50.1309 15.6702C50.0594 15.7071 50.0184 15.7548 50.0078 15.8119C49.9966 15.8696 49.9886 15.9341 49.984 16.0052C49.9489 16.108 49.8848 16.1939 49.7908 16.2617C49.6969 16.3302 49.6492 16.3786 49.6472 16.4068C49.64 16.5061 49.685 16.5498 49.7815 16.5377C49.8093 16.5343 49.8305 16.5283 49.8444 16.5196C49.8583 16.5108 49.8795 16.5048 49.9079 16.5008L49.9496 16.4954C49.9641 16.4799 49.9741 16.443 49.978 16.3859L49.9886 16.2369C49.9946 16.1516 50.0462 16.0959 50.1441 16.0697C50.2414 16.0435 50.3267 16.012 50.3982 15.9744L50.3995 15.9529C50.414 15.9374 50.422 15.922 50.4233 15.9072L50.4266 15.8649C50.4286 15.8367 50.4431 15.8206 50.4709 15.8173C50.459 15.7904 50.4577 15.7588 50.4676 15.7226C50.4775 15.6863 50.4689 15.6628 50.4418 15.6521H50.4405Z" fill="white"/>
<path d="M50.3632 16.7391L50.3646 16.7177C50.3659 16.7036 50.352 16.7015 50.3236 16.7123C50.2951 16.723 50.2746 16.7217 50.262 16.7096C50.2164 16.7714 50.1588 16.8036 50.0907 16.8049C50.0219 16.8063 49.9842 16.8573 49.9775 16.9567C50.0741 16.9446 50.1449 16.9144 50.1899 16.8667C50.2342 16.819 50.2918 16.7767 50.3632 16.7398V16.7391Z" fill="white"/>
<path d="M50.9128 13.3323C50.9009 13.3055 50.85 13.2947 50.7613 13.2981C50.6714 13.3021 50.6475 13.3021 50.6892 13.2968C50.6198 13.3055 50.5682 13.3545 50.5351 13.4431C50.5013 13.5317 50.4418 13.5955 50.3564 13.6345C50.3942 13.6862 50.4544 13.707 50.5377 13.6962C50.6482 13.6821 50.7574 13.6445 50.8646 13.5814C50.9717 13.519 51.0273 13.4659 51.0306 13.4237L51.0114 13.4049C51.0127 13.3908 51.0154 13.3834 51.0233 13.382C51.0299 13.3814 51.0339 13.374 51.0352 13.3592C51.0213 13.3612 51.0141 13.3652 51.0141 13.3726C51.0141 13.38 51.0055 13.384 50.9922 13.3861C50.9783 13.3881 50.9724 13.378 50.9737 13.3565C50.975 13.335 50.9625 13.3263 50.9347 13.3297L50.9142 13.3323H50.9128Z" fill="white"/>
<path d="M50.9203 12.6555C50.8508 12.6642 50.79 12.6582 50.7364 12.6367C50.6834 12.6152 50.6219 12.6018 50.5544 12.5958L50.5511 12.6387C50.5458 12.7099 50.6014 12.7488 50.7172 12.7556C50.8336 12.7623 50.9097 12.7985 50.9461 12.8643C50.9752 12.8469 51.0195 12.8415 51.0811 12.8475C51.1419 12.8543 51.175 12.8287 51.179 12.7717C51.1565 12.7045 51.1175 12.6736 51.0619 12.6804C51.0063 12.6871 50.9587 12.6797 50.919 12.6562L50.9203 12.6555Z" fill="white"/>
<path d="M51.2269 10.9481C51.2137 10.9361 51.1939 10.9314 51.1654 10.9347C51.1376 10.9381 51.1231 10.9542 51.1211 10.9824C51.133 11.0092 51.1595 11.02 51.2018 11.0146C51.2025 11.0005 51.2071 10.9891 51.2144 10.981C51.2217 10.973 51.2263 10.9622 51.2269 10.9481Z" fill="white"/>
<path d="M52.0116 16.4269C51.9858 16.4021 51.9481 16.396 51.8992 16.4094C51.8502 16.4229 51.8118 16.4242 51.786 16.4128C51.7854 16.4269 51.788 16.4336 51.7946 16.4329C51.8013 16.4323 51.8046 16.439 51.8032 16.4531C51.8013 16.482 51.79 16.4967 51.7688 16.4994C51.7483 16.5021 51.7371 16.5108 51.7364 16.5249C51.7351 16.539 51.7483 16.5444 51.7761 16.541C51.8727 16.529 51.9508 16.4914 52.011 16.4269H52.0116Z" fill="white"/>
<path d="M52.9808 12.9047C52.9114 12.9134 52.8611 12.902 52.8293 12.8704C52.7969 12.8395 52.7691 12.8006 52.7446 12.7543C52.7202 12.7079 52.6891 12.6697 52.65 12.6394C52.611 12.6092 52.5567 12.5978 52.4873 12.6065C52.4595 12.6099 52.4205 12.6361 52.3689 12.6851C52.3173 12.7334 52.2617 12.7898 52.2021 12.8536C52.1433 12.9174 52.0758 12.996 52.0003 13.09L51.999 13.1115C52.1095 13.0974 52.1982 13.0517 52.2663 12.9725C52.3338 12.8939 52.4085 12.8489 52.4912 12.8389C52.5885 12.8268 52.6652 12.8523 52.7228 12.9154C52.7797 12.9792 52.8505 13.0054 52.9332 12.9946C52.961 12.9913 52.9769 12.9611 52.9808 12.904V12.9047Z" fill="white"/>
<path d="M52.5443 13.2759C52.5171 13.2652 52.5046 13.2531 52.5059 13.2383C52.5072 13.2242 52.4999 13.2182 52.4867 13.2195C52.4582 13.2229 52.4424 13.2538 52.4384 13.3102C52.4351 13.3525 52.441 13.3733 52.4543 13.3713C52.5098 13.3646 52.539 13.3471 52.5409 13.3182L52.5443 13.2759Z" fill="white"/>
<path d="M52.2797 17.0063C52.2519 17.0097 52.242 17.0003 52.2506 16.9781C52.2585 16.956 52.2493 16.9466 52.2215 16.9499C52.2063 16.9661 52.1983 16.9815 52.197 16.9949L52.1732 17.0399L52.1719 17.0614L52.1924 17.0587L52.2552 17.0507C52.2691 17.0486 52.2764 17.0413 52.2777 17.0265L52.2791 17.005L52.2797 17.0063Z" fill="white"/>
<path d="M52.7782 16.3524C52.7683 16.2973 52.7147 16.2758 52.6181 16.2879C52.5625 16.2946 52.5202 16.3074 52.4917 16.3249C52.4884 16.3672 52.5003 16.3907 52.5281 16.394C52.5553 16.398 52.5751 16.4128 52.587 16.4397C52.6155 16.4222 52.6532 16.4175 52.7008 16.4256C52.7484 16.4336 52.7729 16.4236 52.7749 16.3954L52.7782 16.3524Z" fill="white"/>
<path d="M53.3174 12.2285C53.2916 12.2037 53.2598 12.1728 53.2215 12.1352C53.1831 12.0976 53.1355 12.0822 53.0805 12.0896C53.0666 12.0916 53.0528 12.0969 53.0382 12.1057C53.0243 12.1144 53.0097 12.1198 52.9959 12.1218C52.9925 12.1648 53.0005 12.2057 53.0177 12.246C53.0355 12.2856 53.0647 12.3111 53.105 12.3199L53.1255 12.3172C53.1533 12.3138 53.1778 12.3145 53.1976 12.3185C53.2181 12.3232 53.2413 12.3232 53.2691 12.3199C53.2969 12.3165 53.3114 12.3004 53.3134 12.2722L53.3167 12.2292L53.3174 12.2285Z" fill="white"/>
<path d="M53.4554 14.0703C53.4277 14.0736 53.4177 14.0716 53.425 14.0635C53.4323 14.0555 53.4217 14.0535 53.3946 14.0568L53.3741 14.0595C53.3463 14.0629 53.3337 14.0508 53.3357 14.0219C53.3053 14.0541 53.2603 14.0669 53.1987 14.0602C53.1372 14.0541 53.0975 14.087 53.079 14.1596C53.073 14.2448 53.0975 14.2838 53.1531 14.2771L53.2775 14.2616L53.3192 14.2562C53.3476 14.2388 53.3701 14.2113 53.3866 14.1737C53.4025 14.1367 53.4257 14.1025 53.4554 14.0703Z" fill="white"/>
<path d="M53.3891 14.9867C53.3911 14.9585 53.3778 14.9458 53.3507 14.9491L53.268 14.9592L53.2475 14.9619C53.2032 14.9961 53.1569 15.0297 53.1059 15.0639C53.0556 15.0989 53.0206 15.1526 53.002 15.2251C53.0007 15.2392 53.014 15.2446 53.0417 15.2412C53.0556 15.2392 53.0622 15.2459 53.0609 15.26C53.1026 15.2546 53.1476 15.2385 53.1979 15.211C53.2482 15.1835 53.2938 15.1673 53.3355 15.162L53.3772 15.1566L53.3977 15.1539L53.401 15.1116C53.4169 15.0814 53.4321 15.0653 53.4453 15.0633C53.4175 15.0666 53.4083 15.0539 53.4175 15.0243C53.4268 14.9955 53.4175 14.982 53.3897 14.9854L53.3891 14.9867Z" fill="white"/>
<path d="M53.4012 15.7038C53.3913 15.6487 53.3522 15.6259 53.2828 15.634C53.255 15.6373 53.2305 15.644 53.2093 15.6534C53.1875 15.6635 53.163 15.6695 53.1352 15.6729C53.0935 15.6783 53.0664 15.6742 53.0538 15.6622C53.0366 15.7065 53.0274 15.7427 53.0254 15.7716C53.0512 15.7964 53.0836 15.8173 53.124 15.8334C53.1643 15.8495 53.1842 15.8649 53.1828 15.879C53.212 15.8475 53.2483 15.822 53.2914 15.8025C53.3337 15.783 53.3701 15.7501 53.4012 15.7045V15.7038Z" fill="white"/>
<path d="M53.9692 11.7458L53.9725 11.7028C53.9745 11.6746 53.9619 11.6618 53.9341 11.6652C53.9063 11.6686 53.8852 11.6746 53.8713 11.6833C53.8567 11.6921 53.8355 11.6981 53.8084 11.7015L53.7879 11.7041C53.7588 11.7223 53.7423 11.7592 53.7383 11.8163L53.78 11.8109L53.8838 11.7981C53.9255 11.7928 53.954 11.7753 53.9698 11.7451L53.9692 11.7458Z" fill="white"/>
<path d="M54.1742 10.6003L54.1755 10.5789C54.1768 10.5648 54.1702 10.5587 54.1563 10.5601L54.1351 10.5627L54.1146 10.5654L54.0908 10.6104L54.1113 10.6077L54.1537 10.6024L54.1742 10.5997V10.6003Z" fill="white"/>
<path d="M54.416 15.3231L54.4193 15.2801C54.42 15.2667 54.4134 15.26 54.4001 15.2613L54.3578 15.2667C54.3545 15.3097 54.3737 15.3285 54.416 15.3231Z" fill="white"/>
<path d="M56.2848 9.27966L56.2657 9.26086C56.2518 9.26288 56.2445 9.27094 56.2432 9.28504L56.2623 9.30384L56.2829 9.30115L56.2842 9.27966H56.2848Z" fill="white"/>
<path d="M62.2384 14.9739L62.2397 14.9525C62.2417 14.9236 62.2291 14.9115 62.2013 14.9149L62.1597 14.9202L62.1391 14.9229C62.1378 14.937 62.1345 14.9444 62.1272 14.9457C62.12 14.9471 62.116 14.9545 62.1153 14.9686C62.114 14.9827 62.1272 14.988 62.155 14.9847L62.2172 14.9766L62.2377 14.9739H62.2384Z" fill="white"/>
<path d="M62.517 11.6222L62.5183 11.6007L62.5197 11.5792L62.4568 11.5873L62.4363 11.59C62.4343 11.6188 62.4231 11.6343 62.4019 11.637C62.3814 11.6397 62.3701 11.6484 62.3695 11.6618L62.3682 11.6833C62.3807 11.696 62.3946 11.7007 62.4079 11.6994C62.4628 11.6927 62.4992 11.6672 62.5164 11.6229L62.517 11.6222Z" fill="white"/>
<path d="M62.3498 13.6922L62.3511 13.6707C62.3525 13.6566 62.3386 13.6512 62.3108 13.6546C62.2559 13.6613 62.2268 13.6794 62.2248 13.7076C62.2235 13.7217 62.2301 13.7278 62.244 13.7264C62.2579 13.7244 62.2717 13.7197 62.2863 13.7103C62.3002 13.7016 62.3148 13.6962 62.3286 13.6942L62.3498 13.6915V13.6922Z" fill="white"/>
<path d="M62.1173 16.9748C62.1193 16.9466 62.0988 16.9352 62.0578 16.9399C62.0168 16.9446 61.9949 16.9546 61.9943 16.9687C61.9923 16.9976 62.0121 17.009 62.0532 17.0037C62.0948 16.9983 62.1167 16.9889 62.1173 16.9748Z" fill="white"/>
<path d="M62.9737 17.9658L62.9545 17.947L62.9558 17.9255C62.8447 17.9396 62.7441 17.9557 62.6541 17.9738C62.5628 17.9926 62.4874 18.0477 62.4259 18.1397C62.4239 18.1685 62.4537 18.182 62.5152 18.1813C62.5767 18.1813 62.6151 18.1793 62.629 18.1773C62.6839 18.1705 62.7335 18.1538 62.7765 18.1269C62.8195 18.1007 62.8685 18.0839 62.9247 18.0765C62.9373 18.0893 62.9505 18.0947 62.9644 18.0927L62.9657 18.0712L62.9704 18.0074L62.9737 17.9651V17.9658Z" fill="white"/>
<path d="M63.5124 10.3566C63.476 10.2908 63.4019 10.2646 63.2914 10.2787C63.2636 10.2821 63.2113 10.2928 63.1346 10.3089C63.0585 10.3257 63.0188 10.3486 63.0168 10.3768C63.0135 10.4191 63.0459 10.4506 63.1128 10.4708L63.2345 10.4976L63.2762 10.4922C63.304 10.4889 63.3172 10.4909 63.3172 10.4976C63.3172 10.505 63.3298 10.5063 63.3582 10.503L63.3807 10.4788L63.4641 10.4681C63.4799 10.4379 63.4912 10.4191 63.4991 10.411C63.5064 10.4029 63.511 10.3848 63.513 10.3566H63.5124Z" fill="white"/>
<path d="M63.9125 12.8415C63.9006 12.8153 63.8881 12.8026 63.8742 12.8039L63.7491 12.8194L63.7286 12.8221C63.7266 12.8509 63.722 12.865 63.7154 12.8657C63.7081 12.8664 63.7048 12.8744 63.7035 12.8885L63.7021 12.91L63.7227 12.9073L63.8265 12.8946C63.8689 12.8892 63.8967 12.8717 63.9132 12.8415H63.9125Z" fill="white"/>
<path d="M63.7518 15.3969L63.7551 15.3539L63.7121 15.3808C63.6837 15.3842 63.6599 15.3842 63.64 15.3795C63.6195 15.3748 63.5964 15.3741 63.5686 15.3774L63.5256 15.4043C63.5242 15.4184 63.5302 15.4318 63.5434 15.4446L63.5851 15.4392L63.7102 15.4238L63.7307 15.4211C63.7446 15.4191 63.7518 15.4117 63.7532 15.3969H63.7518Z" fill="white"/>
<path d="M64.4942 10.1491C64.4301 10.0867 64.3811 10.0545 64.3467 10.0511C64.313 10.0484 64.2885 10.0477 64.2746 10.0498C64.2468 10.0531 64.2309 10.0833 64.227 10.1397C64.2256 10.1538 64.2276 10.1753 64.2329 10.2028C64.2382 10.2304 64.2475 10.2431 64.2607 10.2418L64.2832 10.2176C64.2958 10.2304 64.3017 10.2438 64.3011 10.2579L64.3216 10.2552L64.4466 10.2398C64.4737 10.2364 64.4889 10.2203 64.4909 10.1921L64.4942 10.1498V10.1491Z" fill="white"/>
<path d="M63.9676 17.8839C63.9418 17.859 63.9008 17.8537 63.8452 17.8678C63.789 17.8819 63.748 17.8839 63.7208 17.8725C63.7188 17.9013 63.7109 17.9161 63.697 17.9174C63.6831 17.9195 63.6752 17.9349 63.6732 17.9631L63.6719 17.9846C63.6997 17.9812 63.7083 18.0014 63.6983 18.0443C63.6884 18.088 63.7175 18.1054 63.7877 18.0967C63.8148 18.0934 63.8538 18.0746 63.9048 18.0396C63.955 18.0054 63.9815 17.9738 63.9835 17.9456C63.9848 17.9316 63.9822 17.9215 63.9755 17.9148C63.9689 17.9087 63.9663 17.8986 63.9676 17.8839Z" fill="white"/>
<path d="M65.1189 5.38544C65.146 5.3324 65.1248 5.29547 65.0547 5.27466C65.0262 5.2666 64.9918 5.26392 64.9502 5.2666C64.9078 5.26929 64.8589 5.26258 64.8026 5.24579C64.7887 5.24176 64.7828 5.23639 64.7867 5.22968C64.79 5.22296 64.7848 5.21759 64.7709 5.21356C64.7504 5.25318 64.7609 5.28742 64.8033 5.31495C64.8456 5.34315 64.8946 5.3653 64.9515 5.38209C65.0216 5.4029 65.0772 5.40424 65.1189 5.38612V5.38544Z" fill="white"/>
<path d="M63.1818 8.97613C63.1679 8.97211 63.1586 8.96539 63.1553 8.95666C63.1514 8.94793 63.1428 8.94122 63.1289 8.93719L63.1077 8.93115C63.0654 8.91839 63.023 8.91369 62.9813 8.91638C62.9397 8.91906 62.9013 8.92376 62.8662 8.92846C62.8662 8.95935 62.9158 8.98889 63.0144 9.01843C63.0422 9.02649 63.0792 9.03388 63.1242 9.03992C63.1699 9.04596 63.199 9.03589 63.2129 9.00903C63.2056 8.99158 63.195 8.98083 63.1811 8.97681L63.1818 8.97613Z" fill="white"/>
<path d="M65.6021 4.10974L65.612 4.0896L65.5908 4.08356L65.485 4.052L65.4638 4.04596C65.4572 4.05939 65.4678 4.07013 65.4962 4.07819L65.5803 4.10303L65.6014 4.10907L65.6021 4.10974Z" fill="white"/>
<path d="M66.7421 2.5487C66.7071 2.52319 66.678 2.49902 66.6574 2.47753C66.6356 2.45605 66.6039 2.43859 66.5622 2.4265C66.5059 2.40972 66.4748 2.40838 66.4682 2.42113C66.4543 2.44799 66.4735 2.47283 66.5271 2.49566C66.5794 2.51916 66.6197 2.5346 66.6482 2.54333C66.6899 2.55609 66.721 2.55743 66.7428 2.54803L66.7421 2.5487Z" fill="white"/>
<path d="M67.0878 1.82691L67.0977 1.80677V1.76111L67.0554 1.74835L67.0342 1.74231L66.9925 1.77588C66.9859 1.78931 66.9892 1.79804 67.0038 1.80207L67.0666 1.82087L67.0878 1.82691Z" fill="white"/>
<path d="M66.8184 3.48729C66.7549 3.45305 66.7145 3.41478 66.6967 3.37114C66.6781 3.3275 66.6345 3.29527 66.5643 3.27445C66.5359 3.2664 66.5068 3.26103 66.475 3.25968C66.4433 3.25834 66.4214 3.27043 66.4075 3.29728L66.3566 3.39665L66.3467 3.41679C66.3546 3.49602 66.4214 3.55376 66.5485 3.59136C66.5974 3.59136 66.6636 3.60278 66.7476 3.62762C66.8462 3.65716 66.9322 3.70148 67.0063 3.7619C67.0804 3.82233 67.1393 3.88947 67.1823 3.96333C67.2378 3.98011 67.2769 3.9687 67.2974 3.92909C67.3106 3.9029 67.3205 3.86732 67.3265 3.823C67.3331 3.77936 67.3285 3.75519 67.3152 3.75116L67.2941 3.74512C67.2511 3.67126 67.1737 3.62561 67.0619 3.60681C66.9501 3.58868 66.8687 3.54974 66.8191 3.48864L66.8184 3.48729Z" fill="white"/>
<path d="M68.1784 6.18103C68.1916 6.12396 68.1559 6.083 68.0719 6.05749L67.9244 6.01384L67.8615 5.99504C67.7775 6.00109 67.7113 6.00444 67.663 6.00511C67.6141 6.00579 67.5691 6.0454 67.5281 6.1253C67.4798 6.15686 67.3858 6.17431 67.2462 6.17901C67.1066 6.18304 66.9631 6.17901 66.8162 6.16558C66.6693 6.15283 66.5416 6.14141 66.4331 6.13201C66.3246 6.12261 66.2777 6.11993 66.2915 6.12396C66.1811 6.21325 66.0309 6.23743 65.8423 6.19647C65.6531 6.15551 65.5228 6.12463 65.4527 6.10381C65.411 6.09106 65.3772 6.06957 65.3528 6.03936C65.3276 6.00914 65.2873 5.98564 65.2317 5.96886C65.2171 5.96483 65.1907 5.9608 65.1523 5.95677C65.1139 5.95342 65.0881 5.96416 65.0742 5.99102L65.1166 6.00377L65.1377 6.00981C65.1238 6.03667 65.1384 6.05547 65.1807 6.06823L65.1907 6.04809C65.2184 6.05614 65.2376 6.05816 65.2482 6.05346C65.2581 6.04876 65.2773 6.05077 65.3058 6.05883C65.3759 6.07964 65.4335 6.12396 65.4811 6.1911C65.5267 6.25824 65.5578 6.32471 65.5731 6.38984C65.63 6.43751 65.7054 6.47846 65.8 6.51472C65.8939 6.55098 65.9634 6.60603 66.0071 6.67922C66.0223 6.77523 66.0772 6.85647 66.1731 6.92294C66.2684 6.98941 66.2783 7.0955 66.2036 7.24119L66.1427 7.36071C66.0951 7.45336 66.1063 7.51043 66.1771 7.53125C66.2466 7.55206 66.3359 7.58227 66.4457 7.62256C66.5542 7.66284 66.6541 7.7038 66.7461 7.7461C66.8374 7.7884 66.9108 7.83338 66.9677 7.88105C67.0239 7.92872 67.0391 7.97841 67.012 8.03145C66.9915 8.07107 66.9234 8.09322 66.8083 8.09658C66.6925 8.10061 66.5707 8.09456 66.4411 8.07912C66.3114 8.06368 66.191 8.05428 66.0792 8.05159C65.9667 8.04891 65.9052 8.06099 65.8913 8.08718C65.8509 8.16641 65.8251 8.23153 65.8159 8.28189C65.8059 8.33292 65.7841 8.39066 65.7504 8.45713L65.7299 8.49674L65.7722 8.5095C65.7861 8.51353 65.8159 8.5189 65.8615 8.52427C65.9072 8.53031 65.933 8.52629 65.9396 8.51286C65.9799 8.43363 66.0547 8.39805 66.1632 8.40745C66.271 8.41685 66.3994 8.4202 66.5456 8.41819C66.6918 8.4155 66.8367 8.38663 66.9789 8.32956C67.1205 8.27249 67.2502 8.13216 67.366 7.90657C67.4202 7.80048 67.3904 7.70783 67.278 7.6286C67.1648 7.5487 67.1357 7.45672 67.19 7.35063C67.2105 7.31102 67.1344 7.23112 66.9611 7.11094C66.7884 6.99076 66.6389 6.9122 66.5125 6.8746C66.4695 6.83163 66.4444 6.77792 66.4364 6.7148C66.4285 6.65169 66.4311 6.6067 66.445 6.58052C66.4861 6.50062 66.5602 6.46571 66.6687 6.47511C66.7772 6.48451 66.8737 6.50129 66.9578 6.52613C67.0425 6.55098 67.1172 6.58522 67.1847 6.62819C67.2515 6.67116 67.2826 6.72957 67.2767 6.8041C67.3336 6.88266 67.3984 6.95114 67.4738 7.01157C67.5472 7.072 67.5545 7.1613 67.493 7.28081C67.5499 7.32848 67.6008 7.37816 67.6471 7.42986C67.6935 7.48156 67.751 7.51782 67.8211 7.53863C67.8913 7.55945 67.9508 7.56952 67.9998 7.56885C68.0487 7.56885 68.1076 7.57825 68.1784 7.59906C68.2479 7.61987 68.2902 7.6474 68.3054 7.68231C68.32 7.71723 68.3484 7.74073 68.3901 7.75349C68.4457 7.77027 68.5562 7.76893 68.7202 7.74879C68.8843 7.72864 68.973 7.70581 68.9869 7.67896C69.0001 7.65277 69.0014 7.63397 68.9915 7.62256C68.9803 7.61182 68.9822 7.59302 68.9961 7.56683L69.0061 7.54669C68.971 7.52117 68.9181 7.49768 68.8479 7.47686C68.7494 7.44732 68.6488 7.4406 68.5436 7.4547C68.4391 7.46948 68.3517 7.46679 68.2816 7.44598C68.1691 7.41241 68.06 7.33385 67.9528 7.21098C67.8463 7.08744 67.8172 6.98001 67.8648 6.88736L67.8853 6.84774C67.8701 6.78194 67.8251 6.73495 67.7523 6.70473C67.6782 6.67519 67.6081 6.64699 67.5413 6.61946C67.4745 6.59193 67.4182 6.55971 67.3726 6.52345C67.3263 6.48652 67.3236 6.42878 67.3646 6.34955C67.4321 6.21728 67.5314 6.16626 67.661 6.19714C67.7907 6.22803 67.8979 6.25623 67.9819 6.28107C68.0659 6.30591 68.1169 6.35559 68.1361 6.43012C68.1539 6.50398 68.1711 6.58925 68.187 6.68526C68.2022 6.78127 68.2267 6.86856 68.2591 6.94711C68.2915 7.02567 68.3498 7.0767 68.4344 7.10221C68.5463 7.13511 68.6389 7.1284 68.711 7.0814C68.7838 7.0344 68.8618 6.97733 68.9445 6.91018C69.0272 6.84304 69.1258 6.79269 69.2403 6.75777C69.3554 6.72286 69.5109 6.73495 69.7073 6.79336L69.7914 6.8182C69.798 6.80544 69.8086 6.80074 69.8225 6.80477C69.8364 6.8088 69.8542 6.80679 69.8747 6.79739C69.8734 6.7054 69.8483 6.6443 69.7986 6.61476C69.749 6.58522 69.6822 6.55702 69.5982 6.53218C69.5281 6.51136 69.4533 6.51606 69.3732 6.54493C69.2932 6.57515 69.2138 6.61208 69.1344 6.65706C69.0544 6.70205 68.9743 6.73965 68.8949 6.76919C68.8149 6.7994 68.7335 6.80142 68.6495 6.77657C68.5231 6.73897 68.4344 6.65169 68.3835 6.51405C68.3326 6.37708 68.2644 6.26495 68.1797 6.17834L68.1784 6.18103Z" fill="white"/>
<path d="M65.6849 6.79C65.6432 6.8088 65.587 6.80678 65.5175 6.78597C65.4189 6.75643 65.3627 6.71681 65.3482 6.66646C65.3329 6.6161 65.284 6.57917 65.1993 6.55366C65.0868 6.52009 65.0107 6.52814 64.9697 6.57649C64.971 6.66847 65.0134 6.72688 65.0974 6.75173C65.1113 6.75575 65.1272 6.7571 65.1444 6.75441C65.1616 6.75173 65.1847 6.75441 65.2132 6.76314L65.2344 6.76918C65.2483 6.77321 65.2602 6.77321 65.2707 6.76918C65.2807 6.76448 65.2932 6.76448 65.3071 6.76918C65.3495 6.78194 65.3726 6.8229 65.3766 6.89272C65.3806 6.96255 65.3806 7.00485 65.374 7.01761C65.3601 7.04446 65.3362 7.06796 65.3012 7.08743C65.2668 7.10758 65.239 7.13779 65.2185 7.1774L65.198 7.21702C65.3521 7.26267 65.4692 7.2714 65.5493 7.24119C65.6293 7.21165 65.7279 7.14518 65.845 7.04312C65.8649 6.97262 65.8113 6.88802 65.6842 6.78933L65.6849 6.79Z" fill="white"/>
<path d="M64.5841 8.13422C64.5411 8.09058 64.4922 8.06104 64.436 8.04425C64.3235 8.01068 64.258 8.01404 64.2375 8.05432C64.2103 8.10736 64.2143 8.14698 64.2494 8.17249C64.2706 8.19465 64.295 8.20942 64.3228 8.21748C64.3367 8.22151 64.3546 8.21949 64.3751 8.21009C64.3956 8.20136 64.4201 8.20069 64.4485 8.20942L64.4697 8.21546C64.4968 8.19331 64.5173 8.18391 64.5319 8.18861C64.5458 8.19263 64.5597 8.18189 64.5729 8.15504L64.5828 8.13489L64.5841 8.13422Z" fill="white"/>
<path d="M67.1191 2.52319C67.1264 2.54065 67.1363 2.55139 67.1509 2.55542L67.2032 2.54804L67.1191 2.52319Z" fill="white"/>
<path d="M66.1067 5.58749C66.1338 5.53444 66.1186 5.49953 66.063 5.48275C66.0213 5.46999 65.9631 5.46462 65.8903 5.46596C65.8169 5.4673 65.7633 5.50087 65.7289 5.56667C65.715 5.59353 65.7243 5.61501 65.7567 5.6318C65.7878 5.64926 65.8182 5.66134 65.846 5.67007C65.8877 5.68283 65.928 5.67544 65.9658 5.64859C66.0035 5.62173 66.0504 5.60159 66.1067 5.58749Z" fill="white"/>
<path d="M64.9492 7.32715L64.9796 7.2674C64.9935 7.24054 64.9929 7.2251 64.9796 7.22107C64.9446 7.22577 64.9208 7.24188 64.9069 7.26807C64.8864 7.30768 64.8831 7.32984 64.8976 7.33387C64.9115 7.3379 64.9201 7.33722 64.9234 7.33051C64.9267 7.3238 64.9353 7.32245 64.9492 7.32715Z" fill="white"/>
<path d="M66.981 5.20681C66.9936 5.14974 66.94 5.08058 66.8209 4.99867C66.7011 4.91742 66.5986 4.86371 66.5146 4.83887C66.3882 4.80127 66.3049 4.82208 66.2638 4.90198L66.2539 4.92212L66.2751 4.92817C66.3313 4.97584 66.3948 5.00941 66.4656 5.03022C66.5351 5.05104 66.5675 5.09871 66.5615 5.17323C66.6456 5.16786 66.7223 5.18331 66.7931 5.21889C66.8632 5.25515 66.9261 5.25112 66.9817 5.20613L66.981 5.20681Z" fill="white"/>
<path d="M64.7071 8.74317C64.7137 8.73042 64.7223 8.72102 64.7329 8.71632C64.7435 8.71162 64.7521 8.70289 64.7587 8.68946C64.7792 8.64985 64.7686 8.62366 64.7263 8.6109C64.6839 8.59815 64.6555 8.57465 64.6416 8.53973C64.5159 8.56323 64.4186 8.59613 64.3498 8.63575C64.3293 8.67536 64.3439 8.71094 64.3928 8.74049C64.4418 8.74049 64.4921 8.74317 64.545 8.75123C64.5973 8.75929 64.6515 8.7566 64.7071 8.7425V8.74317Z" fill="white"/>
<path d="M65.9786 7.58765C65.9991 7.54804 65.976 7.52185 65.9098 7.50977C65.843 7.49768 65.7993 7.4809 65.7775 7.45941C65.7636 7.48627 65.7431 7.495 65.7153 7.48694L65.6736 7.47418C65.5896 7.48023 65.5307 7.50775 65.497 7.55878C65.4626 7.60981 65.4288 7.66822 65.3951 7.73469C65.3197 7.81862 65.2224 7.87435 65.104 7.89986C64.9856 7.92605 64.9201 7.95223 64.9062 7.97842C64.8585 8.07107 64.8837 8.13217 64.9823 8.16104C65.0107 8.1691 65.0332 8.17246 65.0504 8.16977C65.0676 8.16709 65.0901 8.16977 65.1192 8.1785L65.1609 8.19126C65.1814 8.18253 65.2059 8.15097 65.233 8.09793L65.3045 7.95895C65.3448 7.87972 65.4176 7.84749 65.5228 7.86361C65.6273 7.87972 65.7219 7.88509 65.8059 7.87905L65.8159 7.85891C65.8364 7.85018 65.8503 7.83876 65.8575 7.82533L65.8781 7.78572C65.8913 7.75954 65.9125 7.75014 65.9402 7.75886C65.9402 7.72865 65.9515 7.69709 65.9753 7.66621C65.9991 7.63532 66.0004 7.60914 65.9793 7.58765H65.9786Z" fill="white"/>
<path d="M65.4592 8.60083L65.4691 8.58069C65.4757 8.56793 65.4638 8.55988 65.4321 8.55853C65.4003 8.55719 65.3811 8.54712 65.3738 8.52966C65.3044 8.56995 65.2362 8.57666 65.1694 8.54913C65.1026 8.52161 65.0457 8.55451 64.998 8.64716C65.096 8.67603 65.176 8.67737 65.2395 8.64985C65.3017 8.62299 65.3745 8.6062 65.4585 8.60083H65.4592Z" fill="white"/>
<path d="M67.3842 5.55531C67.3842 5.52509 67.3392 5.49219 67.2519 5.45862C67.1632 5.42505 67.1407 5.41431 67.1831 5.42639C67.113 5.40558 67.0435 5.43109 66.9747 5.50226C66.9059 5.57343 66.8225 5.60969 66.7246 5.61103C66.7398 5.67683 66.7894 5.72182 66.8735 5.74733C66.9859 5.7809 67.1063 5.7903 67.2354 5.77486C67.3637 5.76009 67.4391 5.73256 67.4596 5.69295L67.4491 5.66676C67.4557 5.654 67.4623 5.64796 67.4696 5.64998C67.4762 5.65199 67.4835 5.64662 67.4901 5.63319C67.4755 5.62916 67.4676 5.6305 67.4643 5.63655C67.461 5.64326 67.4517 5.64393 67.4378 5.6399C67.4239 5.63588 67.4219 5.62379 67.4319 5.60365C67.4418 5.58351 67.4332 5.57008 67.4054 5.56135L67.3842 5.55531Z" fill="white"/>
<path d="M67.6677 4.90736C67.5975 4.88654 67.5413 4.85499 67.4983 4.81135C67.4553 4.7677 67.4024 4.72943 67.3402 4.69519L67.3197 4.7348C67.2859 4.80127 67.323 4.8617 67.4321 4.91676C67.5413 4.97181 67.6002 5.03896 67.6081 5.11818C67.6432 5.11348 67.6882 5.12691 67.7451 5.15914C67.8013 5.19137 67.843 5.18063 67.8701 5.12758C67.8761 5.05306 67.8509 5.0074 67.7947 4.99061C67.7384 4.97383 67.6961 4.9463 67.6677 4.90736Z" fill="white"/>
<path d="M68.6617 3.394C68.6537 3.37654 68.6365 3.36378 68.6081 3.35506C68.5796 3.347 68.5591 3.35573 68.5459 3.38258C68.5459 3.41347 68.5677 3.43495 68.6101 3.44771C68.6167 3.43495 68.6253 3.42555 68.6359 3.42085C68.6458 3.41615 68.6551 3.40743 68.6617 3.394Z" fill="white"/>
<path d="M67.1734 8.99561C67.1589 8.9607 67.1251 8.93921 67.0729 8.93115C67.0199 8.9231 66.9836 8.90833 66.9624 8.88684C66.9558 8.90027 66.9558 8.90765 66.9624 8.90967C66.969 8.91168 66.9697 8.91974 66.9624 8.9325C66.9485 8.95935 66.9313 8.96875 66.9108 8.96271C66.8903 8.95667 66.8757 8.9607 66.8691 8.97345C66.8625 8.98688 66.8731 8.99762 66.9009 9.00568C66.9988 9.03455 67.0894 9.0312 67.1734 8.99494V8.99561Z" fill="white"/>
<path d="M69.5486 6.0159C69.4785 5.99509 69.4342 5.96286 69.4163 5.91922C69.3978 5.87558 69.3866 5.82656 69.3826 5.77151C69.378 5.71712 69.3634 5.66676 69.3383 5.62111C69.3131 5.57545 69.2655 5.54188 69.1954 5.52107C69.1669 5.51301 69.1186 5.52107 69.0492 5.54658C68.9797 5.57142 68.9036 5.60231 68.8196 5.63857C68.7369 5.67482 68.6396 5.72249 68.5285 5.78091L68.5186 5.80105C68.631 5.83462 68.7349 5.82723 68.8328 5.77956C68.9294 5.73256 69.02 5.72115 69.1041 5.74599C69.2026 5.77553 69.2662 5.8326 69.2953 5.9172C69.3244 6.00247 69.3813 6.05753 69.4653 6.08237C69.4937 6.09043 69.5209 6.06827 69.548 6.01523L69.5486 6.0159Z" fill="white"/>
<path d="M68.9755 6.18913C68.9537 6.16765 68.947 6.15019 68.9537 6.13676C68.9603 6.12401 68.9563 6.11461 68.9431 6.11058C68.9146 6.10185 68.8868 6.12468 68.8597 6.17772C68.8392 6.21733 68.8366 6.23949 68.8505 6.24352C68.9067 6.2603 68.9418 6.2556 68.9556 6.22875L68.9761 6.18913H68.9755Z" fill="white"/>
<path d="M67.9417 9.24677C67.9549 9.1897 67.9119 9.14672 67.814 9.11718C67.7578 9.1004 67.7121 9.09503 67.677 9.09905C67.6565 9.13867 67.6585 9.1662 67.6837 9.18097C67.7081 9.19641 67.7207 9.21924 67.7214 9.24945C67.7558 9.24475 67.7941 9.25617 67.8372 9.28369C67.8795 9.31189 67.9073 9.31256 67.9205 9.28571L67.941 9.24609L67.9417 9.24677Z" fill="white"/>
<path d="M70.1486 5.50764C70.1341 5.47273 70.1162 5.42908 70.0944 5.37738C70.0725 5.32501 70.0335 5.2901 69.9773 5.27399C69.9634 5.26996 69.9475 5.26929 69.9303 5.2713C69.9131 5.27399 69.8972 5.27264 69.8833 5.26862C69.8628 5.30823 69.8529 5.3512 69.8535 5.39753C69.8542 5.44318 69.8721 5.47944 69.9071 5.50495L69.9283 5.511C69.9568 5.51905 69.9799 5.53047 69.9971 5.54323C70.015 5.55598 70.0375 5.56672 70.0653 5.57478C70.0937 5.58284 70.1142 5.57478 70.1274 5.54792L70.148 5.50831L70.1486 5.50764Z" fill="white"/>
<path d="M69.5269 7.33721C69.4985 7.32915 69.4899 7.32244 69.5004 7.31774C69.5104 7.31304 69.5018 7.30699 69.474 7.29826L69.4528 7.29222C69.4244 7.28416 69.4177 7.26671 69.431 7.23985C69.3886 7.25798 69.3397 7.25126 69.2834 7.21904C69.2272 7.18748 69.1749 7.20225 69.1273 7.26402C69.087 7.34325 69.0936 7.39159 69.1505 7.40838L69.2768 7.44598L69.3192 7.45873C69.3536 7.45403 69.3867 7.43725 69.4178 7.40771C69.4482 7.37883 69.4846 7.35533 69.5263 7.33721H69.5269Z" fill="white"/>
<path d="M69.0882 8.19196C69.1014 8.16577 69.0941 8.14765 69.0664 8.13959L68.9823 8.11475L68.9612 8.1087C68.9049 8.1228 68.8461 8.13556 68.7832 8.14765C68.7204 8.15973 68.6648 8.19666 68.6171 8.25843C68.6105 8.27186 68.6211 8.2826 68.6489 8.29066C68.6628 8.29469 68.6661 8.30341 68.6595 8.31684C68.7012 8.3296 68.7521 8.33296 68.811 8.32759C68.8705 8.32221 68.9215 8.32624 68.9632 8.33833L69.0055 8.35109L69.0267 8.35713L69.0472 8.31751C69.0743 8.29469 69.0961 8.28596 69.1094 8.28999C69.0809 8.28193 69.0776 8.26514 69.0981 8.24097C69.1186 8.2168 69.1153 8.20002 69.0869 8.19196H69.0882Z" fill="white"/>
<path d="M68.8057 8.88551C68.8189 8.82844 68.7905 8.78949 68.7203 8.76868C68.6919 8.76062 68.6661 8.75659 68.6416 8.75659C68.6165 8.75659 68.5907 8.75257 68.5622 8.74451C68.5205 8.73175 68.4954 8.71698 68.4881 8.69952C68.4537 8.73511 68.4299 8.76599 68.416 8.79285C68.4306 8.82776 68.4537 8.86134 68.4855 8.89356C68.5172 8.92579 68.5305 8.94929 68.5239 8.96205C68.5649 8.94392 68.6105 8.93452 68.6595 8.93385C68.7084 8.93385 68.7567 8.91706 68.805 8.88551H68.8057Z" fill="white"/>
<path d="M70.9737 5.31763L70.9943 5.27802C71.0075 5.25183 71.0009 5.23438 70.9724 5.22565C70.944 5.21759 70.9215 5.21423 70.9043 5.21692C70.8864 5.2196 70.8639 5.21692 70.8361 5.20819L70.815 5.20215C70.7792 5.20685 70.7481 5.23639 70.7217 5.28876L70.764 5.30152L70.8692 5.33307C70.9109 5.34583 70.946 5.34113 70.9737 5.3183V5.31763Z" fill="white"/>
<path d="M68.5672 1.74096L68.3138 1.22733H68.0862V1.74096H67.9043V0.521667H68.3701C68.5976 0.521667 68.7432 0.670722 68.7432 0.877519C68.7432 1.05209 68.6387 1.16354 68.5037 1.20114L68.7802 1.74029H68.5679L68.5672 1.74096ZM68.3562 0.688179H68.0862V1.07022H68.3562C68.4779 1.07022 68.5606 0.999716 68.5606 0.880204C68.5606 0.760692 68.4779 0.688179 68.3562 0.688179Z" fill="white"/>
<path d="M68.2679 2.31773C67.638 2.31773 67.126 1.79806 67.126 1.15887C67.126 0.519677 67.638 0 68.2679 0C68.8977 0 69.4098 0.519677 69.4098 1.15887C69.4098 1.79806 68.8977 2.31773 68.2679 2.31773ZM68.2679 0.127569C67.7075 0.127569 67.2517 0.590176 67.2517 1.15887C67.2517 1.72756 67.7075 2.19016 68.2679 2.19016C68.8283 2.19016 69.2841 1.72756 69.2841 1.15887C69.2841 0.590176 68.8283 0.127569 68.2679 0.127569Z" fill="white"/>
</g>
<defs>
<clipPath id="clip0_80_470">
<rect width="71" height="31" fill="white"/>
</clipPath>
</defs>
</svg>
