<svg width="60" height="33" viewBox="0 0 60 33" fill="none" xmlns="http://www.w3.org/2000/svg">
<g clip-path="url(#clip0_80_667)">
<path d="M3.86257 23.6133C3.1195 24.4564 3.27638 25.8103 3.59444 26.4089C4.66555 28.4229 7.34261 28.0922 7.66138 28.0427C9.78078 27.7113 9.92554 26.1206 9.96191 25.7863C10.1295 24.2422 8.99706 23.1151 7.46598 22.0911L5.70956 20.9287C4.2334 19.9337 3.45823 19.2108 2.95548 18.567C2.41493 17.8759 1.99348 16.8378 1.99348 15.8859C1.99348 12.6387 4.8966 9.33789 9.45417 9.33789C10.7884 9.33789 13.5725 9.67851 13.5725 12.6133C13.5725 15.5481 10.9603 15.5905 10.8604 15.6011C10.4554 15.6442 10.1915 15.4329 10.4269 15.2244C10.7841 14.9093 10.8868 14.4895 10.8868 14.1199C10.8868 12.3229 9.33507 11.8006 8.21619 11.8049C6.03546 11.8141 5.37296 13.3178 5.34801 14.1058C5.3316 14.6273 5.5705 15.1241 5.95915 15.5905C6.79778 16.5961 10.4169 19.0185 10.4169 19.0185C12.2382 20.2298 13.2095 21.6756 13.2473 23.4296C13.3771 29.4779 7.56938 30.3641 5.74735 30.3641C2.65597 30.3641 0.174301 29.0575 0.00315125 26.4223C-0.0360705 25.8174 0.242047 22.9752 3.65577 23.0345C4.4295 23.048 3.95884 23.5045 3.86186 23.614L3.86257 23.6133Z" fill="#2D2D2D"/>
<path d="M27.1416 20.4065C27.3712 19.3422 27.5759 17.5628 27.6301 16.517C27.6315 16.4837 27.6365 16.406 27.5952 16.3474C27.5616 16.2993 27.5032 16.2555 27.5032 16.2527C26.9669 15.758 25.5656 15.5587 24.6999 17.1925C23.7521 18.9818 23.6245 21.1223 24.0873 22.1208C24.3412 22.6692 24.8033 22.954 25.3017 22.8819C26.3336 22.7328 26.9148 21.4566 27.1409 20.4072L27.1416 20.4065ZM58.2858 22.6063C58.4142 22.4925 58.9383 21.8452 58.3108 21.1859C57.6354 20.4764 55.6473 20.1938 52.9816 21.282C53.12 21.4354 53.9999 22.5081 55.6523 22.9667C56.0017 23.0635 57.4607 23.3377 58.2858 22.6056V22.6063ZM21.0879 23.7829C19.6089 26.7856 17.1137 27.0527 16.9547 27.0612C16.0747 27.1064 15.1291 26.8569 14.6762 25.674C14.4865 25.1786 14.4124 24.4175 14.4273 23.5434C14.5136 22.0671 14.8131 18.1395 14.8367 17.7459C14.5286 17.8328 14.0216 17.9882 13.7755 18.0243C13.6301 18.0455 12.7843 18.2879 12.9711 17.3268C13.0703 16.8166 13.4718 16.146 13.956 15.9227C14.053 15.8781 14.3731 15.7651 14.9857 15.6046C14.9936 15.6025 14.9978 15.5997 14.9978 15.599C15.0014 15.5516 15.1533 13.1893 15.2881 12.5815C15.3851 12.1434 15.6746 11.8374 15.8514 11.7173C16.4476 11.3109 17.0837 10.983 17.784 10.8233C17.968 10.7816 18.9578 10.6226 18.8687 11.3251C18.7396 12.337 18.4743 14.8407 18.4743 14.8407C18.4743 14.8407 20.5531 14.3758 21.5229 13.9638C21.9921 13.7645 21.883 14.1468 21.8552 14.2648C21.739 14.7588 21.4701 15.3078 20.8141 15.8251C19.7294 16.6795 18.2818 16.936 18.2782 16.9671C18.0172 19.2115 17.8168 22.2396 17.8061 22.7434C17.7876 23.6324 17.8525 24.5482 18.5649 24.4649C19.4299 24.3631 20.3762 22.4445 20.4846 21.7074L20.4875 21.6778C20.5894 19.7789 21.0366 18.4766 21.192 18.1091C22.1654 15.8131 23.9525 14.2351 25.7574 14.2351C25.9222 14.2351 26.7936 14.2083 27.7806 14.8125C27.7991 14.8238 27.8134 14.8217 27.8141 14.821C29.0678 13.5588 30.1724 13.4352 30.2836 13.4302C31.1793 13.3914 31.046 14.2584 31.0367 14.4245C31.0103 14.9079 30.8014 16.5926 30.6801 18.0836C30.6466 18.4935 30.238 21.5117 31.4867 21.5117C32.3617 21.5117 32.9464 20.169 33.0327 19.9733C33.5397 18.8242 33.8935 17.4335 33.9783 16.6816C33.979 16.6745 32.7225 16.3488 32.9628 14.1722C33.1226 12.7186 33.8435 12.1293 34.4197 12.072C34.8783 12.0268 35.4138 12.1688 35.5408 13.7334C35.5422 13.7489 35.5486 13.8394 35.5557 13.8966C35.5693 14.0033 35.5957 14.0196 35.6427 14.0274C35.7383 14.0422 35.9066 13.8783 35.9686 13.8281C36.2703 13.5843 36.6611 13.1744 36.89 12.9624C38.4125 11.5512 39.1599 11.6374 39.3132 11.6346C39.9849 11.6226 40.3408 11.9907 40.4528 12.4183C40.6268 13.0833 40.4463 14.1998 40.3971 14.5468C40.3258 15.0492 40.0413 17.2208 39.9685 18.1211C39.9165 18.7592 39.9079 19.3917 40.3451 19.3917C41.1267 19.3917 41.9938 17.6073 42.1978 17.1445C42.5736 16.2922 42.8759 15.2803 43.0507 14.2796C43.2532 13.1193 43.3003 11.9915 43.3452 11.4176C43.5113 9.29551 43.4215 7.1218 43.2839 6.53597C43.2568 6.42149 43.122 6.10703 43.3509 5.77277C43.604 5.40248 44.2815 4.83856 45.3769 4.39336C45.6065 4.30008 46.1214 4.07818 46.4608 4.06829C46.6947 4.06122 46.9072 4.0902 47.022 4.24566C47.1326 4.39548 47.1511 4.66472 47.1468 5.00321C47.1383 5.74875 46.6127 11.4063 46.6027 11.4205C49.2149 7.4716 51.7636 8.18746 52.0859 8.30547C53.2604 8.73513 53.4016 9.92233 53.3788 10.4375C53.2597 12.643 52.1729 14.2973 50.2247 15.4612C50.0863 15.5439 49.9544 15.6796 50.0507 15.8845C50.8116 17.8773 51.8021 19.4807 52.2606 20.1196L52.2635 20.128C57.7517 18.3564 59.2528 19.9683 59.6678 20.5852C60.3696 21.6269 59.7991 22.8918 59.3926 23.4473C58.8221 24.226 57.7495 24.9256 55.7364 25.1065C52.2357 25.4203 49.9886 22.542 49.9886 22.542C48.9275 23.0225 44.5019 24.9185 38.8454 27.1947C37.0176 27.9304 25.8558 32.8756 19.7394 32.9979C16.536 33.0622 14.7839 32.0799 14.1956 29.9479C13.9631 29.1048 14.2006 28.9579 14.3674 29.1296C16.0711 30.8779 20.9567 30.056 27.1601 28.4731C37.0255 25.9559 49.2541 21.1082 49.2634 21.1032H49.2677C49.2677 21.1032 47.3922 18.3352 46.9957 16.2032C46.9243 15.823 46.9842 15.6887 47.3608 15.5538C47.9263 15.351 49.8724 14.0309 50.1313 11.9505C50.2154 11.3364 49.9786 10.7244 49.4224 10.641C49.1001 10.593 48.0618 10.7831 47.0869 12.6776C46.5571 13.7072 46.3881 14.7778 46.331 15.358C46.2747 15.9333 46.2348 16.5085 46.2034 17.0802C46.1898 17.3339 46.1734 18.1381 46.1905 18.8475C46.1977 19.1309 46.3218 20.0256 45.804 20.3386C45.5837 20.4715 45.0709 20.7541 43.7638 20.9237C43.2083 20.9958 42.8588 20.7167 42.841 20.2906C42.8103 19.5669 42.9423 18.2264 42.9423 18.2264C42.9423 18.2264 42.9337 18.2448 42.9294 18.2539C41.2137 21.9413 39.0044 22.1816 38.5002 22.1576C38.3654 22.1512 36.5363 22.2099 36.8636 19.1048C37.0091 17.7289 37.253 15.8181 37.3564 15.211C37.3621 15.151 37.4277 14.8132 37.3514 14.7892C37.3072 14.7757 37.2244 14.8231 37.0989 14.9524C36.6447 15.4209 36.3195 15.8993 35.4695 16.3361C35.4523 16.3445 35.4452 16.3544 35.4445 16.3587C35.227 18.1684 34.7321 19.6206 34.3463 20.5259C34.2115 20.8425 33.1432 23.9737 30.4227 23.9737C28.5885 23.9737 27.9153 22.4834 27.9196 22.4742C26.4991 25.64 22.7231 26.7036 21.1036 23.7469C21.1036 23.7469 21.0915 23.773 21.0858 23.7843L21.0879 23.7829Z" fill="#2D2D2D"/>
<path d="M9.07861 8.31186C8.57015 8.51255 8.23783 8.49276 7.76218 8.2631C5.63993 7.24125 3.32014 4.72269 3.71521 2.28398C3.86924 1.33139 4.57096 0.528613 5.49588 0.192945C6.87506 -0.306669 8.15369 0.209198 8.7905 1.18087C9.55497 0.153372 10.9919 -0.364616 12.4025 0.288345C13.0642 0.595039 13.5563 1.18299 13.7061 1.8939C14.2509 4.47818 11.4041 7.39319 9.07861 8.31044V8.31186ZM11.4191 2.76663C11.407 2.28186 10.9185 2.19211 10.6033 2.55675C10.0121 3.24151 9.21695 3.54326 8.68568 3.54326C8.1544 3.54326 7.3828 3.24222 6.85224 2.55675C6.56913 2.19211 6.07279 2.28115 6.01788 2.76663C5.92446 3.5899 7.32076 5.64701 8.59297 5.64701C10.005 5.64701 11.439 3.5899 11.4184 2.76663H11.4191Z" fill="#2D2D2D"/>
</g>
<defs>
<clipPath id="clip0_80_667">
<rect width="60" height="33" fill="white"/>
</clipPath>
</defs>
</svg>
