<svg width="53" height="26" viewBox="0 0 53 26" fill="none" xmlns="http://www.w3.org/2000/svg">
<g clip-path="url(#clip0_80_439)">
<path d="M7.33882 0H11.5518V19.0824C11.5518 21.3489 11.1039 23.0664 10.2034 24.2399C9.30299 25.4133 7.8287 26 5.77588 26C3.72306 26 2.24877 25.418 1.34833 24.2493C0.447887 23.0806 0 21.3583 0 19.0824V0H4.21294V19.0824C4.21294 20.3221 4.32025 21.188 4.53952 21.6848C4.7588 22.1816 5.18336 22.4277 5.81787 22.4277C6.41972 22.4277 6.82095 22.1816 7.02623 21.6943C7.23151 21.2069 7.33416 20.3363 7.33416 19.0824V0H7.33882Z" fill="#2D2D2D"/>
<path d="M24.6945 19.4562L25.4877 25.6451H21.2374L20.5516 19.4562C20.4583 18.6235 20.323 18.0699 20.155 17.8002C19.9824 17.5305 19.7304 17.398 19.3899 17.398H18.3495V25.6404H14.2578V0H19.3899C21.3634 0 22.8237 0.558326 23.7614 1.67025C24.6992 2.7869 25.1704 4.49973 25.1704 6.80874V10.012C25.1704 12.6712 24.3866 14.5259 22.8237 15.5716C23.8361 16.253 24.4566 17.5447 24.6899 19.4515M18.3495 13.8966H19.3899C19.9637 13.8966 20.3696 13.5938 20.5982 12.9929C20.8268 12.392 20.9435 11.3984 20.9435 10.0167V6.81347C20.9435 5.51228 20.8362 4.64641 20.6169 4.2111C20.3976 3.7758 19.9917 3.55814 19.3899 3.55814H18.3495V13.8966Z" fill="#2D2D2D"/>
<path d="M32.8171 0C36.9787 0 39.0595 2.30901 39.0595 6.92229V18.7228C39.0595 23.3361 36.9787 25.6451 32.8171 25.6451H27.8623V0H32.8171ZM32.8171 22.087C33.6382 22.087 34.184 21.8599 34.45 21.3962C34.7159 20.9372 34.8465 20.0477 34.8465 18.7228V6.92229C34.8465 5.57379 34.6926 4.67953 34.3893 4.23003C34.0814 3.78053 33.5589 3.55814 32.8217 3.55814H32.0986V22.0823H32.8217L32.8171 22.087Z" fill="#2D2D2D"/>
<path d="M48.6801 25.6451L48.2742 21.1028H44.9244L44.5185 25.6451H40.3242L43.4454 0H49.8978L53.0004 25.6404H48.6801V25.6451ZM45.2416 17.5447H47.957L46.7579 3.56288H46.4407L45.2416 17.5447Z" fill="#2D2D2D"/>
</g>
<defs>
<clipPath id="clip0_80_439">
<rect width="53" height="26" fill="white"/>
</clipPath>
</defs>
</svg>
